<svg width="747" height="410" viewBox="0 0 747 410" fill="none" xmlns="http://www.w3.org/2000/svg">
<g clip-path="url(#clip0_30_4)">
<path d="M743.412 405.822H543.99L532.319 405.783L153.134 404.538L28.0621 404.125C28.0621 404.125 -19.2216 320.608 8.96539 236.555C11.7424 228.256 15.2573 219.961 19.6242 211.737C22.5295 206.263 25.8162 200.822 29.5094 195.44C29.8908 194.887 30.2723 194.34 30.6608 193.787C35.9617 186.254 42.086 178.835 49.1194 171.6C102.784 116.382 152.274 108.889 192.878 112.646C225.278 115.635 252.018 125.791 270.704 124.566C312.812 121.81 326.315 34.8621 450.881 8.63601C475.734 3.40454 503.633 0.363228 531.492 0.333764C609.376 0.242099 687.011 23.6331 697.234 88.2178C698.71 97.5382 698.781 107.707 697.249 118.792C696.172 126.622 694.286 134.908 691.527 143.669C686.418 159.93 667.176 189.769 655.6 209.409C618.641 272.104 678.127 271.076 721.827 295.941C723.624 296.963 725.414 298.01 727.19 299.083C758.374 317.954 743.412 405.818 743.412 405.822Z" fill="#D9F2FF" fill-opacity="0.6"/>
</g>
<path d="M329.179 403.785H274.994C270.553 403.785 267 400.234 267 395.794V338.972C267 334.533 270.553 330.981 274.994 330.981H329.179C332.732 330.981 336.285 334.533 336.285 338.972V395.794C336.285 400.234 332.732 403.785 329.179 403.785Z" fill="#5CB30B"/>
<path d="M361.156 403.785H306.972C302.531 403.785 298.978 400.234 298.978 395.794V338.972C298.978 334.533 302.531 330.981 306.972 330.981H361.156C365.598 330.981 368.263 334.533 368.263 338.972V395.794C368.263 400.234 365.598 403.785 361.156 403.785Z" fill="#8ACD00"/>
<path d="M457.089 179.159C458.866 177.383 466.86 178.271 466.86 178.271L477.52 173.832C485.514 169.393 495.285 164.953 497.95 162.29C502.391 156.075 508.609 136.542 514.827 123.224C515.402 122.032 515.994 120.848 516.603 119.673V118.785L517.492 117.897L520.156 112.57L523.71 110.794C523.71 110.794 526.374 111.682 528.151 115.234L529.039 116.122L532.592 123.224L533.48 131.215C533.48 136.542 530.816 142.757 527.263 148.972C527.281 149.268 527.281 149.564 527.263 149.86C520.156 161.402 510.385 173.832 504.168 177.383C500.615 180.047 489.955 181.822 481.961 182.71L468.637 183.598C467.749 185.374 461.531 192.477 458.866 190.701C456.201 188.037 456.201 180.935 457.089 179.159Z" fill="#FFB27D"/>
<path d="M492.62 330.094H438.436C433.994 330.094 430.441 326.542 430.441 322.103V265.28C430.441 260.841 433.994 257.29 438.436 257.29H492.62C496.173 257.29 499.726 260.841 499.726 265.28V322.103C499.726 326.542 496.173 330.094 492.62 330.094Z" fill="#D87D0F"/>
<path d="M524.598 330.094H470.413C465.972 330.094 462.419 326.542 462.419 322.103V265.28C462.419 260.841 465.972 257.29 470.413 257.29H524.598C529.039 257.29 531.704 260.841 531.704 265.28V322.103C531.704 326.542 528.151 330.094 524.598 330.094Z" fill="#FF8B00"/>
<path d="M470.413 257.29H416.229C411.788 257.29 408.235 253.738 408.235 249.299V192.477C408.235 188.037 411.788 184.486 416.229 184.486H470.413C474.855 184.486 477.52 188.037 477.52 192.477V249.299C477.52 253.738 474.855 257.29 470.413 257.29Z" fill="#5CB30B"/>
<path d="M502.391 257.29H448.207C443.765 257.29 440.212 253.738 440.212 249.299V192.477C440.212 188.037 443.765 184.486 448.207 184.486H502.391C506.832 184.486 510.385 188.037 510.385 192.477V249.299C510.385 253.738 506.832 257.29 502.391 257.29Z" fill="#8ACD00"/>
<path d="M355.827 244.86C357.603 248.411 365.598 247.523 371.816 243.084L392.246 230.654C395.799 227.991 399.352 217.336 402.905 211.122L404.682 206.682C408.235 205.794 408.235 202.243 411.788 200.467C415.341 199.579 414.453 196.916 414.453 196.916L408.235 196.028C406.458 196.028 403.793 199.579 402.905 202.243L397.575 206.682L385.14 220C382.475 223.551 365.598 227.103 361.156 231.542C353.162 237.757 355.827 244.86 355.827 244.86ZM385.14 293.692L367.374 395.794L361.156 396.682C361.156 396.682 356.715 351.402 361.156 336.308C364.71 321.215 354.05 301.682 356.715 288.365C360.268 274.159 385.14 293.692 385.14 293.692Z" fill="#ED985F"/>
<path d="M364.709 236.869L379.81 234.206L380.698 224.439V217.336L368.263 216.449L362.933 215.561C365.598 221.776 364.709 236.869 364.709 236.869Z" fill="#FFB27D"/>
<path d="M364.71 219.112C364.71 219.112 372.704 226.215 380.698 224.439V217.336L368.263 216.448L364.71 219.112Z" fill="#ED985F"/>
<path d="M373.592 318.551C376.257 327.43 378.922 337.196 378.034 344.299C377.581 346.644 377.284 349.017 377.145 351.402C377.056 353.472 377.056 355.546 377.145 357.617C378.034 376.262 384.251 394.019 385.14 396.682V397.57L390.469 396.682L393.134 289.252C393.134 289.252 368.263 278.598 367.374 291.916C366.486 299.019 370.039 308.785 373.592 318.551Z" fill="#FFB27D"/>
<path d="M358.492 324.766C364.968 325.619 371.506 325.916 378.034 325.654C380.698 325.654 381.587 321.215 382.475 316.776C383.363 306.122 381.587 289.252 379.81 288.365H356.715C356.715 288.365 351.385 300.794 358.492 324.766Z" fill="#2B5D8B"/>
<path d="M362.045 324.766C366.486 325.654 373.592 326.542 378.034 325.654C379.81 325.654 381.587 321.215 381.587 316.776L370.039 296.355L361.156 292.804C361.156 292.804 357.603 308.785 362.045 324.766Z" fill="#233862"/>
<path d="M393.134 288.364C393.134 288.364 397.575 309.673 396.687 326.542C396.687 326.542 386.916 329.206 376.257 326.542C376.257 326.542 358.492 299.906 360.268 291.028C361.156 282.149 388.693 285.701 393.134 288.364Z" fill="#2B5D8B"/>
<path d="M385.14 214.673C385.14 214.673 370.039 227.103 363.821 217.337C357.603 207.57 350.497 203.131 359.38 195.14C367.374 187.15 371.816 188.925 375.369 191.589C378.034 194.252 388.693 211.122 385.14 214.673Z" fill="#FFB27D"/>
<path d="M346.056 198.692H347.832V192.477L348.721 196.916C349.609 189.813 365.598 185.374 367.374 185.374C369.151 184.486 369.151 181.823 369.151 181.823C371.816 182.71 375.369 187.15 375.369 190.701C375.369 195.14 371.816 203.131 370.039 203.131C368.263 203.131 368.263 204.907 370.039 207.57C371.816 210.234 369.151 216.449 367.374 219.112C364.71 220.888 363.821 219.112 362.933 219.112C362.437 218.654 361.821 218.346 361.156 218.224C356.715 217.337 351.385 212.009 349.609 205.794C347.832 203.131 347.832 200.467 347.832 199.58L346.056 198.692Z" fill="#7A4830"/>
<path d="M377.145 357.617C378.034 376.262 384.251 394.019 385.14 396.682H389.581C388.693 395.794 380.698 358.505 377.145 357.617Z" fill="#ED985F"/>
<path d="M361.156 403.785H364.709L367.374 402.897L370.039 403.785H385.14L384.251 401.121L383.363 400.234C381.587 399.346 378.922 399.346 376.257 396.682L368.263 392.243L364.709 394.019C363.821 394.906 361.156 392.243 361.156 392.243L360.268 394.019C360.118 394.601 360.118 395.212 360.268 395.794L359.38 401.121C359.09 401.423 358.793 401.719 358.492 402.009L361.156 403.785Z" fill="#233862"/>
<path d="M360.268 394.019L363.821 395.794C365.598 395.794 368.263 392.243 368.263 392.243L364.709 394.019C363.821 394.906 361.156 393.131 361.156 393.131L360.268 394.019ZM361.156 403.785H364.709L367.374 402.897L370.039 403.785H385.14L384.251 401.121L383.363 402.897H370.927C370.927 402.009 368.263 401.121 365.598 402.009L359.38 401.121C359.09 401.423 358.793 401.719 358.492 402.009L361.156 403.785Z" fill="#AA3E39"/>
<path d="M383.363 403.785H386.916L390.469 402.897L393.134 403.785H407.346V401.121L405.57 400.234C404.682 399.346 401.128 399.346 398.464 396.682L391.358 392.243L387.804 394.019C386.028 394.906 383.363 392.243 383.363 392.243V394.019C382.904 394.514 382.596 395.13 382.475 395.794L381.587 400.234L380.698 402.009L383.363 402.897V403.785Z" fill="#233862"/>
<path d="M383.363 394.019L386.916 395.794L391.358 392.243L387.804 394.019C386.028 394.906 383.363 392.243 383.363 392.243V394.019ZM383.363 403.785H386.916L390.469 402.897H393.134V403.785H407.346V401.121C406.458 400.234 406.458 402.897 406.458 402.897H394.022C393.134 402.009 391.358 401.121 388.693 402.009L381.587 400.234C381.308 400.834 381.012 401.426 380.698 402.009L383.363 403.785Z" fill="#AA3E39"/>
<path d="M355.827 289.252C358.492 290.14 368.263 293.691 383.363 291.028C386.679 290.373 389.945 289.483 393.134 288.364L391.358 247.523L389.581 228.878L381.587 226.215C381.587 226.215 369.151 227.991 364.709 226.215C364.709 226.215 359.38 228.878 357.603 232.43C354.939 235.093 351.385 264.392 355.827 289.252Z" fill="#739CF3"/>
<path d="M383.363 291.028L393.134 288.365L390.469 241.309L384.251 240.421C384.251 240.421 378.034 271.495 383.363 291.028Z" fill="#6488D3"/>
<path d="M380.698 244.86C381.587 248.411 389.581 247.523 395.799 243.084C396.377 242.479 396.97 241.887 397.575 241.308L416.229 230.654C420.67 227.103 425.112 213.785 428.665 208.458V206.682C433.106 205.794 432.218 202.243 435.771 200.467C440.212 199.579 438.436 196.916 438.436 196.916L432.218 196.028L426.888 202.243C425.69 203.113 424.506 204.001 423.335 204.907L409.123 220C407.346 222.664 398.464 225.327 391.358 227.991C388.693 228.879 386.916 229.766 386.028 231.542C377.145 237.757 380.698 244.86 380.698 244.86Z" fill="#FFB27D"/>
<path d="M380.698 244.86C381.587 248.411 389.581 247.523 395.799 243.084L397.575 241.308C391.358 236.869 391.358 229.766 391.358 227.991L385.14 230.654C377.145 237.757 380.698 244.86 380.698 244.86Z" fill="#739CF3"/>
<path d="M538.81 41.5421C538.81 40.6543 538.81 30.8879 553.022 30.8879C553.022 30.8879 545.916 31.7758 545.028 34.4393C545.028 34.4393 549.469 30.8879 553.022 31.7758C557.464 33.5515 559.24 39.7664 559.24 42.43C559.24 45.0935 557.464 52.1964 554.799 53.0842H552.134C552.794 54.2331 553.387 55.4188 553.911 56.6356C559.24 68.1777 553.911 79.7197 548.581 78.8319C545.916 77.944 545.028 83.2711 545.028 83.2711L515.715 58.4113C515.715 58.4113 526.374 35.3272 538.81 41.5421Z" fill="black"/>
<path d="M528.151 392.243L534.369 394.907C534.369 394.907 561.017 355.841 564.57 321.215C565.458 315 564.57 308.785 563.682 303.458L564.57 299.019L565.458 294.579C569.815 267.338 574.257 240.111 578.782 212.897H577.006L559.24 206.682L555.687 194.252L542.363 190.701C542.363 190.701 538.81 196.916 536.145 225.327C535.721 229.757 535.425 234.198 535.257 238.645C534.369 251.963 534.369 269.72 536.145 289.252C536.881 294.604 537.769 299.933 538.81 305.234L539.698 320.327C537.922 348.738 528.151 392.243 528.151 392.243Z" fill="#2B478B"/>
<path d="M535.257 238.645L564.57 299.019L565.458 294.579C569.815 267.338 574.257 240.111 578.782 212.897L542.363 190.701C542.363 190.701 538.81 196.916 536.145 225.327C535.722 229.757 535.426 234.198 535.257 238.645Z" fill="#233862"/>
<path d="M547.693 198.692L548.581 192.477C560.129 195.14 590.33 183.598 590.33 183.598C590.33 183.598 600.989 193.365 600.101 217.336L596.548 294.579C596.291 298.134 595.995 301.686 595.659 305.234V307.009L600.989 317.664C613.425 354.953 598.324 400.234 598.324 400.234L594.771 398.458C594.771 398.458 585.888 347.85 578.782 325.654C577.894 322.103 577.006 318.551 575.229 316.776L567.235 293.692C561.905 274.159 558.352 249.299 555.687 230.654L547.693 198.692Z" fill="#2B478B"/>
<path d="M526.374 124.112C529.927 125.888 534.369 127.663 539.698 127.663C559.24 128.551 563.682 110.794 564.57 99.2523C561.017 97.4766 559.24 98.3644 557.464 98.3644H553.911C551.246 97.4766 546.804 91.2616 544.14 80.6074H543.251L529.927 87.7102C530.828 93.3893 532.014 99.0195 533.48 104.579L531.704 105.467C530.816 106.355 528.151 114.346 526.374 124.112Z" fill="#FFB27D"/>
<path d="M529.927 87.7102L531.704 96.5887C540.587 94.813 542.363 85.0467 543.251 80.6074L529.927 87.7102Z" fill="#ED985F"/>
<path d="M528.151 93.0374C528.151 93.0374 547.693 87.7103 544.14 75.2804C541.475 61.9626 541.475 53.0841 529.039 55.7477C516.603 58.4112 515.715 63.7383 515.715 68.1776C515.715 72.6168 522.821 93.9252 528.151 93.0374Z" fill="#FFB27D"/>
<path d="M513.939 61.0748C516.603 56.6356 519.268 56.6356 520.156 57.5234C529.927 48.6449 545.028 53.0842 545.028 53.0842C548.581 61.9627 549.469 68.1776 549.469 68.1776C549.469 68.1776 546.804 71.729 537.922 70.8412L529.927 68.1776C535.257 73.5047 540.587 76.1683 540.587 76.1683C529.039 74.3926 521.933 61.0748 521.045 59.2991C520.156 61.0748 518.38 63.7384 518.38 66.4019C518.38 69.9533 519.268 77.0561 517.492 77.0561C517.492 77.0561 511.274 68.1776 513.939 61.0748Z" fill="black"/>
<path d="M514.827 123.224L520.156 111.682C520.156 111.682 522.821 109.019 531.704 105.467C530.816 106.355 527.263 119.673 529.039 122.336C529.927 125.888 554.799 116.121 556.575 114.346L557.464 99.2523V98.3645C557.464 98.3645 566.346 96.5888 571.676 99.2523L569.011 109.019V110.794C568.956 111.681 568.956 112.571 569.011 113.458L570.788 117.009L574.341 120.561L577.894 122.336V149.86C578.385 153.48 579.929 156.876 582.335 159.626C587.665 166.729 597.436 179.159 595.659 187.15C595.659 195.14 537.922 204.907 536.145 196.028C536.145 196.028 527.263 149.86 521.933 139.206C521.907 138.614 521.907 138.022 521.933 137.43C520.156 133.879 520.156 128.551 521.045 125C518.38 123.224 514.827 123.224 514.827 123.224Z" fill="#FF2164"/>
<path d="M552.134 180.935C564.57 180.935 574.341 167.617 580.559 156.963C579.193 154.802 578.286 152.385 577.894 149.86V122.336L574.341 120.561L570.788 117.009C561.017 134.766 536.145 180.935 552.134 180.935Z" fill="#D71737"/>
<path d="M576.117 403.785H607.207C607.207 403.785 607.207 398.458 606.318 394.906C604.542 391.355 601.877 389.579 602.765 385.14C600.101 386.916 597.436 389.579 592.994 388.692L587.665 395.794C585 397.57 576.117 397.57 576.117 403.785ZM508.609 403.785H539.698C539.698 403.785 541.475 398.458 538.81 394.906C537.034 391.355 537.922 389.579 539.698 386.916L534.369 387.804L529.927 386.028L521.045 395.794C518.38 397.57 509.497 397.57 508.609 403.785Z" fill="#233862"/>
<path d="M478.408 403.785H424.223C419.782 403.785 416.229 400.234 416.229 395.794V338.084C416.229 333.645 419.782 330.094 424.223 330.094H478.408C482.849 330.094 486.402 333.645 486.402 338.084V395.794C486.402 400.234 482.849 403.785 478.408 403.785Z" fill="#BD0000"/>
<path d="M510.385 403.785H456.201C451.76 403.785 449.095 400.234 449.095 395.794V338.084C449.095 333.645 451.76 330.094 456.201 330.094H510.385C514.827 330.094 518.38 333.645 518.38 338.084V395.794C518.38 400.234 514.827 403.785 510.385 403.785Z" fill="#FF0000"/>
<path d="M478.408 184.486H424.223C419.782 184.486 416.229 180.935 416.229 176.495V118.785C416.229 114.346 419.782 110.794 424.223 110.794H478.408C482.849 110.794 486.402 114.346 486.402 118.785V176.495C486.402 180.935 482.849 184.486 478.408 184.486Z" fill="#4889D9"/>
<path d="M510.385 184.486H456.201C451.76 184.486 449.095 180.935 449.095 176.495V118.785C449.095 114.346 451.76 110.794 456.201 110.794H510.385C514.827 110.794 518.38 114.346 518.38 118.785V176.495C518.38 180.935 514.827 184.486 510.385 184.486Z" fill="#8CD2FF"/>
<path d="M704.028 403.785H649.844C645.402 403.785 642.737 400.234 642.737 395.794V338.084C642.737 333.645 645.402 330.094 649.844 330.094H704.028C708.469 330.094 712.022 333.645 712.022 338.084V395.794C712.022 400.234 708.469 403.785 704.028 403.785Z" fill="#E81725"/>
<path d="M736.006 403.785H681.821C678.268 403.785 674.715 400.234 674.715 395.794V338.084C674.715 333.645 678.268 330.094 681.821 330.094H736.006C740.447 330.094 744 333.645 744 338.084V395.794C744 400.234 740.447 403.785 736.006 403.785Z" fill="#FF646E"/>
<path d="M667.609 330.094H613.425C608.983 330.094 606.318 326.542 606.318 322.103V265.28C606.318 260.841 608.983 257.29 613.425 257.29H667.609C672.05 257.29 675.603 260.841 675.603 265.28V322.103C675.603 326.542 672.05 330.094 667.609 330.094Z" fill="#FFDB56"/>
<path d="M699.587 330.094H645.402C641.849 330.094 638.296 326.542 638.296 322.103V265.28C638.296 260.841 641.849 257.29 645.402 257.29H699.587C704.028 257.29 707.581 260.841 707.581 265.28V322.103C707.581 326.542 704.028 330.094 699.587 330.094Z" fill="#FFF73E"/>
<path d="M337.173 346.963L338.061 347.851L338.95 349.626L352.274 385.14V386.916H345.168V386.028L342.503 379.813H325.626L322.961 386.028L322.073 386.916H316.743H315.855C315.78 386.625 315.78 386.319 315.855 386.028V385.14L329.179 349.626L330.067 347.851L330.955 346.963H337.173ZM339.838 372.71L333.62 355.841L328.291 372.71H339.838ZM503.279 300.794L504.168 299.907H510.385L511.274 300.794L509.497 306.122L506.832 309.673L502.391 313.224L495.285 314.112L488.179 313.224C486.281 312.413 484.583 311.199 483.203 309.666C481.822 308.133 480.792 306.317 480.184 304.346L479.296 298.131C479.262 296.651 479.262 295.171 479.296 293.692V289.252L480.184 282.15L483.737 277.71L488.179 274.159L495.285 273.271L502.391 274.159L506.832 277.71L509.497 281.262L511.274 286.589L510.385 287.477C510.094 287.552 509.789 287.552 509.497 287.477H505.056H504.168L503.279 286.589C503.19 285.645 502.887 284.734 502.391 283.925C502.18 283.295 501.881 282.697 501.503 282.15L498.838 280.374C496.153 279.703 493.316 280.018 490.844 281.262L488.179 283.037L487.291 285.701C486.821 286.834 486.521 288.031 486.402 289.252C486.368 290.732 486.368 292.212 486.402 293.692C486.585 296.367 486.882 299.032 487.291 301.682L488.179 304.346L490.844 306.122L495.285 307.009L498.838 306.122L501.503 305.234L503.279 303.458C503.472 302.581 503.472 301.672 503.279 300.794ZM495.285 160.514L496.173 161.402L497.061 162.29V165.841L496.173 167.617H471.302H470.413C470.257 167.347 470.175 167.041 470.175 166.729C470.175 166.417 470.257 166.111 470.413 165.841V129.439V128.551L471.302 127.664H495.285L496.173 128.551V134.766H477.52V143.645H493.508L494.397 144.533L495.285 145.421V149.86L494.397 150.748H477.52V160.514H495.285Z" fill="white"/>
<path d="M314.966 320.327C316.743 312.336 312.302 305.234 305.196 303.458C298.089 301.682 290.983 306.122 289.207 313.224C287.43 321.215 291.872 328.318 298.978 330.093C306.084 331.869 313.19 327.43 314.966 320.327Z" fill="#F99746"/>
<path d="M301.642 302.57H299.866C305.196 303.458 308.749 307.897 308.749 314.112C308.749 319.439 304.307 324.766 298.978 324.766C293.648 324.766 289.207 320.327 288.318 315C288.281 315.591 288.281 316.184 288.318 316.776C288.318 324.766 294.536 330.981 301.642 330.981C308.749 330.981 314.966 324.766 314.966 316.776C314.966 308.785 308.749 302.57 301.642 302.57Z" fill="#ED7D2B"/>
<path d="M654.285 400.234C659.615 394.906 659.615 386.028 654.285 380.701C648.955 375.374 640.961 375.374 635.631 380.701C630.302 386.028 630.302 394.906 635.631 400.234C640.961 405.561 648.955 405.561 654.285 400.234Z" fill="#F99746"/>
<path d="M644.514 376.262H643.626C648.067 377.15 652.508 381.589 652.508 386.916C652.508 393.131 648.067 397.57 641.849 397.57C636.52 397.57 632.966 394.019 632.078 388.692C632.041 389.283 632.041 389.876 632.078 390.467C632.078 397.57 637.408 403.785 644.514 403.785C652.508 403.785 657.838 397.57 657.838 390.467C657.838 382.477 652.508 376.262 644.514 376.262Z" fill="#ED7D2B"/>
<path d="M714.687 318.551C715.575 310.561 711.134 303.458 704.028 302.57C696.922 301.682 689.816 306.121 688.927 314.112C687.151 322.103 692.48 329.205 699.587 330.093C706.693 330.981 713.799 326.542 714.687 318.551Z" fill="#F99746"/>
<path d="M701.363 302.57H700.475C704.916 303.458 709.358 307.897 709.358 313.224C709.358 319.439 704.028 323.878 698.698 323.878C693.369 323.878 688.927 320.327 688.927 315C688.59 315.57 688.293 316.164 688.039 316.776C688.039 323.878 694.257 330.093 701.363 330.093C708.469 330.093 714.687 323.878 714.687 316.776C714.687 308.785 708.469 302.57 701.363 302.57Z" fill="#ED7D2B"/>
<path d="M475.743 181.822H483.737L489.067 182.71L485.514 180.047L486.402 179.159L494.397 181.822C496.173 183.598 498.838 183.598 498.838 183.598L504.168 181.822C506.845 180.668 509.51 179.484 512.162 178.271C521.383 174.199 530.29 169.451 538.81 164.065L543.251 155.187C544.462 153.13 545.647 151.059 546.805 148.972L553.022 136.542C558.047 126.155 563.682 116.075 569.899 106.355L573.453 104.579L574.341 105.467C574.341 105.467 580.559 108.131 578.782 122.336V125L576.117 132.991C574.341 139.206 571.676 144.533 568.123 150.748L565.458 156.075C559.24 168.505 551.246 180.047 545.028 183.598C544.732 183.623 544.435 183.623 544.14 183.598L534.369 186.262L515.715 188.925L506.832 189.813H505.056L499.726 190.701C499.726 190.701 487.291 192.477 484.626 190.701C481.961 188.037 474.855 182.71 475.743 181.822Z" fill="#FFB27D"/>
<path d="M557.464 119.673C566.346 117.009 577.894 132.991 577.894 132.991C588.553 101.916 571.676 99.2524 571.676 99.2524C569.011 97.4767 561.017 112.57 557.464 119.673Z" fill="#D71737"/>
<defs>
<clipPath id="clip0_30_4">
<rect width="747" height="405.726" fill="white" transform="translate(0 0.333496)"/>
</clipPath>
</defs>
</svg>
