<?xml version="1.0" encoding="utf-8"?>
<!-- Generator: Adobe Illustrator 24.3.0, SVG Export Plug-In . SVG Version: 6.00 Build 0)  -->
<svg version="1.1" id="Слой_1" xmlns="http://www.w3.org/2000/svg" xmlns:xlink="http://www.w3.org/1999/xlink" x="0px" y="0px"
	 viewBox="0 0 600 600" style="enable-background:new 0 0 600 600;" xml:space="preserve">
<style type="text/css">
	.st0{fill:#B2E1FB;}
	.st1{opacity:0.8;fill:#9BCDEA;}
	.st2{fill:#9BCDEA;}
	.st3{fill:#7F3323;}
	.st4{fill:#FFB37F;}
	.st5{fill:#E34429;}
	.st6{fill:#E98640;}
	.st7{opacity:0.6;fill:#E98640;}
	.st8{fill:#E6543E;}
	.st9{fill:#EA6038;}
	.st10{fill:#60100E;}
	.st11{fill:#EC8940;}
	.st12{fill:#FFFFFF;}
	.st13{fill:#9FA24B;}
	.st14{fill:#261113;}
	.st15{fill:#EBEBEB;}
	.st16{opacity:0.2;fill:#755E20;}
	.st17{fill:#FFE272;}
	.st18{fill:#F5D25C;}
	.st19{opacity:0.25;fill:#FFFFFF;}
	.st20{opacity:0.5;fill:#FFB001;}
	.st21{opacity:0.2;fill:#BD7C00;}
	.st22{fill:#474747;}
	.st23{fill:#875F27;}
	.st24{opacity:0.2;fill:#FFFFFF;}
	.st25{fill:#487DB4;}
	.st26{fill:#B9D4F5;}
	.st27{fill:#6193C8;}
	.st28{fill:#616161;}
	.st29{opacity:0.3;}
	.st30{fill:#F2A56E;}
	.st31{opacity:0.2;}
	.st32{fill:#FFBF96;}
	.st33{fill:#752D17;}
	.st34{fill:#3E1406;}
	.st35{fill:#FFB07F;}
	.st36{fill:#B1E0FA;}
	.st37{fill:#ED8BA4;}
	.st38{opacity:0.5;fill:#ED8BA4;}
	.st39{fill:#DF891D;}
	.st40{fill:#70AEA4;}
	.st41{opacity:0.6;fill:#70AEA4;}
	.st42{fill:#BCD948;}
	.st43{fill:#6D2719;}
	.st44{font-family:'ComicSansMS';}
	.st45{font-size:48px;}
</style>
<g>
	<g>
		<g>
			<g>
				<path class="st0" d="M256.51,448.08c0,1.29,3.1,2.34,7.22,2.34c4.15,0,7.23-1.04,7.23-2.34l4.01-28.01l3.55-24.86l1.22-8.52
					l0.51-3.56h-14.89l-0.37,2.78l-1.72,12.78l-0.04,0.03l-4.05,29.77L256.51,448.08z"/>
				<path class="st0" d="M240.47,435.98c0,0.06,0.02,0.13,0.04,0.21c0.34,1.18,3.3,2.1,7.22,2.1c4.1,0,7.38-1.05,7.38-2.31
					l0.72-5.39l2.75-20.57c0.07-0.44,0.08-0.9,0.15-1.37l3.08-22.99l0.51-3.86h-15.08l-0.18,1.41l-1.92,15.49L240.47,435.98z"/>
				<path class="st1" d="M280.25,383.13l-1.73,12.09c-3.8-9.25-12.68-3.74-15.26,3.47l2.11-15.56H280.25z"/>
				<path class="st1" d="M258.74,408.64c0.34-6.24-1.6-15.26-5.09-16.26c-5.14-1.47-8.51,6.31-8.51,6.31l2.1-16.9h15.08
					L258.74,408.64z"/>
			</g>
			<g>
				<path class="st0" d="M325.03,383.13l0.36,2.53l1.37,9.55l0.39,2.69l1.68,11.85l4.68,32.69l0.8,5.63c0,0.39,0.26,0.74,0.76,1.06
					c0.85,0.55,2.35,0.97,4.25,1.17h0.04c0.19,0.02,0.4,0.03,0.59,0.05c0.52,0.05,1.07,0.06,1.61,0.06c4.13,0,7.21-1.04,7.21-2.34
					l-1.51-11.06l-3.63-26.84l-1.56-11.46l-0.04-0.03l-2.08-15.37l-0.03-0.19H325.03z"/>
				<path class="st1" d="M325.04,383.13l1.73,12.09c3.82-9.25,12.7-3.74,15.26,3.47l-2.1-15.56H325.04z"/>
			</g>
			<g>
				<path class="st0" d="M306.28,381.79l3.59,26.85c0.06,0.48,0.1,0.93,0.16,1.38l3.46,25.95c0,1.27,3.28,2.31,7.4,2.31
					c4.15,0,7.24-1.04,7.24-2.31l-4.68-37.28l-2.1-16.9H306.28z"/>
				<path class="st1" d="M309.87,408.64c-0.34-6.24,1.6-15.26,5.07-16.26c5.16-1.47,8.52,6.31,8.52,6.31l-2.1-16.9h-15.08
					L309.87,408.64z"/>
			</g>
			<path class="st2" d="M245.16,362.72v19.06c0,2.83,21.71,5.13,48.5,5.13s48.5-2.31,48.5-5.13v-19.06H245.16z"/>
			<path class="st0" d="M342.16,362.72c0,2.84-21.71,5.12-48.5,5.12s-48.5-2.28-48.5-5.12c0-2.83,21.71-5.13,48.5-5.13
				S342.16,359.89,342.16,362.72z"/>
		</g>
		<path class="st3" d="M310.42,109.46c-7.16-7.62-22.03-9.33-28.64-5.93c-6.61,3.4-19.27,13.14-22.22,17.38
			c-2.94,4.24-1.47,11.87-3.48,14c-2.03,2.11-7.35,11.23-5.51,18.43c1.83,7.22,8.99,13.79,9.55,17.81c0.55,4.04,0,9.33,2.75,12.09
			c2.76,2.77,6.8,1.91,8.63,3.82c1.84,1.91,0.18,5.3,2.2,6.58c2.03,1.27,4.95,0,6.61,1.27c1.65,1.27,2.57,4.02,3.13,5.94
			c1.83-0.85,23.49-5.31,22.21-1.7c2.94,1.27,3.12-3.61,4.77-4.46c1.65-0.84,4.22,0,6.05,0.85c0.93-1.05-1.47-5.3,0-7.42
			c1.47-2.12,7.17-1.27,9.37-3.81c2.21-2.55,1.29-6.79,3.13-9.76c1.83-2.98,10.46-11.02,10.1-19.92
			c-0.37-8.91-2.57-14.42-6.06-20.99c-3.49-6.58-2.57-15.7-7.16-19.94C321.23,109.46,314.82,107.97,310.42,109.46z"/>
		<path class="st4" d="M266.03,300.67c13.36,2.42,28.97,1.53,54.45-2.97c-3.65-29,11.8-52.23,12.69-57.52
			c2.3,1.24,6.53-34.91,1.99-37.31c-4.52-2.35-16.55-3.04-20.64-5.67c-3.33-2.19-5.79-10.34-6.75-18.5v-0.07
			c-0.22-1.41-0.38-2.73-0.45-4.12c-0.07-0.39-0.07-0.71-0.07-1.09c-0.3,0.3-0.68,0.62-1.2,1c-4.9,3.58-18.49,9.24-18.49,9.24
			s0.15,0.79,0.3,1.95v0.07c0.45,3.66,1.18,11.2-0.3,12.2c-1.93,1.49-20.93,2.19-25.69,3.11c-19.53,3.66,0.82,48.66,0.6,60.32
			C262.27,272.98,272.71,284.12,266.03,300.67z"/>
		<path class="st5" d="M225.2,295.33c0.17,0.11,0.21,0.22,0.32,0.22c5.06,1.69,12.38-8.29,16.46-17.86
			c1.57-3.6,9.69-18.75,14.64-28.66c1.07,4.84,0.32,15.71,7.26,20.95c3.28,5.74-3.28,36.61-5.28,44.79h64.08
			c-1.78-14.48-1.88-37.63,3.55-46.2c8.73-11.54,6.46-25.75,6.96-28.39l4.73-35.61c-0.92-0.67-1.82-1.18-2.74-1.69
			c-3.13-1.63-9.8-2.47-14.95-3.66c-1.18,14.7-11.68,20.84-24.33,21.91c-18.83,1.63-23.03-21.23-23.03-21.23
			c-2.91-0.52-18.24,1.56-20.93,6.14c-2.69,4.5-22.49,50.86-25.19,58.87c-0.48-0.74-1.18-1.64-1.83-2.65
			C223.16,270.94,222.25,284.57,225.2,295.33z"/>
		<path class="st6" d="M302.59,209.79c2.33-0.68,4.68-1.1,7.05-1.42c2.37-0.3,4.75-0.54,7.17-0.48c-2.32,0.68-4.67,1.08-7.06,1.41
			C307.39,209.61,304.99,209.84,302.59,209.79z"/>
		<path class="st6" d="M293.35,196.01c0.56,1.61,0.84,3.26,1.05,4.93c0.19,1.66,0.31,3.34,0.15,5.07"/>
		<path class="st6" d="M299.86,193.31"/>
		<path class="st6" d="M294.26,210.32c-0.94-0.23-1.66-0.81-2.27-1.48c0.73,0.49,1.5,0.97,2.31,1.01c0.81,0.07,1.55-0.35,2.03-1.01"
			/>
		<path class="st7" d="M287.58,183.66c0,0,0.15,0.79,0.3,1.95v0.07c1.56,0.93,3.34,1.56,5.35,1.71c6.23,0.46,10.83-3.74,14.55-8.7
			v-0.16c0.15-1.55,0.37-2.96,0.52-3.96c-0.29,0-0.6-0.07-0.97-0.07c-0.36,0-0.82-0.09-1.26-0.09
			C301.18,177.99,287.58,183.66,287.58,183.66z"/>
		<path class="st4" d="M274.77,137.82c1.97-9.15,13.43-11.87,19.52-11.92c6.08-0.03,17.56,2.51,19.66,11.65
			c2.19,9.55,2.04,24.98-1.19,31.14c-3.27,6.17-8.8,16.83-18.08,16.89c-9.26,0.06-14.95-10.26-18.28-16.39
			C273.06,163.08,272.72,147.43,274.77,137.82z"/>
		<g>
			<path class="st8" d="M299.78,174.24c-1.2,0.14-3.98-0.39-5.15-0.35c-1.21-0.01-3.99,0.52-5.17,0.43
				c-0.62-0.06-1.48-0.2-2.31-0.65c1.32,2.15,6.55,2.12,7.48,2.11c0.94,0,6.14-0.04,7.45-2.22
				C301.24,174.02,300.37,174.16,299.78,174.24z"/>
			<path class="st9" d="M294.63,175.78c0,0-4.46-0.19-5.57-0.74c0.35,1.51,1.17,2.25,2.22,2.63c1,0.36,2.38,0.44,3.37,0.44
				c0.97,0,2.35-0.11,3.35-0.49c1.02-0.38,1.84-1.14,2.17-2.66C299.08,175.53,294.63,175.78,294.63,175.78z"/>
		</g>
		<g>
			<path class="st6" d="M297.72,164.12c0.26,0.17,0.47,0.46,0.58,0.76c0.14,0.29,0.21,0.63,0.23,0.93c-0.02,0.66-0.22,1.4-0.79,1.73
				c0.23-0.59,0.34-1.12,0.3-1.7c-0.02-0.28-0.04-0.57-0.1-0.87C297.91,164.71,297.84,164.41,297.72,164.12z"/>
			<g>
				<path class="st6" d="M292.12,167.38c-0.1-0.1-0.09-0.34,0.06-0.43c0.09-0.1,0.24-0.17,0.37-0.21c0.09-0.02,0.16-0.02,0.24-0.01
					c0.1,0.01,0.17,0.05,0.24,0.1c0.16,0.07,0.25,0.17,0.36,0.29c0.4,0.46,0.66,0.68,1.19,0.63c0.51,0.04,0.8-0.2,1.16-0.66
					c0.18-0.18,0.48-0.48,0.82-0.38c0.15,0.02,0.29,0.07,0.39,0.2c0.13,0.11,0.16,0.31,0.06,0.42c0.09-0.31-0.28-0.39-0.48-0.37
					c-0.22-0.01-0.36,0.18-0.5,0.37c-0.14,0.22-0.3,0.49-0.58,0.67c-0.25,0.18-0.62,0.24-0.88,0.24c-0.29,0.01-0.61-0.06-0.88-0.24
					c-0.28-0.17-0.46-0.46-0.59-0.63c-0.17-0.22-0.28-0.4-0.5-0.4C292.39,166.99,292.03,167.04,292.12,167.38z"/>
				<path class="st6" d="M291.38,164.18c-0.13,0.3-0.19,0.58-0.24,0.87c-0.04,0.27-0.09,0.57-0.06,0.85
					c-0.04,0.58,0.08,1.09,0.33,1.7c-0.59-0.34-0.82-1.08-0.83-1.7c0.02-0.35,0.07-0.66,0.2-0.98
					C290.9,164.63,291.1,164.32,291.38,164.18z"/>
			</g>
		</g>
		<path class="st4" d="M173.47,203.65c-0.1,0.03-0.07,0.35,0.04,0.88c0.5,2.49,2.76,9.38,2.64,9.44c0.03,0.06,0.04,0.1,0.07,0.15
			c0.84,1.96,2.19,3.65,4.05,4.97l0.01,0.01c0,0,0-0.01,0-0.01c0.3,0.22,0.58,0.45,0.91,0.64c0.61,0.35,1.26,0.68,1.95,1.08
			c1.23,0.73,2.57,1.64,3.94,3.14c0.14,0.17,0.29,0.33,0.43,0.5c0.76,0.9,1.53,2,2.29,3.37c0.75,1.39,2.01,3.65,3.56,6.28
			c0,0,11.44,28.76,13.45,34.75c0.49,1.41,1.4,3.37,2.57,5.59l0.02,0.02c4.17,7.95,11.74,19.24,15.81,20.88l0.01,0.01
			c-0.53-1.9-0.93-3.86-1.23-5.89c-0.77-5.31-0.86-10.93-0.51-16.11c0.04-0.73,0.09-1.44,0.17-2.14c0.08-1.12,0.2-2.21,0.35-3.25
			c0.26-2.06,0.57-3.98,0.92-5.72c-5.94-8.39-18.14-25.88-23.35-33.41c-1.51-2.16-2.42-3.48-2.47-3.57
			c-0.31-0.64-0.57-1.25-0.8-1.84c-1.29-3.19-1.65-5.82-1.59-8.42c0.04-2-0.68-3.88-1.31-5.73c-0.39-1.12-0.73-2.23-0.84-3.37
			c-0.07-0.62-3.28-8.25-3.56-8.47c-0.39-0.39-0.74-0.72-1.07-1.03c-1.88-1.72-2.8-2-3.18-1.46c-0.27,0.39-0.23,1.22-0.02,2.23
			c0.15,0.84,0.41,1.8,0.7,2.74c0.74,2.36,1.65,4.64,1.43,4.61c-0.41,0-2.17-1.53-4.37-3.63c-0.88-0.84-1.82-1.75-2.79-2.7
			c-0.77-0.77-1.57-1.55-2.33-2.32c-0.83-0.82-1.64-1.63-2.37-2.37c-2.05-2.1-3.59-3.71-3.78-3.9c0.19,0.57,4.85,13.83,0.27,14.06
			L173.47,203.65z"/>
		<path class="st5" d="M329.88,201.25l1.6,43.47l0.05,1.65c0.45,0.87,0.93,1.8,1.45,2.8c2.46,4.56,5.78,10.14,8.82,15.17
			c3.72,6.16,7.02,11.57,7.81,13.35c2.7,6.36,6.85,12.89,10.78,16.06c0.37,0.31,0.77,0.58,1.12,0.82c0.43,0.27,0.83,0.5,1.25,0.67
			c1.17,0.52,2.29,0.67,3.31,0.32c0.11,0,0.17-0.12,0.31-0.21c0.03-0.11,0.06-0.19,0.07-0.3c0.54-1.95,0.93-4.01,1.22-6.11
			c1.3-9.37,0.43-19.65-1-26.67c-0.66,1.01-1.36,1.91-1.83,2.65c-2.69-8-22.49-54.36-25.18-58.87c-0.72-1.25-2.35-2.27-4.43-3.13
			c-0.01-0.01-0.03-0.01-0.05-0.03C333.6,202.23,331.75,201.69,329.88,201.25z"/>
		<path class="st4" d="M418.16,203.64c0.61,0-2.83,10.27-2.68,10.34c-0.96,2.33-2.59,4.35-5.03,5.75c-2.46,1.4-5.57,2.64-8.61,8.1
			c-0.76,1.38-2.01,3.64-3.57,6.28c0,0-11.43,28.76-13.44,34.75c-2.22,6.45-13.21,24.4-18.41,26.5c2.97-10.79,2.08-24.4,0.3-33.1
			c7.65-10.81,25.61-36.61,25.84-36.99c1.94-4.05,2.45-7.16,2.37-10.26c-0.07-3.2,1.86-6.07,2.16-9.1c0.07-0.63,3.27-8.25,3.56-8.48
			c8.91-9.01,1.56,7.15,2.16,7.08c1.26,0,15.66-14.94,15.66-14.94S413.49,203.4,418.16,203.64z"/>
		<path class="st5" d="M277.88,266.88c1.69-0.72,3.35-1.49,4.99-2.29c1.64-0.84,3.26-1.66,4.81-2.58c1.53-0.93,3.1-1.9,4.22-3.06
			l0.64-0.65l0.76,0.42c1.03,0.54,1.76,1.08,2.59,1.62l2.4,1.59c1.6,1.06,3.24,2.01,4.9,2.91c1.68,0.87,3.4,1.68,5.18,2.34
			c1.78,0.67,3.61,1.16,5.52,1.54c-5.69,0.72-14.78-1.57-16.49-2.54c-0.85-0.5-3.64-2.28-4.19-2.62c-1.33,1.12-2.71,1.98-4.14,2.74
			c-1.69,0.85-9.37,2.57-16.36,2.43C274.5,268.29,276.19,267.58,277.88,266.88z"/>
		<path class="st10" d="M290.73,147.7c0.19-0.75-1.05-1.19-3.62-1.91c-1.45-0.42-3.72-1.16-6.13-0.64
			c-2.42,0.51-3.93,1.76-4.21,2.34c1.71-0.54,4.22-1.46,5.48-1.27c1.26,0.21,4.12,0.84,4.92,1.03
			C287.95,147.43,290.59,148.21,290.73,147.7z"/>
		<path class="st10" d="M298.24,147.7c-0.2-0.75,1.05-1.19,3.61-1.91c1.46-0.42,3.72-1.16,6.13-0.64c2.42,0.51,3.94,1.76,4.21,2.34
			c-1.7-0.54-4.22-1.46-5.49-1.27c-1.26,0.21-4.12,0.84-4.91,1.03C301.01,147.43,298.37,148.21,298.24,147.7z"/>
		<path class="st3" d="M289.4,128.78c-2.49,4.36-6.13,9.24-12.77,13.46c-3.72,2.37-4.73,7.83-6.06,10.63
			c-9.17-15.01,3.17-34.85,15.01-38.34c9.9-2.92,28.85,4.12,33.68,15.12c4.83,10.99,0.25,18.5-0.42,23.22
			c-3.5-4.72-5.08-8.78-6.08-9.48c0.32,2.27-0.17,4.02-0.34,5.24c-2.16-4.02-5.67-9.43-11.17-11.17
			C295.75,135.72,290.75,133.48,289.4,128.78z"/>
		<g>
			<path class="st11" d="M308.79,151.32c-0.7-0.18-1.3-0.44-2.1-0.7c-0.58-0.23-1.17-0.37-1.8-0.46c-0.32-0.05-0.67-0.06-1.02-0.02
				c-0.31,0.02-0.61,0.06-0.94,0.13c-1.23,0.23-2.43,0.77-3.28,1.53c-0.14,0.15-0.28,0.27-0.41,0.44c0.93-1.21,2.24-2.21,4.51-2.55
				C305.33,149.47,307.49,150.55,308.79,151.32z"/>
			<path class="st12" d="M309.7,151.93c-0.08,0.2-0.18,0.37-0.32,0.55c-1.17,2.12-3.48,3.58-4.73,3.68h-0.06
				c-0.89,0.07-2.29,0.02-3.91-0.41c-0.89-0.25-1.88-0.64-2.87-1.23c0.42-0.77,0.86-1.55,1.44-2.28c0.13-0.18,0.27-0.29,0.41-0.44
				c0.37-0.32,0.82-0.62,1.29-0.88c0.62-0.31,1.3-0.54,1.99-0.66c0.09-0.02,0.18-0.05,0.25-0.05c0.23-0.04,0.45-0.06,0.68-0.08
				c0.35-0.04,0.7-0.02,1.02,0.02c0.63,0.09,1.22,0.23,1.8,0.46c0.8,0.27,1.4,0.52,2.1,0.7c0,0,0,0.02,0.01,0.02
				C309.2,151.59,309.5,151.8,309.7,151.93z"/>
			<path class="st13" d="M305.99,153.44c0,1.15-0.55,2.17-1.41,2.73c-0.89,0.07-2.29,0.02-3.91-0.41c-0.56-0.59-0.9-1.41-0.9-2.32
				c0-1.01,0.45-1.93,1.17-2.52c0.62-0.31,1.3-0.54,1.99-0.66c0.09-0.02,0.18-0.05,0.25-0.05
				C304.76,150.39,305.99,151.76,305.99,153.44z"/>
			<path d="M304.34,153.45c0,0.84-0.65,1.54-1.47,1.54c-0.8,0-1.45-0.7-1.45-1.54c0-0.87,0.65-1.53,1.45-1.53
				C303.69,151.92,304.34,152.59,304.34,153.45z"/>
			<path class="st12" d="M301.97,152.58c0-0.27,0.19-0.47,0.46-0.47c0.25,0,0.45,0.2,0.45,0.47c0,0.28-0.2,0.49-0.45,0.49
				C302.16,153.07,301.97,152.85,301.97,152.58z"/>
			<path class="st14" d="M309.81,152.59l-0.11,0.05l-0.14-0.07c-0.06-0.01-0.12-0.06-0.19-0.08c-0.96-0.44-1.98-0.82-2.99-1.15
				c-0.55-0.16-1.09-0.31-1.64-0.35c-0.26-0.03-0.53-0.03-0.78-0.01c-0.25,0.01-0.56,0.06-0.83,0.09c-1.1,0.2-2.14,0.57-3.02,1.19
				c-0.88,0.6-1.59,1.46-2.32,2.27c0.38-0.8,0.8-1.58,1.44-2.28c0.13-0.18,0.27-0.29,0.41-0.44c0.85-0.77,2.05-1.3,3.28-1.53
				c0.33-0.07,0.63-0.11,0.94-0.13c0.35-0.04,0.7-0.02,1.02,0.02c0.63,0.09,1.22,0.23,1.8,0.46c0.8,0.27,1.4,0.52,2.1,0.7
				c0,0,0,0.02,0.01,0.02c0.29,0.09,0.56,0.14,0.9,0.22C310.87,151.76,310.93,152.2,309.81,152.59z"/>
			<path class="st11" d="M289.11,152.24c-0.12-0.18-0.26-0.29-0.41-0.44c-0.86-0.77-2.08-1.3-3.28-1.53
				c-0.32-0.07-0.63-0.11-0.94-0.13c-0.36-0.04-0.68-0.02-1.01,0.02c-0.66,0.09-1.24,0.23-1.82,0.46c-0.81,0.27-1.4,0.52-2.09,0.7
				c1.31-0.77,3.49-1.85,5.03-1.63C286.87,150.03,288.18,151.03,289.11,152.24z"/>
			<path class="st12" d="M290.56,154.53c-1.87,1.11-3.72,1.51-5.09,1.63c-0.7,0.07-1.29,0.04-1.74,0.02
				c-0.75-0.05-1.86-0.59-2.89-1.45c-0.71-0.61-1.37-1.36-1.87-2.24c-0.13-0.18-0.24-0.36-0.31-0.55c0.2-0.13,0.5-0.34,0.89-0.59
				c0.03,0,0.03-0.02,0.03-0.02c0.68-0.18,1.28-0.44,2.09-0.7c0.58-0.23,1.17-0.37,1.82-0.46c0.33-0.05,0.65-0.06,1.01-0.02
				c0.31,0.02,0.62,0.06,0.94,0.13c1.21,0.23,2.42,0.77,3.28,1.53c0.15,0.15,0.3,0.27,0.41,0.44
				C289.7,152.97,290.13,153.76,290.56,154.53z"/>
			<path class="st13" d="M286.83,153.44c0,1.12-0.54,2.14-1.37,2.71c-0.7,0.07-1.29,0.04-1.74,0.02c-0.75-0.05-1.86-0.59-2.89-1.45
				c-0.15-0.41-0.24-0.82-0.24-1.28c0-1.78,1.41-3.25,3.13-3.25C285.44,150.2,286.83,151.66,286.83,153.44z"/>
			<path d="M282.25,153.45c0,0.84,0.66,1.54,1.47,1.54c0.81,0,1.47-0.7,1.47-1.54c0-0.87-0.66-1.53-1.47-1.53
				C282.91,151.92,282.25,152.59,282.25,153.45z"/>
			<path class="st12" d="M284.64,152.58c0-0.27-0.21-0.47-0.47-0.47c-0.25,0-0.46,0.2-0.46,0.47c0,0.28,0.21,0.49,0.46,0.49
				C284.43,153.07,284.64,152.85,284.64,152.58z"/>
			<path class="st14" d="M290.56,154.53c-0.76-0.81-1.44-1.67-2.34-2.27c-0.88-0.63-1.92-1-3.01-1.19
				c-0.28-0.03-0.58-0.08-0.84-0.09c-0.23-0.02-0.51-0.02-0.77,0.01c-0.54,0.05-1.1,0.19-1.63,0.35c-1.02,0.32-2.04,0.71-3.02,1.15
				c-0.05,0.02-0.11,0.07-0.17,0.08l-0.15,0.07l-0.09-0.05c-1.14-0.39-1.09-0.83,0.09-1.03c0.34-0.07,0.62-0.13,0.89-0.22
				c0.03,0,0.03-0.02,0.03-0.02c0.68-0.18,1.28-0.44,2.09-0.7c0.58-0.23,1.17-0.37,1.82-0.46c0.33-0.05,0.65-0.06,1.01-0.02
				c0.31,0.02,0.62,0.06,0.94,0.13c1.21,0.23,2.42,0.77,3.28,1.53c0.15,0.15,0.3,0.27,0.41,0.44
				C289.75,152.92,290.17,153.73,290.56,154.53z"/>
		</g>
		<g>
			<polygon class="st15" points="179.61,211.74 234.16,203.17 223.64,129.84 169.09,138.41 			"/>
			<g>
				<path class="st16" d="M218.56,145.92c0.03-0.12,0.04-0.18,0.04-0.18s-1.34-0.77-2.75-0.7c0.04,0.12,0.07,0.23,0.11,0.35
					c0.03,0.1,0.05,0.18,0.08,0.28c0.03,0.1,0.05,0.21,0.08,0.32c0.07,0.28,0.14,0.58,0.19,0.87c0.03,0.12,0.04,0.26,0.06,0.39
					c0.04,0.25,0.08,0.53,0.12,0.78c0.01,0.16,0.02,0.29,0.03,0.44c0.02,0.24,0.04,0.47,0.05,0.7c0.01,0.16,0.01,0.33,0.01,0.48
					c0,0.13,0,0.25,0,0.38c0,0.09,0,0.17-0.01,0.25c0,0.17-0.01,0.35-0.02,0.52c-0.01,0.17-0.01,0.36-0.03,0.54
					c-0.01,0.18-0.03,0.36-0.05,0.54c-0.02,0.16-0.03,0.32-0.04,0.48c-0.03,0.17-0.05,0.34-0.08,0.51c-0.04,0.24-0.06,0.47-0.11,0.7
					c-0.02,0.17-0.06,0.32-0.1,0.49v0.04c0.03-0.1,0.04-0.21,0.09-0.33c0.03-0.14,0.07-0.29,0.12-0.46
					c0.03-0.13,0.08-0.27,0.12-0.42c0.14-0.49,0.31-1.07,0.5-1.67c0.06-0.26,0.14-0.51,0.22-0.78l0.23-0.77
					c0.08-0.26,0.16-0.5,0.23-0.75c0.08-0.25,0.15-0.5,0.22-0.74c0.14-0.47,0.28-0.88,0.39-1.25c0.12-0.37,0.21-0.68,0.28-0.88
					C218.53,146.02,218.54,145.96,218.56,145.92z"/>
				<g>
					<path class="st17" d="M182.99,191.68v0.01l0.01,0.01c0.31,0.43,0.72,0.91,1.27,1.4c4.05,3.67,10.21,5.22,17.75,4.13
						c3.13-0.43,6.93-1.84,10.47-4.42c4.98-3.65,9.42-9.65,10.66-18.69c0.17-1.25,0.25-2.44,0.25-3.58c0.01-1.19-0.05-2.34-0.18-3.4
						c-0.29-2.43-0.89-4.46-1.45-6c-0.24-0.68-0.47-1.25-0.68-1.72c-0.19-0.44-0.36-0.79-0.47-1.05c-0.01-0.02-0.03-0.03-0.03-0.06
						h0.01c0,0-0.03-0.05-0.08-0.11c-0.09-0.22-0.21-0.44-0.36-0.66c-0.2-0.36-0.44-0.81-0.68-1.29l0,0
						c-0.2-0.41-0.4-0.84-0.57-1.24c-0.12-0.28-0.21-0.54-0.28-0.79v-0.02c-0.02,0-0.02,0-0.01-0.01c-0.08-0.25-0.12-0.47-0.14-0.65
						c-0.02-0.27-0.05-0.77-0.06-1.42c-0.01-0.32-0.02-0.68-0.01-1.07c-0.01-0.16,0-0.31-0.01-0.48c0-0.2,0-0.39-0.01-0.59
						c0-0.21,0.01-0.44,0-0.66c0-0.18,0-0.37,0.01-0.57c-0.01-0.32-0.01-0.67-0.01-0.98c0-0.4,0-0.77,0.01-1.14c0,0,0,0,0.01-0.01
						l-0.01-0.05c0-0.07,0-0.12,0.01-0.18c-0.01-0.01-0.01-0.01-0.01-0.01c0-0.27,0-0.52,0.01-0.75c-0.01-0.08-0.01-0.16-0.01-0.24
						c0-0.02,0.01-0.02,0.01-0.03c-0.01-0.34,0.01-0.63-0.01-0.87c-0.01-0.02,0-0.05,0-0.07c0-0.1,0-0.19,0-0.26
						c0-0.18,0-0.29,0-0.29s-0.11-0.02-0.31-0.05c-0.5-0.06-1.52-0.12-2.47,0.21v-0.01c-0.1,0.02-0.18,0.05-0.27,0.1
						c-0.08,0.03-0.17,0.07-0.26,0.12c-0.17,0.09-0.33,0.18-0.49,0.31c0.13,0.27,0.24,0.54,0.33,0.81c0.19,0.47,0.34,0.94,0.46,1.42
						c0.13,0.43,0.21,0.85,0.3,1.27c0.18,1,0.27,1.99,0.27,2.92c0.01,0.12,0,0.2,0.01,0.32c0,0.01-0.01,0.01-0.01,0.01
						c0.01,0.02,0.01,0.05,0.01,0.08c0,0.16,0,0.31-0.02,0.46c0.01,0.21-0.01,0.41-0.02,0.61c-0.01,0.23-0.02,0.47-0.04,0.69
						c0,0.15-0.03,0.3-0.04,0.45c-0.01,0.07-0.02,0.14-0.03,0.21c-0.05,0.57-0.14,1.09-0.21,1.57c-0.04,0.22-0.09,0.46-0.13,0.68
						c-0.05,0.24-0.09,0.46-0.13,0.67c-0.12,0.4-0.23,0.9-0.31,1.48c0,0-0.01,0.01-0.01,0.01c-0.03,0.19-0.05,0.39-0.07,0.6
						c-0.08,0.54-0.14,1.12-0.2,1.72c-0.12,1.26-0.23,2.6-0.35,3.78c-0.05,0.48-0.1,0.95-0.17,1.37c-0.04,0.36-0.1,0.7-0.16,1
						c-0.12,0.55-0.23,1.1-0.39,1.65c-0.05,0.21-0.12,0.43-0.18,0.64c-0.01,0.03-0.02,0.06-0.03,0.08
						c-0.05,0.22-0.13,0.44-0.19,0.64c-0.1,0.3-0.2,0.61-0.31,0.91c-0.3,0.87-0.65,1.72-1.04,2.55c-0.12,0.25-0.24,0.51-0.36,0.76
						c-0.13,0.25-0.26,0.5-0.4,0.76c-0.32,0.61-0.67,1.21-1.03,1.78c-0.17,0.27-0.33,0.51-0.5,0.76c-0.18,0.27-0.36,0.54-0.56,0.79
						c-0.57,0.76-1.17,1.5-1.82,2.17c-0.12,0.15-0.26,0.29-0.39,0.41c-0.02,0.03-0.03,0.03-0.04,0.05c-0.14,0.17-0.3,0.31-0.46,0.46
						c-0.16,0.14-0.33,0.3-0.5,0.46c-0.13,0.12-0.28,0.25-0.43,0.37c-0.63,0.54-1.28,1.02-1.97,1.47c-0.39,0.24-0.77,0.47-1.16,0.67
						c-0.23,0.12-0.47,0.25-0.7,0.35c-0.23,0.12-0.46,0.22-0.68,0.31c-0.25,0.11-0.5,0.21-0.75,0.29c-0.25,0.08-0.5,0.17-0.74,0.24
						c-0.26,0.08-0.5,0.15-0.75,0.21c-0.26,0.07-0.51,0.12-0.77,0.17c-6.72,1.27-11.77,1.93-13.38,1.83
						c-0.15-0.01-0.33,0.02-0.53,0.1c-0.05,0.01-0.12,0.03-0.17,0.06c-0.06,0.02-0.12,0.05-0.17,0.09
						c-0.06,0.02-0.11,0.05-0.16,0.08c-0.19,0.12-0.38,0.25-0.55,0.43c-0.01,0.02-0.03,0.03-0.05,0.06c-0.01,0,0,0.01,0,0.01
						c-0.04,0.02-0.05,0.04-0.07,0.06c-0.07,0.06-0.1,0.12-0.15,0.18c-0.05,0.07-0.09,0.16-0.14,0.22
						c-0.03,0.06-0.06,0.11-0.08,0.17c-0.03,0.07-0.07,0.16-0.08,0.24c-0.03,0.07-0.06,0.16-0.06,0.22
						c-0.02,0.08-0.03,0.16-0.03,0.24c0,0.1-0.01,0.2,0,0.29c0,0.01,0,0.01,0,0.02C182.32,190.44,182.52,191.02,182.99,191.68z"/>
					<path class="st18" d="M182.3,189.91c7.62,0.22,13.54-0.32,18.15-1.4c12.47-2.94,15.38-9.76,17.01-15.93
						c1.12-4.28,0.56-12.62-0.36-19.7c-0.46-3.45-0.99-6.59-1.47-8.84c-0.35,0.11-0.7,0.28-1.01,0.52c1.43,3.14,1.5,6.43,1.23,9.04
						c-0.12,1.23-0.32,2.31-0.5,3.14c-0.13,0.4-0.23,0.9-0.32,1.48v0.01c-0.39,2.57-0.53,6.38-0.95,8.47
						c-1.1,5.4-3.83,10.73-7.68,14.39c-2.42,2.31-5.29,3.95-8.46,4.55c-6.73,1.26-11.78,1.92-13.38,1.82
						C183.83,187.43,182.2,188.29,182.3,189.91z"/>
					<path class="st19" d="M200.44,188.5c0.25-0.03,0.51-0.07,0.75-0.1c2.53-0.38,4.76-1.12,6.73-2.16
						c7.04-3.72,10.57-11.15,11.22-18.54c0.01-0.01,0-0.02,0-0.02c0.05-0.52,0.1-0.99,0.15-1.41c0.03-0.22,0.05-0.45,0.08-0.65
						c0.04-0.34,0.09-0.64,0.14-0.92c0.41-2.28,0.92-2.43,1.53-1.41c0.43,0.78,0.92,2.24,1.43,3.94c0.3,1.04,0.61,2.19,0.91,3.32
						c0.01-1.19-0.05-2.34-0.18-3.4c-0.29-2.43-0.89-4.46-1.45-6c-0.24-0.68-0.47-1.25-0.68-1.72c-0.19-0.44-0.36-0.79-0.47-1.05
						c-0.01-0.02-0.03-0.03-0.03-0.06h0.01c0,0-0.03-0.05-0.08-0.11c-0.09-0.22-0.21-0.44-0.36-0.66c-0.2-0.36-0.44-0.81-0.68-1.29
						l0,0c-0.2-0.41-0.4-0.84-0.57-1.24c-0.12-0.28-0.21-0.54-0.28-0.79v-0.02c-0.02,0-0.02,0-0.01-0.01
						c-0.08-0.25-0.12-0.47-0.14-0.65c-0.02-0.27-0.05-0.77-0.06-1.42c-0.01-0.32-0.02-0.68-0.01-1.07c-0.01-0.16,0-0.31-0.01-0.48
						c0-0.2,0-0.39-0.01-0.59c0-0.21,0.01-0.44,0-0.66c0-0.18,0-0.37,0.01-0.57c-0.01-0.32-0.01-0.67-0.01-0.98
						c0-0.4,0-0.77,0.01-1.14c0,0,0,0,0.01-0.01l-0.01-0.05c0-0.07,0-0.12,0.01-0.18c-0.01-0.01-0.01-0.01-0.01-0.01
						c0-0.27,0-0.52,0.01-0.75c-0.01-0.08-0.01-0.16-0.01-0.24c-0.02,0.05-0.04,0.12-0.06,0.19c-0.01,0.02-0.02,0.03-0.03,0.05
						c-0.07,0.3-0.16,0.65-0.24,1.01c-0.07,0.28-0.12,0.58-0.18,0.89c-0.08,0.4-0.16,0.83-0.24,1.25c-0.24,1.47-0.44,2.92-0.53,3.63
						c-0.01,0-0.01,0-0.01,0c-0.03,0.29-0.05,0.46-0.05,0.46c0.49,3.79,0.89,7.95,0.98,11.64c0,0.21,0,0.43,0,0.65
						c0.02,0.95,0,1.87-0.03,2.73c-0.08,1.82-0.26,3.44-0.59,4.69c-1.24,4.71-3.24,9.83-9.69,13.27c-1.67,0.9-3.67,1.69-6.04,2.31
						C201.31,188.29,200.88,188.39,200.44,188.5z"/>
					<path class="st20" d="M214.61,144.56c1.35,2.96,1.5,6.06,1.28,8.59c0.14-0.69,0.61-1.18,1.17-0.55
						c0.54-1.12,1.13,0.35,1.56,1.6c-0.08-0.25-0.12-0.46-0.14-0.65c-0.13-1.41-0.06-9.65-0.06-9.65S216.06,143.41,214.61,144.56z"
						/>
					<path class="st21" d="M216.2,156.38c0.04,2.25-0.09,4.5-0.31,6.74c-0.22,2.23-0.56,4.45-1.06,6.63
						c-0.52,2.17-1.15,4.32-2.08,6.33c-0.94,1.99-2.16,3.86-3.81,5.23c-3.27,2.88-7.23,4.83-11.39,5.81c-4.17,1-8.5,1.16-12.8,1.29
						c4.3,0.09,8.64,0.07,12.89-0.86c4.24-0.9,8.29-2.89,11.65-5.78c1.72-1.47,2.96-3.41,3.9-5.46c0.93-2.06,1.6-4.24,2.05-6.45
						C216.14,165.42,216.44,160.88,216.2,156.38z"/>
					<path class="st22" d="M182.89,188.28c0.58-0.54,0.91,1.22,1.01,1.67c0.13,0.44-0.98,1.66-0.91,1.75
						c0.06,0.09-0.37-0.69-0.7-1.79C181.95,188.81,182.63,188.52,182.89,188.28z"/>
				</g>
				<path class="st23" d="M218.4,146.65c0,0,0.95-3.71,0.76-4.35c-0.74-0.49-3.92-0.38-4.92,0.11c-0.23,1.11,0.84,3.7,0.8,4.37
					C215.75,146.84,218.4,146.65,218.4,146.65z"/>
				<path class="st24" d="M217.98,143.52c-0.4-0.55-3.76-0.96-3.73-1.11c1-0.49,4.18-0.6,4.92-0.11c0.19,0.64-0.76,4.35-0.76,4.35
					S218.26,143.9,217.98,143.52z"/>
			</g>
		</g>
		<g>
			<polygon class="st15" points="356.8,201.47 410.29,215.6 427.59,143.69 374.11,129.58 			"/>
		</g>
		<path class="st25" d="M276.67,359.5c7.38,3.09,27.18,9.28,49.36-3.72c22.17-13,67.38-56.62,67.38-56.62s-47.74-10.19-77.53-2.85
			c-29.77,7.34-49,31.83-49,31.83L276.67,359.5z"/>
		<path class="st26" d="M352.93,319.27l1.36,0.16l2.79,0.33l3.44,0.41l3.28,0.37l5.77,0.68l4.36,0.5l0.05-0.07l10.59-14.14l6.59-8.8
			l1.04-1.4c0-0.01,0-0.03-0.02-0.04c-0.98-4.07-9.12-9.88-18.2-9.59c-2.06,0.06-4.19,0.45-6.28,1.25c-0.01,0-0.03,0-0.03,0
			c-2.06,0.77-4.08,1.97-6.01,3.62c-0.43,0.37-0.85,0.76-1.27,1.2c-0.12,0.1-0.25,0.21-0.35,0.36c-0.1,0.09-0.21,0.21-0.31,0.31
			c-2.43,2.62-4.19,5.16-5.44,7.53c-1.52,2.94-2.27,5.63-2.57,7.99C351.01,315.62,352.93,319.27,352.93,319.27z"/>
		<path class="st27" d="M259.18,312.76c-3.84,10.22-11.69,39.64,1.77,47.66c29.63,17.66,58.04-22.4,62.27-23.92
			c6-11.43,11.91-46.5,31.14-44.89c-16.81-2.99-54.64,9.39-62.63,10.94C283.75,304.09,259.18,312.76,259.18,312.76z"/>
		<path class="st26" d="M320.35,338.88c0.85-0.16,1.69-0.35,2.46-0.58c8.54-2.55,12.07-9.39,12.07-9.39l16.04-22.25l3.39-4.72
			l5.44-7.53c0,0-0.08-0.32-0.4-0.85c0,0,0-0.03-0.02-0.02c-0.94-1.51-3.89-4.53-12.57-4.57h-0.58c-4.41,0.04-8.8,0.92-12.79,3.63
			c-0.62,0.43-1.24,0.89-1.85,1.4c-2.52,2.15-4.83,5.14-6.87,9.22c-0.91,1.83-1.75,4.22-2.46,6.89c-0.4,1.48-0.77,3.05-1.09,4.66
			C318.88,325.54,318.27,338.15,320.35,338.88z"/>
		<path class="st4" d="M321.5,444.64c0,0.96,0.67,2.38,1.63,3.62c1.02,1.34,2.26,2.59,3.22,2.99h11.43c0.02,0,0.02,0,0.03-0.02
			c0.46-0.17,0.97-0.5,1.51-0.91c0.23-0.2,0.47-0.4,0.72-0.64c1.6-1.48,3.11-3.58,3.11-5.03c0-0.2,0-0.42-0.02-0.63
			c0-0.29-0.01-0.61-0.05-0.93c0-0.35-0.04-0.66-0.07-0.99c-0.04-0.24-0.07-0.48-0.1-0.76c-0.24-2.08-0.64-4.35-1.12-6.77v-0.01
			c-1.49-7.33-2-13.64-0.41-18.43c0.63-1.89,1.38-3.86,2.25-5.92c6.52-15.63,19.06-35.67,32.79-60.24
			c3.01-5.41,6.1-11.05,9.17-16.89c1.52-2.88,3.06-5.84,4.58-8.83c2.1-4.16,5.08-14.54,5.02-17.98c-0.07-3.78-1.23-6.73-3-8.97
			c-4.32-5.47-12.25-6.63-16.85-4.97c-1.54,0.57-3.08,1.72-4.59,3.23c-1.55,1.55-3.06,3.46-4.42,5.49c-0.25,0.36-0.5,0.74-0.74,1.11
			c-0.92,1.41-1.8,2.85-2.57,4.24c-1.45,2.59-2.59,4.99-3.28,6.68c-0.9,2.15-1.78,4.4-2.65,6.7c-0.5,1.3-1,2.64-1.5,3.98
			c-1.57,4.35-3.13,8.9-4.67,13.61c-2.79,8.53-5.54,17.54-8.25,26.74c-0.17,0.57-0.34,1.12-0.5,1.71c-1.7,5.75-3.4,11.56-5.12,17.34
			c-0.02,0.09-0.04,0.17-0.07,0.26c0,0.03-0.03,0.08-0.03,0.1c-0.07,0.22-0.13,0.44-0.19,0.65c-0.65,2.22-1.32,4.42-1.98,6.62
			c-1.95,6.45-3.93,12.82-5.94,19c-0.15,0.48-0.3,0.94-0.45,1.41c-0.52,1.54-1.44,4.28-2.43,7.45c-0.79,2.55-1.62,5.36-2.29,8
			c-0.57,2.28-1.01,4.37-1.22,6.12v0.27c-0.14,1.44-0.28,2.83-0.4,4.14c-0.03,0.38-0.07,0.74-0.11,1.1
			C321.67,440.89,321.5,443.17,321.5,444.64z"/>
		<g>
			<path class="st28" d="M343.17,444.64c0,2.15-3.33,5.83-5.32,6.59h-11.46c-1.83-0.76-4.87-4.59-4.87-6.59
				c0-2.5,0.5-7.01,0.98-11.92c0.16,6.49,4.68,9.76,10.33,9.76c5.17,0,8.14-3.92,9-8C342.62,438.31,343.17,441.89,343.17,444.64z"/>
			<path class="st29" d="M326.39,449.14h11.46c1.87-0.7,4.83-3.96,5.19-6.16c0.03,0.54,0.13,1.18,0.13,1.66
				c0,2.15-3.33,5.83-5.32,6.59h-11.46c-1.83-0.76-4.87-4.59-4.87-6.59c0-0.53,0.04-1.17,0.08-1.86
				C321.78,444.85,324.63,448.41,326.39,449.14z"/>
		</g>
		<path class="st7" d="M359.74,313.06c-8.07,19.47-15.3,45.15-22.76,70.33c10.35-22.34,24.12-49.23,28.05-67.81
			c1.16-5.4,1.77-10.51,1.29-14.55C363.33,305.39,360.89,310.26,359.74,313.06z"/>
		<path class="st4" d="M299.73,444.64c0,1.35,1.29,3.28,2.74,4.73c0.17,0.16,0.32,0.3,0.47,0.44c0.75,0.66,1.5,1.18,2.13,1.41h11.46
			c1.84-0.75,4.84-4.59,4.84-6.58c0-1.38-0.14-3.43-0.39-5.83c0-0.17-0.03-0.35-0.04-0.52c-0.02-0.28-0.05-0.57-0.08-0.86
			c-0.14-1.41-0.29-2.88-0.44-4.42v-0.29c-0.72-6.24,0.6-12.84,1.1-16.88c0.35-2.88,1.33-6.43,2.78-10.51
			c0.81-2.32,1.78-4.8,2.86-7.43c0.91-2.21,1.91-4.53,2.97-6.91c0.9-2.01,1.83-4.1,2.81-6.22c0.25-0.55,0.5-1.1,0.75-1.65
			c2.69-5.77,5.58-11.83,8.48-17.98c0.16-0.35,0.32-0.69,0.48-1.04c0.02,0,0.02-0.02,0.02-0.03c5-10.61,9.94-21.44,13.67-31.32
			c0.44-1.11,0.83-2.21,1.22-3.32c1.16-3.23,2.17-6.35,2.97-9.29c0.43-1.59,0.8-3.1,1.12-4.57c0.69-3.22,1.19-6.35,1.37-9.22
			c0.34-5.14-0.31-9.41-2.63-11.91c-0.11-0.13-0.22-0.25-0.34-0.36c-0.23-0.2-0.46-0.39-0.7-0.54c0,0,0-0.03-0.02-0.02
			c-0.51-0.37-1.08-0.67-1.72-0.91c-0.94-0.35-2.04-0.71-3.26-1.03c-2.11-0.58-4.59-0.98-7.15-0.85c-1.18,0.06-2.37,0.24-3.58,0.58
			c-1.63,0.45-3.27,1.21-4.82,2.35c-3.09,2.26-5.91,6.08-7.96,12.25c-1.39,4.16-4.32,16.03-7.61,30.54
			c-0.14,0.61-0.28,1.22-0.41,1.84c-1.44,6.35-2.94,13.18-4.4,20.03c-0.08,0.44-0.18,0.89-0.29,1.34c-0.2,1.01-0.43,2.04-0.63,3.06
			c-0.32,1.52-0.64,3.02-0.94,4.51c-1.05,4.98-2.04,9.89-2.95,14.55c-0.3,1.6-0.61,3.18-0.91,4.72c-1.37,7.18-2.5,13.63-3.28,18.69
			v0.01c-0.56,3.7-0.92,6.67-1.02,8.64c-0.24,5.1-5.77,13.36-7.31,20.65c0,0.02,0,0.02,0,0.03c-0.47,2.43-0.87,4.69-1.12,6.78
			c-0.05,0.66-0.15,1.17-0.15,1.75c-0.04,0.33-0.05,0.65-0.05,0.94C299.73,444.24,299.73,444.44,299.73,444.64z"/>
		<g>
			<path class="st28" d="M299.72,444.64c0,2.15,3.33,5.83,5.31,6.59h11.46c1.83-0.76,4.87-4.59,4.87-6.59
				c0-2.5-0.48-7.01-0.98-11.92c-0.15,6.49-4.68,9.76-10.34,9.76c-5.16,0-8.13-3.92-8.98-8
				C300.25,438.31,299.72,441.89,299.72,444.64z"/>
			<path class="st29" d="M316.49,449.14h-11.46c-1.87-0.7-4.83-3.96-5.19-6.16c-0.03,0.54-0.12,1.18-0.12,1.66
				c0,2.15,3.33,5.83,5.31,6.59h11.46c1.83-0.76,4.87-4.59,4.87-6.59c0-0.53-0.03-1.17-0.07-1.86
				C321.08,444.85,318.27,448.41,316.49,449.14z"/>
		</g>
		<path class="st30" d="M176.1,213.99c-1.54-2.52-3.51-6.02-3.03-7.44c0.48-1.41,0.48-2.02,0.39-2.92c-0.1-0.91-1.26-1.78-1.37-2.85
			c-0.15-1.07,1.2-1.59,1.06-2.62c-0.14-1.03-0.64-1.76-0.76-2.75c-0.1-1.01,1.11-1.74,1.05-2.49c-0.02-0.76-1.13-2.55-0.26-3.38
			c0.85-0.81,6.75-3.12,7.66-3.54c2.48-1.11,4.08,0.69,1.23,2.38c-2.84,1.72-5.82,3.14-5.49,4c0.3,0.83,5.94-1.28,7.9-1.82
			c3.42-0.99,4.64,1.44,1.01,2.98c-4.27,1.79-8.34,2.66-8.15,3.87c0.24,1.6,5.87,0.67,8.17,0.01c3.84-1.1,5.29,1.26,1.64,2.59
			c-4.32,1.56-9.08,2.3-9.03,3.44c0.01,0.99,3.84,0.79,5.62,0.12c2.63-0.97,3.44,0.93,0.89,2.23c-3.24,1.64-7.35,3.25-7.57,4.2
			c-0.25,0.96,3.23,9.14,3.23,9.14L176.1,213.99z"/>
		<path class="st30" d="M415.52,213.99c1.56-2.52,3.52-6.02,3.05-7.44c-0.47-1.41-0.48-2.02-0.39-2.92
			c0.09-0.91,1.25-1.78,1.37-2.85c0.15-1.07-1.21-1.59-1.07-2.62c0.14-1.03,0.66-1.76,0.77-2.75c0.09-1.01-1.11-1.74-1.06-2.49
			c0.02-0.76,1.13-2.55,0.26-3.38c-0.85-0.81-6.74-3.12-7.66-3.54c-2.47-1.11-4.08,0.69-1.22,2.38c2.84,1.72,5.82,3.14,5.49,4
			c-0.3,0.83-5.95-1.28-7.9-1.82c-3.43-0.99-4.65,1.44-1.01,2.98c4.27,1.79,8.33,2.66,8.15,3.87c-0.24,1.6-5.87,0.67-8.17,0.01
			c-3.84-1.1-5.29,1.26-1.64,2.59c4.32,1.56,9.08,2.3,9.04,3.44c-0.01,0.99-3.84,0.79-5.62,0.12c-2.62-0.97-3.44,0.93-0.88,2.23
			c3.23,1.64,7.34,3.25,7.56,4.2c0.24,0.96-3.23,9.14-3.23,9.14L415.52,213.99z"/>
	</g>
	<path class="st31" d="M259.17,428.5l-2.66,19.58c0,1.29,3.1,2.34,7.22,2.34c4.15,0,7.23-1.04,7.23-2.34l4.01-28.01
		C271.1,421.36,265.13,424.81,259.17,428.5z"/>
	<path class="st31" d="M240.52,436.19c0.34,1.18,3.3,2.1,7.22,2.1c4.1,0,7.38-1.05,7.38-2.31l0.72-5.39
		c-2.73,1.72-5.37,3.43-7.7,4.92c-0.59-0.12-1.21-0.2-1.86-0.23C244.4,436.02,242.44,436.28,240.52,436.19z"/>
	<path class="st31" d="M187.51,224.45c0.76,0.9,1.53,2,2.29,3.37c0.75,1.39,2.01,3.65,3.56,6.28c0,0,11.44,28.76,13.45,34.75
		c0.49,1.41,1.4,3.37,2.57,5.59c-1.98-11.81-3.99-24.42-3.64-26.65c0.64-4-1.83-12-6.06-15.34c1.26-0.6,1.89-2.04,1.89-3.63
		c-0.01-2.01-1.06-4.28-3.22-5.38c-0.01-0.01-0.04-0.01-0.05-0.03C195.22,221.88,189.8,222.6,187.51,224.45z"/>
	<path class="st31" d="M183.14,220.82c1.23,0.73,2.57,1.64,3.94,3.14c0.98-3.32,1.49-5.85-0.64-5.85
		C185.09,218.11,183.89,219.23,183.14,220.82z"/>
	<g>
		<path class="st32" d="M207.51,349.18c0-5.14,2.44-40.7,1.83-46.56c-0.6-5.86-7.36-42.19-6.75-46.05
			c0.62-3.86-1.76-11.57-5.79-14.79c2.73-1.29,2.42-6.75-1.27-8.68c-3.68-1.93-11.05-0.33-11.36,2.57c1.23-4.19,2.46-7.71,0-7.71
			c-2.45,0-4.3,3.86-3.99,7.39c0.31,3.54,0.61,5.15,3.07,7.4c2.46,2.25,2.76,8.37,7.98,12.54c0.31,4.83,2.15,36.99,1.85,44.06
			c-0.31,7.07-4.91,31.51-4.91,39.55c2.14,21.22,12.28,37.62,12.28,37.62l8.89-5.8L207.51,349.18z"/>
		<g>
			<path class="st33" d="M277.73,459.48c2.24,4.28-0.43,9.69-4.73,13.19c-4.3,3.49-10.45,5.75-16.14,5.96
				c-5.69,0.2-20.09-3.25-20.09-3.25L277.73,459.48z"/>
			<path class="st34" d="M266.57,474.64c4.53-1.72,10.82-7.38,11.35-11.07c0.53-3.7-0.73-8.08-5.16-8.97
				c-4.42-0.89-10.07,1.51-16,5.03c-5.91,3.53-16.21,6.36-18.39,7.05c-2.18,0.69-3.62,7.34-1.6,8.7
				C240.62,477.96,256.88,478.35,266.57,474.64z"/>
		</g>
		<path class="st35" d="M271.7,422.15c-4.6-0.85-22.11,11.28-31.33,17.07c-9.21,5.78-16.28,13.18-16.28,13.18l15.36,29.26
			c0,0,20.27-21.54,26.1-27.65c5.83-6.11,12.91-15.44,14.44-18.97C282.14,430.07,278.46,423.41,271.7,422.15z"/>
		<path class="st36" d="M188.17,338.9c-3.69,8.68-16.76,26.69-22.59,32.16c0,10.93,6.31,60.77,5.69,69.45
			c5.23,9,19.66,11.26,26.72,9.97c7.07-1.29,21.5-12.86,23.65-14.8c2.15-1.93,1.88-19.41,2.46-27.97
			c0.7-10.29-2.15-25.73-7.99-42.13c-2.26-6.35-7.37-11.9-8.6-16.4c0.62,3.86-0.92,16.4-5.83,13.5
			C196.76,359.8,189.09,345.01,188.17,338.9z"/>
		<path class="st37" d="M223.24,430.07c-4.05,7.54-20.64,15.26-30.47,14.93c-9.83-0.31-15.97-1.93-21.51-4.5
			c-7.36,9-7.36,36.98-1.22,43.74c6.14,6.75,48.52,12.22,78.62-2.58c5.22-11.9,8.91-43.72-7.37-44.37
			C233.92,440.19,225.14,435.7,223.24,430.07z"/>
		<path class="st38" d="M171.26,440.51c0.08,0.03,0.14,0.06,0.21,0.09c-5.48,11.04-4.97,34.68,0.61,40.82
			c6.06,6.67,47.46,12.06,77.47-2.04c-0.3,0.82-0.59,1.59-0.9,2.28c-30.1,14.8-72.48,9.33-78.62,2.58
			C163.9,477.48,163.9,449.51,171.26,440.51z"/>
		<path class="st39" d="M165.58,315.42c-7.23-0.37-20.11,9.02-24.1,17.37c-4.91,10.29-0.91,22.18,0,29.57
			c0.92,7.4,7.38,28.96,3.38,32.49c-3.99,3.53-6.14,0.97-8.29,0c0,2.24,1.85,10.92,9.52,9.32c-0.31,2.57-2.76,5.79-2.76,5.79
			s9.52,0.32,12.6-6.43c0.92,3.85,6.42,6.11,9.66,6.43c-0.45-4.83,4.47-13.5,3.24-15.11c0.65-5.51-0.39-8.33,0-9.98
			c6.75,1.61,15.05-5.47,16.58-8.35c-2.76-0.65-5.84-3.54-7.68-5.47c-1.85-1.93-0.78-10.51,2.42-16.36
			c3.2-5.84,7.9-15.54,8.21-19.41C188.37,325.34,184.76,316.38,165.58,315.42z"/>
	</g>
	<path class="st31" d="M360.4,293.75c-0.12,0.1-0.25,0.21-0.35,0.36c-0.23-0.2-0.46-0.39-0.7-0.54c0,0,0-0.03-0.02-0.02
		c-0.94-1.51-3.89-4.53-12.57-4.57c0.09,0.37,0.24,0.99,0.44,1.78c0.02,0.13,0.05,0.26,0.09,0.41c0.1,0.44,0.21,0.94,0.35,1.49
		c0.07,0.35,0.15,0.71,0.23,1.1c0.76,3.32,1.81,7.93,3.05,12.92c0.26,1.07,0.53,2.17,0.81,3.27c0.8,3.15,1.66,6.39,2.56,9.49
		c0.43,1.48,0.86,2.93,1.29,4.31c0.66,2.06,1.32,3.98,1.97,5.72c0.24,0.59,0.46,1.16,0.69,1.7c0.37,0.92,0.76,1.78,1.13,2.53
		c0.7,1.41,1.4,2.49,2.08,3.18c1.46,1.49,7.84,7.02,14.96,13.08c3.01-5.41,6.1-11.05,9.17-16.89c-5.44-4.52-10.62-9.35-11.59-11.32
		c-0.01-0.02-0.02-0.04-0.02-0.07c-0.29-0.59-0.79-1.68-1.43-3.13c-1.49-3.39-3.77-8.75-6.07-14.23v-0.01
		c-0.29-0.73-0.59-1.42-0.9-2.15c-0.98-2.36-1.93-4.71-2.81-6.91c-0.08-0.19-0.17-0.37-0.25-0.58v-0.01
		c-0.29-0.73-0.57-1.42-0.84-2.1c-1.62-4.1-2.83-7.28-3.11-8.41c-0.97-3.97,0-16.17-1.94-20.79c-1.92-4.62-3.21-7.58-4.82-7.25
		c-0.98-1-1.93-3.96-3.22-2.89c-1.3-3.23-3.87-2.05-4.19,0.58c-1.29-1.31-2.57,0-2.57,0s-0.46,5.76-0.03,10.56
		c3.72,6.16,7.02,11.57,7.81,13.35C352.32,284.05,356.46,290.58,360.4,293.75z"/>
	<path class="st31" d="M340.02,449.74c-0.02,0.2-0.05,0.4-0.07,0.62c0.52,0.05,1.07,0.06,1.61,0.06c4.13,0,7.21-1.04,7.21-2.34
		l-1.51-11.06c-1.75,1.46-3.16,3.24-4.22,5.02c-0.02,0.03-0.03,0.04-0.03,0.05c-1.02,1.68-1.76,3.37-2.24,4.81
		c-0.24,0.67-0.42,1.29-0.56,1.82c-0.07,0.3-0.14,0.62-0.18,0.95C340.04,449.69,340.02,449.71,340.02,449.74z"/>
	<g>
		<path class="st32" d="M401.56,370.98c-3.71-3.24-32.64-28.04-35.91-31.47c-5.88-6.15-13.37-44.84-14.24-47.36
			c-3.72-5.1-9.9-22.93-9.28-25.52c0.61-2.59,3.09,1.62,4.95,4.22c-0.92-4.86-0.31-12.96-0.31-12.96s1.24-1.3,2.47,0
			c0.31-2.6,2.79-3.75,4.03-0.58c1.24-1.04,2.17,1.87,3.1,2.84c1.54-0.32,2.79,2.59,4.64,7.13c1.86,4.54,0.93,16.53,1.86,20.42
			c0.93,3.89,13,33.05,14.86,36.94c1.85,3.89,20.12,19.13,23.83,20.42c3.71,1.29,11.43,2.27,11.43,2.27s5.11,7.74,1.57,15.88
			C409.91,373.9,401.56,370.98,401.56,370.98z"/>
		<path class="st40" d="M458.48,454.79c0.64,8.22-1.04,26.26-12.64,30.76c-6.9,2.66-27.89,2.74-37.95,1.77
			c-10.05-0.97-19.03-4.87-28.32-9.4c-9.28-4.54-24.76-10.05-28.78-13.29c-4.03-3.25-6.81-10.05-5.57-15.23
			c1.24-5.18,6.71-17.36,20.12-14.58c11.84,2.45,26.93,6.48,26.93,6.48l18.26-5.51l44.26,8.75L458.48,454.79z"/>
		<path class="st41" d="M407.9,482.29c10.05,0.97,31.04,0.9,37.95-1.77c9.32-3.61,12.24-15.96,12.68-24.94
			c0.49,8.54-1.44,25.62-12.68,29.98c-6.9,2.66-27.89,2.74-37.95,1.77c-10.05-0.97-19.03-4.87-28.32-9.4
			c-9.28-4.54-24.76-10.05-28.78-13.29C346.84,461.45,397.85,481.32,407.9,482.29z"/>
		<path class="st35" d="M413.01,320.43c-1.55,2.92-2.79,9.08-4.03,10.7c-1.24,1.62,0,5.14,0,5.14s-2.03,4.58-0.56,9.12
			c1.48,4.53,10.49,15.55,17.9,11.5c7.42-4.05,16.07-40.35,16.07-40.35L413.01,320.43z"/>
		<path class="st42" d="M451.08,369.37c3.38,1.83,10.22,17.82,9.91,25.6c-0.31,7.77-3.4,26.25-2.79,32.4
			c0.62,6.15,2.79,32.08,2.79,32.08s-38.27,2.8-53.1-4.86c-5.61-2.89-11.91-7.13-15.62-13.29c1.85-8.75,9.28-60.28,9.28-70.32
			c1.86,1.94,8.05-1.3,8.98-6.48c0.93-5.19,2.45-6.67,1.83-12.9c4.97-2.98,9.31,0,9.31,0L451.08,369.37z"/>
		<path class="st43" d="M448.61,302.03c6.75,2.18,17.64,6.08,21.04,19.69c2.11,8.41,0,23.34,0.93,25.92
			c0.93,2.6,0.61,11.34,1.23,13.6c-4.64-1.94-9.9,6.18-11.14,10.06c-2.48-3.56-7.43,2.27-11.46,0c-4.02-2.27-6.19-1.94-11.15-3.56
			c-4.95-1.62-5.25-5.83-9.28-9.07c-4.03-3.25-9.29-5.69-11.76-7.06c-4.05-4.28-3.72-27.94-4.02-31.18
			c-0.31-3.24,2.16-11.67,8.66-15.88C428.17,300.34,441.22,299.66,448.61,302.03z"/>
		<path class="st28" d="M342.08,459.02c2-2.89,7.37-3.89,12.73-1.72c3.77,1.52,10.79,9.88,13.11,9.89
			c2.32,0.02,10.14,1.16,11.86,1.64c1.7,0.47,3.52,2.92,3.51,6.87c-0.03,3.96-2.63,6.38-5.79,7.44c-7.15,0.57-15.78-0.73-20.94-1.71
			c-3.45-0.66-9.99-2.18-12.62-6.42C341.31,470.77,337.9,465.07,342.08,459.02z"/>
		<path class="st6" d="M349.24,257.89c0.18,2.27,0.54,4.51,0.94,6.75c0.42,2.22,0.89,4.44,1.54,6.62c-0.18-2.27-0.53-4.51-0.94-6.75
			C350.37,262.29,349.89,260.07,349.24,257.89z"/>
		<path class="st6" d="M353.27,257.31c0.17,2.37,0.53,4.71,0.94,7.03c0.43,2.32,0.89,4.64,1.54,6.91c-0.17-2.37-0.53-4.71-0.93-7.03
			C354.39,261.91,353.92,259.59,353.27,257.31z"/>
		<path class="st6" d="M356.37,260.15c0.38,1.9,0.9,3.73,1.39,5.56l0.75,2.76c0.25,0.92,0.49,1.83,0.64,2.79
			c0.11-0.97-0.03-1.95-0.17-2.89c-0.15-0.96-0.38-1.9-0.63-2.82C357.83,263.7,357.21,261.88,356.37,260.15z"/>
	</g>
</g>
<text transform="matrix(0.9748 0.2229 -0.2229 0.9748 376.1687 185.5762)" class="st25 st44 st45">Б</text>
</svg>
