<?xml version="1.0" encoding="UTF-8"?> <svg xmlns="http://www.w3.org/2000/svg" fill="none" viewBox="0 0 537 428"> <path d="M70 421H9c-5 0-9-4-9-9v-64c0-5 4-9 9-9h61c4 0 8 4 8 9v64c0 5-4 9-8 9z" fill="#5CB30B"></path> <path d="M106 421H45c-5 0-9-4-9-9v-64c0-5 4-9 9-9h61c5 0 8 4 8 9v64c0 5-3 9-8 9z" fill="#8ACD00"></path> <path d="M214 168c2-2 11-1 11-1l12-5c9-5 20-10 23-13 5-7 12-29 19-44a154 154 0 012-4v-1l1-1 3-6 4-2s3 1 5 5l1 1 4 8 1 9c0 6-3 13-7 20a8 8 0 010 1c-8 13-19 27-26 31-4 3-16 5-25 6l-15 1c-1 2-8 10-11 8-3-3-3-11-2-13z" fill="#FFB27D"></path> <path d="M254 338h-61c-5 0-9-4-9-9v-64c0-5 4-9 9-9h61c4 0 8 4 8 9v64c0 5-4 9-8 9z" fill="#D87D0F"></path> <path d="M290 338h-61c-5 0-9-4-9-9v-64c0-5 4-9 9-9h61c5 0 8 4 8 9v64c0 5-4 9-8 9z" fill="#FF8B00"></path> <path d="M229 256h-61c-5 0-9-4-9-9v-64c0-5 4-9 9-9h61c5 0 8 4 8 9v64c0 5-3 9-8 9z" fill="#5CB30B"></path> <path d="M265 256h-61c-5 0-9-4-9-9v-64c0-5 4-9 9-9h61c5 0 9 4 9 9v64c0 5-4 9-9 9z" fill="#8ACD00"></path> <path d="M100 242c2 4 11 3 18-2l23-14c4-3 8-15 12-22l2-5c4-1 4-5 8-7 4-1 3-4 3-4l-7-1c-2 0-5 4-6 7l-6 5-14 15c-3 4-22 8-27 13-9 7-6 15-6 15zm33 55l-20 115-7 1s-5-51 0-68c4-17-8-39-5-54 4-16 32 6 32 6z" fill="#ED985F"></path> <path d="M110 233l17-3 1-11v-8l-14-1-6-1c3 7 2 24 2 24z" fill="#FFB27D"></path> <path d="M110 213s9 8 18 6v-8l-14-1-4 3z" fill="#ED985F"></path> <path d="M120 325c3 10 6 21 5 29a61 61 0 00-1 8 81 81 0 000 7c1 21 8 41 9 44v1l6-1 3-121s-28-12-29 3c-1 8 3 19 7 30z" fill="#FFB27D"></path> <path d="M103 332a129 129 0 0022 1c3 0 4-5 5-10 1-12-1-31-3-32h-26s-6 14 2 41z" fill="#2B5D8B"></path> <path d="M107 332c5 1 13 2 18 1 2 0 4-5 4-10l-13-23-10-4s-4 18 1 36z" fill="#233862"></path> <path d="M142 291s5 24 4 43c0 0-11 3-23 0 0 0-20-30-18-40 1-10 32-6 37-3z" fill="#2B5D8B"></path> <path d="M133 208s-17 14-24 3-15-16-5-25c9-9 14-7 18-4 3 3 15 22 11 26z" fill="#FFB27D"></path> <path d="M89 190h2v-7l1 5c1-8 19-13 21-13 2-1 2-4 2-4 3 1 7 6 7 10 0 5-4 14-6 14s-2 2 0 5-1 10-3 13c-3 2-4 0-5 0a4 4 0 00-2-1c-5-1-11-7-13-14-2-3-2-6-2-7l-2-1z" fill="#7A4830"></path> <path d="M124 369c1 21 8 41 9 44h5c-1-1-10-43-14-44z" fill="#ED985F"></path> <path d="M106 421h4l3-1 3 1h17l-1-3-1-1c-2-1-5-1-8-4l-9-5-4 2c-1 1-4-2-4-2l-1 2a4 4 0 000 2l-1 6a36 36 0 01-1 1l3 2z" fill="#233862"></path> <path d="M105 410l4 2c2 0 5-4 5-4l-4 2c-1 1-4-1-4-1l-1 1zm1 11h4l3-1 3 1h17l-1-3-1 2h-14c0-1-3-2-6-1l-7-1a36 36 0 01-1 1l3 2z" fill="#AA3E39"></path> <path d="M131 421h4l4-1 3 1h16v-3l-2-1c-1-1-5-1-8-4l-8-5-4 2c-2 1-5-2-5-2v2a4 4 0 00-1 2l-1 5-1 2 3 1z" fill="#233862"></path> <path d="M131 410l4 2 5-4-4 2c-2 1-5-2-5-2v2zm0 11h4l4-1h3v1h16v-3c-1-1-1 2-1 2h-14c-1-1-3-2-6-1l-8-2a37 37 0 01-1 2l3 2z" fill="#AA3E39"></path> <path d="M100 292c3 1 14 5 31 2a80 80 0 0011-3l-2-46-2-21-9-3s-14 2-19 0c0 0-6 3-8 7-3 3-7 36-2 64z" fill="#739CF3"></path> <path d="M131 294l11-3-3-53-7-1s-7 35-1 57z" fill="#6488D3"></path> <path d="M128 242c1 4 10 3 17-2a62 62 0 012-2l21-12c5-4 10-19 14-25v-2c5-1 4-5 8-7 5-1 3-4 3-4l-7-1-6 7a163 163 0 00-4 3l-16 17c-2 3-12 6-20 9-3 1-5 2-6 4-10 7-6 15-6 15z" fill="#FFB27D"></path> <path d="M128 242c1 4 10 3 17-2l2-2c-7-5-7-13-7-15l-7 3c-9 8-5 16-5 16z" fill="#739CF3"></path> <path d="M306 13c0-1 0-12 16-12 0 0-8 1-9 4 0 0 5-4 9-3 5 2 7 9 7 12s-2 11-5 12h-3a39 39 0 012 4c6 13 0 26-6 25-3-1-4 5-4 5l-33-28s12-26 26-19z" fill="#000"></path> <path d="M294 408l7 3s30-44 34-83c1-7 0-14-1-20l1-5 1-5a15095 15095 0 0115-92h-2l-20-7-4-14-15-4s-4 7-7 39a260 260 0 00-1 15c-1 15-1 35 1 57a319 319 0 003 18l1 17c-2 32-13 81-13 81z" fill="#2B478B"></path> <path d="M302 235l33 68 1-5a15095 15095 0 0115-92l-41-25s-4 7-7 39a262 262 0 00-1 15z" fill="#233862"></path> <path d="M316 190l1-7c13 3 47-10 47-10s12 11 11 38l-4 87a535 535 0 01-1 12v2l6 12c14 42-3 93-3 93l-4-2s-10-57-18-82c-1-4-2-8-4-10l-9-26c-6-22-10-50-13-71l-9-36z" fill="#2B478B"></path> <path d="M292 106c4 2 9 4 15 4 22 1 27-19 28-32-4-2-6-1-8-1h-4c-3-1-8-8-11-20h-1l-15 8a193 193 0 004 19l-2 1c-1 1-4 10-6 21z" fill="#FFB27D"></path> <path d="M296 65l2 10c10-2 12-13 13-18l-15 8z" fill="#ED985F"></path> <path d="M294 71s22-6 18-20c-3-15-3-25-17-22s-15 9-15 14 8 29 14 28z" fill="#FFB27D"></path> <path d="M278 35c3-5 6-5 7-4 11-10 28-5 28-5 4 10 5 17 5 17s-3 4-13 3l-9-3c6 6 12 9 12 9-13-2-21-17-22-19-1 2-3 5-3 8 0 4 1 12-1 12 0 0-7-10-4-18z" fill="#000"></path> <path d="M279 105l6-13s3-3 13-7c-1 1-5 16-3 19 1 4 29-7 31-9l1-17v-1s10-2 16 1l-3 11v2a24 24 0 000 3l2 4 4 4 4 2v31a21 21 0 005 11c6 8 17 22 15 31 0 9-65 20-67 10 0 0-10-52-16-64a23 23 0 010-2c-2-4-2-10-1-14-3-2-7-2-7-2z" fill="#FF2164"></path> <path d="M321 170c14 0 25-15 32-27a21 21 0 01-3-8v-31l-4-2-4-4c-11 20-39 72-21 72z" fill="#D71737"></path> <path d="M348 421h35s0-6-1-10c-2-4-5-6-4-11-3 2-6 5-11 4l-6 8c-3 2-13 2-13 9zm-76 0h35s2-6-1-10c-2-4-1-6 1-9l-6 1-5-2-10 11c-3 2-13 2-14 9z" fill="#233862"></path> <path d="M238 421h-61c-5 0-9-4-9-9v-65c0-5 4-9 9-9h61c5 0 9 4 9 9v65c0 5-4 9-9 9z" fill="#BD0000"></path> <path d="M274 421h-61c-5 0-8-4-8-9v-65c0-5 3-9 8-9h61c5 0 9 4 9 9v65c0 5-4 9-9 9z" fill="red"></path> <path d="M238 174h-61c-5 0-9-4-9-9v-65c0-5 4-9 9-9h61c5 0 9 4 9 9v65c0 5-4 9-9 9z" fill="#4889D9"></path> <path d="M274 174h-61c-5 0-8-4-8-9v-65c0-5 3-9 8-9h61c5 0 9 4 9 9v65c0 5-4 9-9 9z" fill="#8CD2FF"></path> <path d="M492 421h-61c-5 0-8-4-8-9v-65c0-5 3-9 8-9h61c5 0 9 4 9 9v65c0 5-4 9-9 9z" fill="#E81725"></path> <path d="M528 421h-61c-4 0-8-4-8-9v-65c0-5 4-9 8-9h61c5 0 9 4 9 9v65c0 5-4 9-9 9z" fill="#FF646E"></path> <path d="M451 338h-61c-5 0-8-4-8-9v-64c0-5 3-9 8-9h61c5 0 9 4 9 9v64c0 5-4 9-9 9z" fill="#FFDB56"></path> <path d="M487 338h-61c-4 0-8-4-8-9v-64c0-5 4-9 8-9h61c5 0 9 4 9 9v64c0 5-4 9-9 9z" fill="#FFF73E"></path> <path d="M79 357l1 1 1 2 15 40v2h-8v-1l-3-7H66l-3 7-1 1h-6-1a2 2 0 010-1v-1l15-40 1-2 1-1h7zm3 29l-7-19-6 19h13zm184-81l1-1h7l1 1-2 6-3 4-5 4-8 1-8-1a16 16 0 01-9-10l-1-7a107 107 0 010-5v-5l1-8 4-5 5-4 8-1 8 1 5 4 3 4 2 6-1 1a2 2 0 01-1 0h-5-1l-1-1a7 7 0 00-1-3 8 8 0 00-1-2l-3-2a13 13 0 00-9 1l-3 2-1 3a14 14 0 00-1 4 107 107 0 000 5 107 107 0 001 9l1 3 3 2 5 1 4-1 3-1 2-2a7 7 0 000-3zm-9-158l1 1 1 1v4l-1 2h-28-1a2 2 0 010-2v-41-1l1-1h27l1 1v7h-21v10h18l1 1 1 1v5l-1 1h-19v11h20z" fill="#fff"></path> <path d="M54 327c2-9-3-17-11-19s-16 3-18 11c-2 9 3 17 11 19s16-3 18-11z" fill="#F99746"></path> <path d="M39 307h-2c6 1 10 6 10 13 0 6-5 12-11 12s-11-5-12-11a16 16 0 000 2c0 9 7 16 15 16s15-7 15-16-7-16-15-16z" fill="#ED7D2B"></path> <path d="M436 417c6-6 6-16 0-22s-15-6-21 0-6 16 0 22 15 6 21 0z" fill="#F99746"></path> <path d="M425 390h-1c5 1 10 6 10 12 0 7-5 12-12 12-6 0-10-4-11-10a16 16 0 000 2c0 8 6 15 14 15 9 0 15-7 15-15 0-9-6-16-15-16z" fill="#ED7D2B"></path> <path d="M504 325c1-9-4-17-12-18s-16 4-17 13c-2 9 4 17 12 18s16-4 17-13z" fill="#F99746"></path> <path d="M489 307h-1c5 1 10 6 10 12 0 7-6 12-12 12s-11-4-11-10a16 16 0 00-1 2c0 8 7 15 15 15s15-7 15-15c0-9-7-16-15-16z" fill="#ED7D2B"></path> <path d="M235 171h9l6 1-4-3 1-1 9 3c2 2 5 2 5 2l6-2a444 444 0 009-4 230 230 0 0030-16l5-10a314 314 0 004-7l7-14a329 329 0 0119-34l4-2 1 1s7 3 5 19v3l-3 9c-2 7-5 13-9 20l-3 6c-7 14-16 27-23 31a6 6 0 01-1 0l-11 3-21 3-10 1h-2l-6 1s-14 2-17 0c-3-3-11-9-10-10z" fill="#FFB27D"></path> <path d="M327 101c10-3 23 15 23 15 12-35-7-38-7-38-3-2-12 15-16 23z" fill="#D71737"></path> </svg> 