<?xml version="1.0" encoding="UTF-8"?> <svg xmlns="http://www.w3.org/2000/svg" width="700" height="414" viewBox="0 0 700 414" fill="none"> <path d="M696.638 413.757H509.763L498.826 413.717L143.499 412.447L26.2965 412.026C26.2965 412.026 -18.0122 326.806 8.4013 241.039C11.0036 232.57 14.2973 224.106 18.3895 215.714C21.112 210.129 24.1919 204.577 27.6527 199.085C28.0101 198.521 28.3676 197.963 28.7317 197.398C33.699 189.712 39.438 182.142 46.0289 174.759C96.317 118.415 142.693 110.769 180.742 114.603C211.104 117.653 236.161 128.016 253.672 126.766C293.13 123.954 305.784 35.2327 422.512 8.47182C445.802 3.13367 471.945 0.0303384 498.051 0.000273702C571.035 -0.0932608 643.785 23.7747 653.365 89.6765C654.748 99.1869 654.815 109.563 653.379 120.874C652.37 128.864 650.603 137.319 648.017 146.258C643.23 162.851 625.198 193.299 614.351 213.339C579.717 277.313 635.46 276.264 676.411 301.636C678.095 302.678 679.772 303.747 681.436 304.842C710.658 324.097 696.638 413.753 696.638 413.757Z" fill="#D9F2FF" fill-opacity="0.6"></path> </svg> 