<?xml version="1.0" encoding="utf-8"?>
<!-- Generator: Adobe Illustrator 24.3.0, SVG Export Plug-In . SVG Version: 6.00 Build 0)  -->
<svg version="1.1" id="Слой_1" xmlns="http://www.w3.org/2000/svg" xmlns:xlink="http://www.w3.org/1999/xlink" x="0px" y="0px"
	 viewBox="0 0 600 600" style="enable-background:new 0 0 600 600;" xml:space="preserve">
<style type="text/css">
	.st0{fill:#DC9F69;}
	.st1{opacity:0.3;fill:#FFFFFF;}
	.st2{fill:#D2D1D8;}
	.st3{fill:#8B4F26;}
	.st4{fill:#848589;}
	.st5{fill:#64B463;}
	.st6{fill:#94CB7C;}
	.st7{opacity:0.2;}
	.st8{fill:#F7BD19;}
	.st9{fill:#EF9B35;}
	.st10{fill:#F3AB1B;}
	.st11{fill:#F8D35F;}
	.st12{fill:#FFB07F;}
	.st13{fill:#EEA271;}
	.st14{fill:#3E1406;}
	.st15{fill:#4D1907;}
	.st16{fill:#E84D6A;}
	.st17{opacity:0.5;fill:#E84D6A;}
	.st18{opacity:0.4;fill:#FFB07F;}
	.st19{fill:#E68340;}
	.st20{fill:#3E2B1F;}
	.st21{fill:#FFFFFF;}
	.st22{fill:#018EAA;}
	.st23{fill:#FADD53;}
	.st24{fill:#6191C6;}
	.st25{fill:#CD772A;}
	.st26{fill:#F49A41;}
	.st27{fill:#EFE9D0;}
	.st28{fill:#463A0A;}
	.st29{fill:#E08734;}
	.st30{fill:#AF5C17;}
	.st31{fill:#4D400B;}
	.st32{fill:#71ADA2;}
	.st33{opacity:0.4;fill:#E68340;}
	.st34{fill:#757F86;}
	.st35{fill:#86540E;}
	.st36{fill:#B57113;}
	.st37{fill:#ACD899;}
	.st38{fill:#B7C4CD;}
	.st39{fill:#ECECEC;}
	.st40{fill:#FFCB5A;}
	.st41{fill:#20B9E0;}
	.st42{fill:#FF3F3E;}
	.st43{fill:#8446A1;}
	.st44{fill:#F6AA40;}
	.st45{fill:#006B8B;}
	.st46{fill:#AECB37;}
	.st47{fill:#752D17;}
	.st48{opacity:0.4;fill:#20B9E0;}
	.st49{opacity:0.4;fill:#FFFFFF;}
	.st50{fill:#EBD07D;}
	.st51{fill:#0296BC;}
</style>
<g>
	<g>
		<g>
			<path class="st0" d="M212.26,274c-0.86-0.92-1.75-1.81-2.65-2.68c-0.9-0.89-1.81-1.72-2.73-2.58c-0.93-0.84-1.88-1.67-2.84-2.47
				l-2.9-2.4c-0.95-0.81-1.92-1.61-2.9-2.39l-2.93-2.37c-1.96-1.56-3.91-3.12-5.9-4.67c-0.17-0.13-0.43-0.1-0.55,0.07
				c-0.12,0.15-0.1,0.38,0.03,0.51c1.78,1.78,3.59,3.52,5.4,5.25l2.72,2.62c0.92,0.86,1.83,1.7,2.75,2.57l2.75,2.56
				c0.92,0.84,1.86,1.67,2.83,2.48c0.97,0.8,1.94,1.61,2.9,2.39c0.98,0.78,1.98,1.54,3,2.28c0.35,0.26,0.84,0.16,1.08-0.18
				C212.54,274.67,212.51,274.27,212.26,274z"/>
			<path class="st1" d="M189.37,254.48c1.84,1.72,3.69,3.41,5.53,5.1l2.76,2.54c0.92,0.85,1.87,1.7,2.79,2.53l2.8,2.52
				c0.92,0.83,1.87,1.66,2.82,2.47c0.95,0.82,1.91,1.64,2.86,2.44c0.97,0.8,1.94,1.6,2.92,2.39c0.21,0.17,0.43,0.26,0.59,0.26
				c-0.01,0.08-0.04,0.16-0.09,0.22c-0.2,0.3-0.65,0.34-1,0.08c-1.01-0.75-1.99-1.53-2.98-2.3c-0.98-0.8-1.94-1.6-2.89-2.41
				c-0.95-0.81-1.91-1.63-2.81-2.47l-2.78-2.54c-0.92-0.86-1.83-1.72-2.76-2.57l-2.73-2.59c-1.83-1.73-3.64-3.45-5.44-5.2
				c-0.13-0.14-0.17-0.34-0.06-0.48c0.07-0.1,0.22-0.13,0.35-0.1C189.29,254.42,189.32,254.45,189.37,254.48z"/>
		</g>
		<g>
			<path class="st0" d="M224.89,284.59l-0.01-0.02c-0.92-0.98-1.89-1.93-2.84-2.84c-0.14-0.12-0.26-0.26-0.4-0.37
				c-0.06-0.04-0.1-0.1-0.16-0.15c-0.07-0.07-0.14-0.12-0.22-0.2c-0.11-0.12-0.26-0.25-0.38-0.37c-0.17-0.16-0.34-0.3-0.49-0.45
				c-0.8-0.76-1.61-1.49-2.41-2.22c-0.82-0.72-1.63-1.45-2.48-2.14c-0.38-0.33-0.76-0.65-1.15-0.98l-2.79-2.27l-0.92-0.75
				c-1.22-1-2.46-2.01-3.72-3l-0.54-0.43c-0.49,0.01-0.94,0.08-1.36,0.21c-0.34,0.11-0.68,0.26-0.97,0.46
				c-0.07,0.04-0.14,0.09-0.19,0.13l1.53,1.44c1.15,1.08,2.33,2.16,3.5,3.23l1.29,1.17l2.26,2.04c1.18,1.08,2.38,2.11,3.61,3.12
				c0.03,0.02,0.07,0.05,0.1,0.08c0.81,0.67,1.63,1.34,2.45,1.99c0.17,0.14,0.35,0.28,0.52,0.4c0.14,0.12,0.29,0.23,0.42,0.34
				c0.07,0.06,0.15,0.12,0.23,0.18c0,0.01,0,0.01,0,0.01c0.07,0.04,0.1,0.08,0.17,0.12v0.01c0.14,0.12,0.28,0.23,0.42,0.33
				c1.06,0.83,2.13,1.63,3.23,2.4c0.01,0.02,0.03,0.02,0.04,0.02v0.01c0.02,0.02,0.04,0.03,0.07,0.04c0.29,0.16,0.66,0.15,0.94-0.01
				c0.11-0.06,0.2-0.13,0.28-0.23c0.03-0.02,0.06-0.05,0.07-0.09c0.04-0.04,0.04-0.08,0.07-0.12c0.02-0.04,0.04-0.08,0.06-0.11
				c0-0.02,0-0.04,0.01-0.08C225.2,285.17,225.12,284.83,224.89,284.59z"/>
			<path class="st1" d="M225.12,285.49c-0.2,0-0.48-0.09-0.75-0.29c0,0,0,0,0-0.01c0-0.01-0.02-0.01-0.02-0.01
				c-1.07-0.82-2.09-1.66-3.13-2.51c-0.14-0.11-0.28-0.23-0.43-0.34c-0.04-0.04-0.1-0.1-0.15-0.13c-0.09-0.07-0.15-0.13-0.23-0.19
				c-0.14-0.11-0.28-0.22-0.42-0.34c-0.17-0.14-0.34-0.28-0.51-0.42c-0.84-0.71-1.69-1.41-2.52-2.12c-0.49-0.41-1-0.84-1.49-1.28
				c-0.72-0.6-1.41-1.22-2.12-1.83l-2.21-1.96l-1.37-1.22c-1.21-1.04-2.4-2.1-3.59-3.17l-1.18-1.06c-0.34,0.11-0.68,0.26-0.97,0.46
				l1.49,1.37c1.18,1.09,2.35,2.16,3.52,3.22l1.35,1.21l2.21,1.99c1.12,1.02,2.27,1.99,3.41,2.95c0.07,0.07,0.15,0.11,0.21,0.18
				c0.86,0.7,1.7,1.39,2.55,2.07c0.17,0.15,0.34,0.28,0.51,0.42c0.14,0.11,0.28,0.22,0.43,0.33c0.08,0.07,0.15,0.12,0.23,0.19
				c0.06,0.04,0.11,0.09,0.17,0.13c0.14,0.11,0.28,0.22,0.42,0.33c1.06,0.84,2.12,1.65,3.21,2.44c0,0.01,0.01,0.01,0.03,0.02l0,0
				c0.27,0.19,0.58,0.24,0.84,0.15c0.12-0.03,0.23-0.1,0.31-0.18c0.03-0.02,0.06-0.05,0.07-0.09c0.01,0,0.02-0.01,0.02-0.02
				c0.01-0.04,0.03-0.07,0.04-0.1c0.02-0.04,0.04-0.08,0.06-0.11C225.11,285.55,225.11,285.53,225.12,285.49z"/>
			<path class="st2" d="M221.43,280.81c-0.12-0.11-0.29-0.22-0.44-0.33c-0.28-0.21-0.53-0.39-0.53-0.39l-1.96,2.28
				c0,0,0.23,0.22,0.46,0.48c0.12,0.12,0.28,0.26,0.4,0.37c0.08,0.07,0.17,0.15,0.22,0.2c0.06,0.04,0.12,0.07,0.17,0.13
				c0.14,0.1,0.29,0.21,0.42,0.32c1.25,0.96,2.28,1.72,3.28,2.41l1.63-1.91c-1-1.04-2.02-2.04-2.87-2.87
				c-0.14-0.12-0.26-0.23-0.4-0.37c-0.05-0.05-0.1-0.1-0.14-0.14C221.6,280.95,221.53,280.88,221.43,280.81z"/>
			<path class="st1" d="M219.95,282.53c0.1,0.07,0.18,0.14,0.24,0.2c0.05,0.04,0.1,0.08,0.15,0.12c0.14,0.11,0.28,0.23,0.42,0.34
				c1.23,1,2.23,1.79,3.17,2.51l-0.37,0.44c-0.98-0.72-1.97-1.49-3.21-2.48c-0.14-0.11-0.28-0.22-0.42-0.34
				c-0.06-0.04-0.11-0.08-0.17-0.12c-0.05-0.04-0.12-0.12-0.22-0.2c-0.13-0.1-0.27-0.25-0.4-0.37c-0.25-0.24-0.48-0.46-0.48-0.46
				l0.4-0.47c0,0,0.23,0.22,0.48,0.46C219.7,282.28,219.83,282.41,219.95,282.53z"/>
			<path class="st3" d="M223.45,286.28c-0.11,1.4,1.17,3.88,3.35,4.16c2.18,0.28,3.32-0.26,3.98-0.07c0.66,0.22,1.74,0.81,2.24,1.22
				c0.18-1.96-2.06-5.01-3.22-5.84c-1.71-1.24-3.78-1.63-4.72-1.38L223.45,286.28z"/>
			<path class="st1" d="M224.32,285.26c0.17,1.08,1.69,3.27,3.58,3.88c1.89,0.62,2.76,0.4,3.36,0.69c0.45,0.21,1.8,1.53,1.78,1.74
				c-0.51-0.43-1.54-1.03-2.19-1.28c-0.63-0.23-1.67,0.16-3.73-0.25c-2.05-0.42-3.45-2.79-3.45-4.04l1.39-1.62l0,0L224.32,285.26z"
				/>
			<path class="st4" d="M221.43,280.81c-0.12-0.11-0.29-0.22-0.44-0.33l-2.03,2.37c0.12,0.12,0.28,0.26,0.4,0.37L221.43,280.81z"/>
			<path class="st4" d="M221.81,281.14l-2.06,2.4c0.14,0.1,0.29,0.21,0.42,0.32l2.03-2.36
				C222.06,281.38,221.94,281.27,221.81,281.14z"/>
		</g>
	</g>
	<g>
		<g>
			<polygon class="st5" points="366.94,437.02 359.37,424.7 359.37,347.73 366.94,347.73 366.94,436.55 			"/>
			<g>
				<rect x="366.94" y="347.73" class="st6" width="17.67" height="89.29"/>
				<rect x="366.94" y="347.73" class="st7" width="17.67" height="8.25"/>
			</g>
			<polygon class="st7" points="366.94,355.98 359.37,347.23 366.94,347.73 			"/>
		</g>
		<g>
			<polygon class="st5" points="222.76,437.02 230.33,424.7 230.33,347.73 222.76,347.73 222.76,436.55 			"/>
			<g>
				<rect x="205.1" y="347.73" class="st6" width="17.66" height="89.29"/>
				<rect x="205.1" y="347.73" class="st7" width="17.66" height="8.25"/>
			</g>
			<polygon class="st7" points="222.76,355.98 230.33,347.23 222.76,347.73 			"/>
		</g>
	</g>
	<g>
		<g>
			<path class="st8" d="M116.41,385.22l1.82,12.16l7.95,53.12c0,1.29,3.25,2.34,7.62,2.34c4.33,0,7.59-1.05,7.59-2.34l-7.07-49.61
				l-0.03-0.04l-2.21-15.64H116.41z"/>
			<path class="st8" d="M135.27,383.87l3.78,26.98c0.06,0.48,0.1,0.94,0.17,1.39l3.64,26.09c0,1.28,3.45,2.32,7.79,2.32
				c4.38,0,7.62-1.04,7.62-2.32l-4.92-37.47l-2.21-16.99H135.27z"/>
			<path class="st9" d="M116.41,385.22l1.82,12.16c4.01-9.3,13.35-3.76,16.07,3.48l-2.21-15.64H116.41z"/>
			<path class="st9" d="M139.05,410.85c-0.36-6.27,1.69-15.34,5.34-16.33c5.41-1.48,8.96,6.34,8.96,6.34l-2.21-16.99h-15.87
				L139.05,410.85z"/>
		</g>
		<g>
			<path class="st8" d="M69.29,385.22l-1.84,12.16l-7.93,53.12c0,1.29-3.27,2.34-7.62,2.34c-4.33,0-7.59-1.05-7.59-2.34l7.07-49.61
				l0.03-0.04l2.21-15.64H69.29z"/>
			<path class="st9" d="M69.29,385.22l-1.84,12.16c-3.99-9.3-13.34-3.76-16.05,3.48l2.21-15.64H69.29z"/>
		</g>
		<g>
			<path class="st8" d="M89.03,383.87l-3.79,26.98c-0.05,0.48-0.08,0.94-0.15,1.39l-3.64,26.09c0,1.28-3.45,2.32-7.78,2.32
				c-4.38,0-7.63-1.04-7.63-2.32l4.91-37.47l2.21-16.99H89.03z"/>
			<path class="st9" d="M85.24,410.85c0.37-6.27-1.68-15.34-5.34-16.33c-5.42-1.48-8.96,6.34-8.96,6.34l2.21-16.99h15.87
				L85.24,410.85z"/>
		</g>
		<path class="st10" d="M153.34,364.7v19.16c0,2.84-22.85,5.15-51.03,5.15c-28.19,0-51.03-2.31-51.03-5.15V364.7H153.34z"/>
		<path class="st11" d="M51.28,364.7c0,2.86,22.83,5.15,51.03,5.15c28.18,0,51.03-2.29,51.03-5.15c0-2.84-22.85-5.15-51.03-5.15
			C74.12,359.56,51.28,361.86,51.28,364.7z"/>
	</g>
	<g>
		<path class="st12" d="M153.11,263.96c0.97,6.16-0.82,15.23,4.68,19.21c5.04-0.09,35.95-8.92,39.28-13.89
			c2.29-3.45,1.44-6.28,7.51-7.86c4.82-1.26,6.14-1.11,9.48,2.96c2.49,3.03,6.01,8.54,2.57,11.86c-2.75,2.65-9.49-0.21-12.67,1.42
			c-1.53,0.78-26.87,17.34-38.32,25.25c-9.02,6.26-16.7,11.17-22.09-1.55c-3.21-7.59-3.78-33.79-4.71-39.42L153.11,263.96z"/>
		<g>
			<path class="st13" d="M229.25,399.2c-5.36-0.27-14.52-0.98-16.78-2.95c-4.42-7.21-6.79-68.18-27.02-68.47
				c-20.21-0.29-59.25-16.47-59.25-16.47l-28.17,1.09c-7.84,16.64-2.77,36.26,15.1,37.55c17.86,1.3,28.19,10.97,49.58,4.43
				c18.78,2.73,22.53,35.33,33.38,48.02c-0.03,0.02-0.07,0.04-0.07,0.04c0.48,2.66,0.62,5.83,1.23,9.26
				c8.48,4.1,20.31-0.86,27.55-5.04C230.24,403.6,233.51,401.3,229.25,399.2z"/>
			<path class="st14" d="M239.38,409.74c-6.49,6.06-24.35,7.7-30.55,10.23c-6.19,2.51-8.45,1.42-9.95-2.38
				c-0.81-2.04-1.29-4-1.63-5.89c8.48,4.1,20.31-0.86,27.55-5.04c5.44-3.07,8.72-5.37,4.46-7.47c2.97,0.1,5.92,0.06,8.31-0.27
				C244.34,398.06,245.88,403.68,239.38,409.74z"/>
		</g>
		<g>
			<path class="st15" d="M220.84,426.3c-6.81,5.7-25.14,6.11-31.51,8.22c-6.42,2.1-8.7,0.83-10.13-3.15
				c-0.75-2.14-1.18-4.17-1.49-6.12c8.55,4.79,20.8,0.59,28.3-3.12c5.65-2.77,9.08-4.86,4.79-7.32c3.04,0.34,6.03,0.5,8.51,0.34
				C226.26,414.77,227.66,420.59,220.84,426.3z"/>
			<path class="st12" d="M210.8,414.81c-5.48-0.63-14.81-2.05-17.07-4.21c-3.37-24.7-7.18-70.12-28.24-71.42
				c-21.07-1.26-44.96-8.99-44.96-8.99l-29.4-0.27c-9.08,16.24-4.79,36.08,13.77,38.25c18.56,2.15,29.67,5.52,52.3,0.01
				c3.67,4.46,9.66,28.59,19.57,47.5c-0.02,0.01,0.39,6.04,0.92,9.56c8.55,4.79,20.8,0.59,28.3-3.12
				C211.66,419.35,215.09,417.27,210.8,414.81z"/>
		</g>
		<path class="st12" d="M140.88,250.32c-5.15,6.17-25.04,7.03-32.61-2.22c1.14-4.3,5.93-10.26,6.52-17.66
			c0.15-1.17,0.15-2.19-0.06-3.09l21,6.17c0,0-0.46,7.67,2.78,13.55C139.17,248.24,139.92,249.35,140.88,250.32z"/>
		<path class="st16" d="M86.79,335.03c-12.17,34.59,22.06,42.05,57.93,35.85c0.28-1.82,0.4-3.62,0.54-5.36
			c0.84-13.37-1.45-19.84,14.84-26.88c9.04-12.03,26.3-13.43,31.32-8.55c-3.83-9.82-26.83-4.59-37.69-18.78
			c-7.45-9.82-4.07-33.43-4.82-45.75c1.11-0.48,3.95,1.74,5.01,1.33c1.8-8.49-7.45-21.79-16.79-22.97c0,0-2.79,8.15-11.34,8.84
			c-8.56,0.7-15.18-3.39-16.99-6.24c-3.28-0.77-9.79-2.6-13.91-0.93c-4.11,1.67-12.12,3.97-12.12,16.77c0,0,7.67,5.78,14.21,5.85
			c-4.53,20.94-3,44.34-9.46,64.74C87.28,333.65,87.07,334.34,86.79,335.03z"/>
		<path class="st17" d="M144.72,370.88c0.28-1.82,0.4-3.62,0.54-5.36c-34.25,4.93-68.2-1.32-56.65-34.32
			c7.08-20.18,5.64-17.26-1.11,1.74c-0.22,0.7-0.43,1.39-0.71,2.08C74.62,369.62,108.86,377.08,144.72,370.88z"/>
		<path class="st12" d="M103.71,265.15c-1.57,7.25-19.33,82.7-20.91,90.27c-1.58,7.57-7.48,12.42-11.57,11.48
			c-4.1-0.95-13.8-1.66-22.09,0c-4.33,0.86,5.24-6.74,8.39-8.01c3.17-1.28,8.53,0,9.8-0.64c1.26-0.65,9.24-48.28,10.5-54.28
			c1.26-6,4.74-12.63,4.43-18.62c-0.32-6-0.34-23.05,1.55-29.35C85.72,249.68,105.29,257.89,103.71,265.15z"/>
		<path class="st16" d="M103.7,265.07v0.1c-0.23,1.17-0.35,3.34-0.49,6.17c-0.25,4.34-0.6,10.3-1.92,16.72
			c-0.91,0.04-2.02,0-3.24-0.05c-6-0.26-14.89-1.39-18.82-3.03c-0.29-6.22,2.73-22.72,4.6-28.94c1.92-6.3,11.66-8.58,14.23-7.79
			C103.2,249.82,105.23,257.85,103.7,265.07z"/>
		<path class="st18" d="M114.79,230.44c0.15-1.17,0.15-2.19-0.06-3.09l21,6.17c0,0-0.46,7.67,2.78,13.55
			C131.78,246.34,122.21,235.69,114.79,230.44z"/>
		<path class="st17" d="M104.08,263.7l-0.87,7.62l-1.92,16.72c-0.91,0.04-2.02,0-3.24-0.05l5.65-22.83v-0.1L104.08,263.7z"/>
		<g>
			<path class="st12" d="M96.86,218.44c3.55,3.31,8.36,3.47,16.22,9.9c3.05,1.21,19.68,12.55,23.05,14.38
				c3.37,1.82,8.56,1.62,12.95,0.81c4.38-0.81,6.61-6.01,7.24-7.25c0.1-0.21,0.24-0.35,0.4-0.48c0.76-0.54,1.94-0.16,2.35-0.42
				c0.51-0.32-0.57-2.42-0.52-3.09c0.75-0.51,2.67-0.09,2.46-1.06c-0.11-0.54-0.29-1.18-0.49-1.78c-0.22-0.78-0.45-1.48-0.48-1.82
				c-0.04-0.61,2.7-1.84,4.12-3.46c1.44-1.65,1.03-4.49,0-5.31c-1-0.81-5.29-2.85-6.26-5.3c-0.97-2.44,1.39-8.77,2.4-15.29
				c1-6.53,1.29-21.87-5.3-28.98c-5.4-5.8-21.69-14.46-36.41-14.07c-18.45,0.53-20.51,7.15-26.93,21.01
				C85.22,190.09,85.74,208.14,96.86,218.44z"/>
			<path class="st19" d="M158.26,221.91c-0.36,0.48-0.68,1-0.91,1.58c-0.11,0.29-0.2,0.59-0.24,0.92c-0.02,0.32,0,0.7,0.24,1
				c0.11,0.15,0.29,0.26,0.45,0.32c0.15,0.07,0.35,0.1,0.55,0.07c0.2-0.04,0.35-0.15,0.48-0.24c0.11-0.09,0.22-0.19,0.35-0.26
				c0.22-0.15,0.49-0.24,0.78-0.27c0.26-0.05,0.57,0.03,0.76,0.28c-0.1-0.31-0.45-0.47-0.77-0.48c-0.32-0.02-0.64,0.04-0.92,0.2
				c-0.3,0.14-0.53,0.37-0.75,0.4c-0.17,0.03-0.48-0.12-0.6-0.27c-0.14-0.18-0.18-0.44-0.17-0.71c0.02-0.29,0.09-0.56,0.15-0.84
				C157.83,223.03,158.04,222.48,158.26,221.91z"/>
			<path class="st20" d="M158.05,192.24c0.65-0.04,0.71-1.43,0-1.84c-0.72-0.4-2.1-0.17-3.97,0.91c-1.43,0.82-2.97,2.86-3.47,4.9
				C152.54,194.88,156.32,192.32,158.05,192.24z"/>
			<path class="st21" d="M148.21,208.16c0,0.21,0,0.42,0.02,0.62c0.12,3.44,1.37,6.14,2.86,6.14c0.54,0,1.03-0.34,1.46-0.91
				c0.28-0.4,0.55-0.91,0.76-1.53c0.42-1.17,0.67-2.68,0.67-4.32c0-0.65-0.04-1.28-0.11-1.88c-0.07-0.57-0.18-1.14-0.31-1.65
				c-0.1-0.37-0.21-0.74-0.35-1.06c-0.24-0.59-0.52-1.09-0.83-1.45c-0.11,0.03-0.23,0.06-0.37,0.1c-1.22,0.44-3.57,2.73-3.8,5.7
				C148.21,207.99,148.21,208.08,148.21,208.16z"/>
			<path class="st22" d="M151.08,209.21c0,2.38,0.63,4.34,1.46,4.8c0.86-1.17,1.43-3.34,1.43-5.85c0-1.3-0.14-2.49-0.42-3.53
				c-0.2-0.21-0.42-0.32-0.66-0.32C151.89,204.31,151.08,206.51,151.08,209.21z"/>
			<path d="M152.25,209.4c0,1.6,0.4,2.92,0.97,3.23c0.03-0.04,0.05-0.09,0.08-0.14c0.42-1.17,0.67-2.68,0.67-4.32
				c0-0.65-0.04-1.28-0.11-1.88c-0.14-0.11-0.27-0.18-0.4-0.18C152.78,206.11,152.25,207.58,152.25,209.4z"/>
			<path d="M148.21,208.8c0-0.02,0.02-0.02,0.02-0.02c0.73-1.63,2.84-5.12,4.98-5.21c0.15-0.01,0.32,0,0.46,0.02
				c0.81-0.45,1.22-1.38,1.22-1.38s-1.26-0.37-2.51-0.1c-0.11,0.03-0.23,0.06-0.37,0.1c-1.22,0.44-3.57,2.73-3.8,5.7
				C148.18,208.2,148.18,208.5,148.21,208.8z"/>
			<path class="st19" d="M148.07,205.4c0.31-0.6,0.57-1.2,0.89-1.77c0.32-0.56,0.66-1.08,1.08-1.45c0.42-0.4,0.91-0.64,1.43-0.76
				c0.51-0.1,1.06-0.05,1.63,0.01c-0.51-0.32-1.09-0.5-1.66-0.48c-0.59,0.01-1.18,0.29-1.67,0.74c-0.48,0.44-0.85,1.04-1.12,1.68
				C148.38,204.02,148.19,204.71,148.07,205.4z"/>
			<path class="st23" d="M153.2,165.21c5.26,0.26,8.88,1.08,11.89,5.44c3.03,4.35,1.75,12.37,0,14.82c-0.78-3.54-1.6-4.9-2.41-5.85
				c-0.14,1.91-5.39,9.38-7.8,9.65c1.69-6.41,1.38-15.36-1.68-17.95c0.23,2.85,0.98,9.5-2.6,11.83c-0.31-2.18-1.08-5.72-2.4-6.67
				c0.59,3.14-2.54,11.01-5.79,14.28c-3.26,3.25-15.17,13.64-22.94,14.64c-5.21,9.84-6.39,22.93-6.39,22.93s-8.77-3.05-11.52-5.01
				c-2.73-1.96-14.07-10.7-15.52-27.12c-1.41-15.99,6.69-31.35,15.02-36.84c8.36-5.51,16.74-6.83,28.83-4.16
				C142.01,157.87,151.36,163.71,153.2,165.21z"/>
			<g>
				<path class="st23" d="M104.11,164.2c1.78-2.86,7.52-15.89-0.76-24.2c-0.23,3.29-1.65,6.69-1.65,6.69s-7.2-10.65-14.87-10.44
					c-7.67,0.22-18.11,0.86-23.37,11.62c-5.23,10.77-3.94,21.74,0.54,24.81c0.15,2.81,4.03,12.25,9.44,13.49
					c-0.46-2.71,1.69-7.68,1.69-7.68s2.43,7.89,9.46,9.82c-3.12-5.74-2.23-14.13,1.38-17.89c3.6-3.81,10.16-0.63,10.16-0.63
					L104.11,164.2z"/>
				<path class="st24" d="M106.8,157.65l1.6,1.29c0,0,2.29,5.75-2.81,10.73c-5.1,4.97-10.23,2.69-12.43,1.45
					c-0.67-0.83,0.38-3.46,0.38-3.46S105.89,163.15,106.8,157.65z"/>
				<path class="st23" d="M64.01,172.67c0.06-3.28,0.52-6.51,1.23-9.67c0.4-1.58,0.83-3.13,1.41-4.63c0.57-1.5,1.26-2.95,2.11-4.28
					c0.43-0.67,0.89-1.32,1.39-1.9c0.5-0.57,1.11-1.06,1.74-1.53c1.26-0.93,2.72-1.64,4.19-2.28c2.97-1.21,6.15-2.05,9.44-2.22
					c-1.64-0.2-3.31-0.11-4.95,0.12c-1.64,0.23-3.27,0.63-4.84,1.18c-1.58,0.56-3.1,1.28-4.52,2.24c-0.72,0.48-1.37,1.01-1.98,1.69
					c-0.56,0.64-1.08,1.33-1.52,2.04c-1.81,2.88-2.83,6.11-3.42,9.38C63.73,166.07,63.55,169.42,64.01,172.67z"/>
				<path class="st23" d="M75.13,178.48c0.39-1.36,0.71-2.68,1.05-4.03c0.34-1.33,0.67-2.65,1.08-3.94c0.4-1.3,0.86-2.57,1.4-3.82
					c0.55-1.22,1.21-2.41,1.95-3.59c-1.14,0.81-2.07,1.94-2.8,3.14c-0.76,1.21-1.3,2.54-1.74,3.89c-0.41,1.34-0.69,2.75-0.84,4.13
					C75.05,175.67,75,177.07,75.13,178.48z"/>
				<path class="st23" d="M66.8,180.08c-0.09-1.87,0.02-3.72,0.31-5.55c0.26-1.81,0.68-3.61,1.23-5.35c1.12-3.48,2.83-6.8,5.33-9.4
					c2.48-2.63,5.63-4.6,9.07-5.83c1.72-0.62,3.5-1.04,5.33-1.27c1.82-0.25,3.69-0.23,5.52,0.03c-3.6-1.01-7.53-0.8-11.16,0.32
					c-3.64,1.08-7.02,3.11-9.66,5.89c-2.66,2.8-4.4,6.33-5.35,9.99C66.46,172.55,66.16,176.39,66.8,180.08z"/>
			</g>
		</g>
		<g>
			<path class="st12" d="M120.69,204.53c-0.7-2.11-4.33-5.47-6.93-4.08c-2.6,1.37-6,8.21-3.49,14.16c2.9,7,6.44,8.73,8.44,7.98
				C120.75,221.84,120.69,204.53,120.69,204.53z"/>
			<path class="st19" d="M114.32,206.38c0.46-1,1.91-1.32,2.95-0.64c1.07,0.56,1.96,1.69,2.04,3.04c0.07,1.13-0.17,2.56-1.17,3.31
				c-0.98,0.72-2.12,0.84-3.17,0.95l0.29-0.24c-0.18,0.59,0.07,1.52,0.35,2.3c0.29,0.8,0.65,1.62,1.14,2.35
				c-0.62-0.62-1.14-1.38-1.58-2.18c-0.36-0.83-0.81-1.65-0.67-2.76l0.04-0.21l0.26-0.06c1.03-0.15,2.04-0.35,2.75-0.92
				c0.65-0.56,0.94-1.5,0.92-2.56c-0.01-0.94-0.6-1.92-1.46-2.51C116.22,205.67,115.04,205.52,114.32,206.38z"/>
		</g>
	</g>
	<g>
		<g>
			<path class="st8" d="M515.11,385.22l1.82,12.16l7.95,53.12c0,1.29,3.25,2.34,7.63,2.34c4.33,0,7.58-1.05,7.58-2.34l-7.06-49.61
				l-0.03-0.04l-2.21-15.64H515.11z"/>
			<path class="st8" d="M533.97,383.87l3.77,26.98c0.07,0.48,0.11,0.94,0.17,1.39l3.66,26.09c0,1.28,3.45,2.32,7.79,2.32
				c4.35,0,7.62-1.04,7.62-2.32l-4.92-37.47l-2.21-16.99H533.97z"/>
			<path class="st9" d="M515.11,385.22l1.82,12.16c4.01-9.3,13.35-3.76,16.07,3.48l-2.21-15.64H515.11z"/>
			<path class="st9" d="M537.73,410.85c-0.35-6.27,1.69-15.34,5.36-16.33c5.41-1.48,8.96,6.34,8.96,6.34l-2.21-16.99h-15.87
				L537.73,410.85z"/>
		</g>
		<g>
			<path class="st8" d="M467.99,385.22l-1.84,12.16l-7.95,53.12c0,1.29-3.25,2.34-7.62,2.34c-4.33,0-7.58-1.05-7.58-2.34l7.07-49.61
				l0.02-0.04l2.22-15.64H467.99z"/>
			<path class="st9" d="M467.99,385.22l-1.84,12.16c-3.99-9.3-13.34-3.76-16.05,3.48l2.22-15.64H467.99z"/>
		</g>
		<g>
			<path class="st8" d="M487.72,383.87l-3.78,26.98c-0.07,0.48-0.08,0.94-0.15,1.39l-3.66,26.09c0,1.28-3.45,2.32-7.78,2.32
				c-4.36,0-7.63-1.04-7.63-2.32l4.92-37.47l2.22-16.99H487.72z"/>
			<path class="st9" d="M483.94,410.85c0.37-6.27-1.68-15.34-5.34-16.33c-5.41-1.48-8.96,6.34-8.96,6.34l2.22-16.99h15.86
				L483.94,410.85z"/>
		</g>
		<path class="st10" d="M552.04,364.7v19.16c0,2.84-22.85,5.15-51.03,5.15c-28.19,0-51.05-2.31-51.05-5.15V364.7H552.04z"/>
		<path class="st11" d="M449.96,364.7c0,2.86,22.86,5.15,51.05,5.15c28.18,0,51.03-2.29,51.03-5.15c0-2.84-22.85-5.15-51.03-5.15
			C472.82,359.56,449.96,361.86,449.96,364.7z"/>
	</g>
	<g>
		<path class="st25" d="M467.29,322.32c-9.53,1.23-33.47-4.27-41.78,4.05c-5.47,5.46-11.11,12.48-13.84,24.7
			c-2.73,12.21-6.58,48.26-6.58,48.26s19.05,7.48,24.84,8.26c1.32-7.69,11.91-45.55,12.79-48.67c0.88-3.12,3.81-5.91,7.92-5.46
			c4.07,0.46,23.86,3.32,35.72,2.38c11.88-0.95,32.37-8.47,34.46-16.64C500.72,334.96,473.82,326.78,467.29,322.32z"/>
		<g>
			<path class="st26" d="M425.33,406.45l-1.32-0.29c0.15-0.71,0.41-1.86,0.73-3.36c4.79-22.37,11.66-52.69,16.04-57.8
				c3.88-4.58,12.91-4.51,22.43-4.45c3.89,0.02,7.92,0.05,11.42-0.27c11.49-1.07,29.61-3.89,33.23-4.86l2.92,0.62
				c-3.67,0.99-24.5,4.5-36.03,5.59c-3.56,0.32-7.62,0.29-11.54,0.27c-8.82-0.07-17.93-0.13-21.44,3.98
				c-4.64,5.43-12.97,44.4-15.71,57.2C425.74,404.58,425.5,405.74,425.33,406.45z"/>
		</g>
		<g>
			<path class="st27" d="M430.58,414.12c-0.43,1.38-0.98,2.68-1.6,3.76c-4.37,1.06-8.61-1.27-11.36-1.25
				c-2.75,0.07-13.34,0.3-18.39-0.66c-5.03-0.97-11.11-4.01-12.56-5.79c0.04-0.95,0.18-2.17,0.4-3.39
				c2.55,2.47,10.83,4.76,14.57,4.82c3.76,0.11,11.77-0.75,15.3,0.09C420.53,412.54,427.42,412.67,430.58,414.12z"/>
			<path class="st27" d="M432.01,401.62c-2.71,0.46-6.83,0.04-8.53-1.17c0.51-9.07-10.26-10.22-14.71-9.79
				c-1.28,0.08-2.07,0.61-2.58,1.42c0.26-1.85,1.05-3.36,3.2-3.59c4.23-0.48,16.21,1.2,15.66,10.21c1.72,1.3,3.6,1.51,6.13,0.81
				C431.6,399.82,431.84,400.58,432.01,401.62z"/>
			<path class="st28" d="M430.58,414.12c-3.17-1.45-10.05-1.58-13.63-2.43c-3.53-0.84-11.54,0.02-15.3-0.09
				c-3.73-0.06-12.02-2.35-14.57-4.82c0.35-1.89,0.94-3.94,1.77-5.67c0.78-1.41,1.69-2.57,2.97-3.04c3.38-1.31,8.29-3.2,13.24-0.72
				c0.15,0.04,0.25,0.06,0.37,0.15c0.41-1.66,0.41-3.69,0.76-5.42c0.51-0.81,1.3-1.34,2.58-1.42c4.44-0.43,15.21,0.72,14.71,9.79
				c1.69,1.21,5.81,1.63,8.53,1.17c0.04,0.02,0.04,0.02,0.04,0.02C432.45,404.58,431.96,409.9,430.58,414.12z"/>
			<path class="st27" d="M403.34,396.65c1.63,0.23,3.01,1.36,4.01,2.64c0.82,1.33,1.63,3.03,1.05,4.66
				c-0.21-0.78-0.6-1.42-0.95-2.05c-0.38-0.64-0.73-1.28-1.2-1.82C405.43,398.83,404.44,397.86,403.34,396.65z"/>
			<path class="st27" d="M405.8,395.24c1.14-0.32,2.43-0.29,3.61,0.04c1.17,0.32,2.28,0.98,3.23,1.78c1.8,1.68,3.04,4.15,2.69,6.54
				C413.85,399.17,410.45,396.01,405.8,395.24z"/>
		</g>
	</g>
	<path class="st13" d="M505.53,259.8c-1.82,7.47-19.76,35.54-23.17,41.55c-3.41,6-29.13,25.53-37.12,28.16
		c-7.96,2.65-14.95-1.14-19.48-0.53c-4.51,0.6-7.59,3.91-12.14,2.92c-4.54-1-3.61-5.59-1.28-8.99c2.36-3.43,8.58-5.4,11.14-4.59
		c2.55,0.8,9.32,1.2,12.88-1.22c3.56-2.43,22.48-19.7,25.84-24.75c3.37-5.04,16.6-25.6,23.34-33.09
		C492.23,251.83,507.36,252.32,505.53,259.8z"/>
	<g>
		<path class="st29" d="M470.91,325.05c-0.92-0.42-26.57,7.21-37.13,7.1c7.67,2.53,16.07,1.05,18.31,6.13c0,0-10.7,4.5-15.06,8.51
			c-6.07,5.6-10.05,14.76-11.25,28.07c-1.2,13.3-0.31,52-0.31,52s21.22,5.26,27.45,5.32c0.32-8.34,6.29-49.87,6.8-53.29
			c0.51-3.42,3.24-6.79,7.62-6.87c4.38-0.09,25.74,0.21,38.17-2.43c12.44-2.64,33.09-13.44,34.2-22.38
			c-16.74-1.31-33.77-3.29-49-10.59C484.11,333.45,477.61,328.22,470.91,325.05z"/>
		<g>
			<path class="st30" d="M447.91,431.59l-1.44-0.11c0.07-0.77,0.18-2.04,0.31-3.67c1.98-24.35,5.07-57.38,8.97-63.4
				c3.5-5.37,13.06-6.56,23.17-7.81c4.12-0.51,8.36-1.03,12.04-1.85c12-2.73,30.82-8.23,34.51-9.74l3.17,0.26
				c-3.75,1.53-25.29,8.12-37.36,10.87c-3.72,0.84-8.03,1.38-12.17,1.88c-9.35,1.14-19.01,2.34-22.13,7.17
				c-4.16,6.41-7.62,48.8-8.75,62.73C448.08,429.57,447.97,430.85,447.91,431.59z"/>
		</g>
		<g>
			<path class="st27" d="M454.53,439.01c-0.27,1.52-0.66,2.97-1.18,4.18c-4.47,1.74-9.28-0.14-12.18,0.27
				c-2.92,0.43-14.1,2.16-19.57,1.82c-5.45-0.32-12.32-2.7-14.1-4.38c-0.09-1.03-0.12-2.34-0.04-3.64
				c3.04,2.24,12.14,3.52,16.08,3.07c4.01-0.38,12.37-2.41,16.22-2.02C443.65,438.71,450.97,437.89,454.53,439.01z"/>
			<path class="st27" d="M454.28,425.57c-2.77,0.87-7.19,0.96-9.15-0.05c-0.73-9.68-12.29-9.42-16.93-8.33
				c-1.34,0.27-2.1,0.92-2.54,1.85c0.03-2.01,0.66-3.71,2.89-4.22c4.41-1.11,17.31-1,17.97,8.66c2.03,1.13,4.03,1.08,6.61-0.02
				C453.62,423.73,454,424.5,454.28,425.57z"/>
			<path class="st31" d="M454.53,439.01c-3.56-1.11-10.88-0.3-14.78-0.7c-3.86-0.4-12.21,1.63-16.22,2.02
				c-3.94,0.45-13.03-0.83-16.08-3.07c0.1-2.06,0.45-4.32,1.09-6.25c0.63-1.61,1.46-2.95,2.72-3.63c3.39-1.83,8.34-4.54,13.91-2.6
				c0.18,0.04,0.29,0.04,0.46,0.12c0.2-1.83-0.1-3.97,0.03-5.87c0.43-0.92,1.2-1.58,2.54-1.85c4.64-1.09,16.19-1.35,16.93,8.33
				c1.96,1.01,6.38,0.92,9.15,0.05c0.07,0.01,0.07,0.01,0.07,0.01C455.18,428.64,455.4,434.35,454.53,439.01z"/>
			<path class="st27" d="M423.24,424.28c1.8,0.01,3.39,1.02,4.63,2.23c1.07,1.3,2.18,2.98,1.77,4.79c-0.32-0.79-0.83-1.41-1.29-2.04
				c-0.49-0.62-0.97-1.23-1.51-1.77C425.8,426.28,424.62,425.39,423.24,424.28z"/>
			<path class="st27" d="M425.68,422.43c1.15-0.49,2.54-0.66,3.81-0.44c1.3,0.17,2.57,0.73,3.67,1.44c2.15,1.53,3.78,3.97,3.78,6.56
				C434.75,425.48,430.72,422.61,425.68,422.43z"/>
		</g>
	</g>
	<path class="st12" d="M518.02,251.84c-8.22,6.72-27.25,13.51-34.14,11.18c-0.22-0.9-0.43-1.88-0.68-2.95
		c-1.58-7.05-3.98-17.55-3.98-17.55l27.2-11.55c0,0,1.96,5.7,4.71,11.25C513.16,246.3,515.6,250.32,518.02,251.84z"/>
	<path class="st32" d="M541.41,279.3c2.35,19.03,6.07,50.49-1.69,67.93c-22.98,2.28-65.24-7.21-72.62-13.88
		c-3-22.23-3.47-46.31,8.62-64.14c2.1-3.18,4.6-6.16,7.56-8.88c5.09,3.07,8.44,3.03,16.39,1.03c3.5-0.85,6.64-2.68,9.43-4.73
		c0.04-0.01,0.04-0.01,0.04-0.01c2.75-2.15,5.13-4.57,6.92-6.57C525.46,250.1,539.03,260.23,541.41,279.3z"/>
	<path class="st33" d="M510.43,242.94c-1.15,1.65-1.81,2.43-3.41,3.88c-5.95,5.34-15.58,10.7-23.82,13.25
		c-1.58-7.05-3.98-17.55-3.98-17.55l27.2-11.55C506.42,230.98,507.71,237.42,510.43,242.94z"/>
	<path class="st12" d="M458.07,172.45c-3.84,3.62-9.57,11.12-8.43,19.35c1.12,8.22,2.01,16.1,2.38,20.89
		c0.37,4.79-1.48,14.65,0.13,22.27c1.63,7.6,16.21,20.04,25.19,20.5c8.96,0.45,24.41-5.77,33.09-12.52
		c8.7-6.74,11.6-17.11,12.07-26.07c0.45-8.96-4.43-35.31-9.24-41.64c-4.81-6.3-17.76-14.12-30.22-12.69
		C470.57,163.96,463,167.81,458.07,172.45z"/>
	<g>
		<path class="st21" d="M502.76,214.7c0.56,4.95-3.27,6.88-7.52,7.38c-4.21,0.48-8.32-1.45-8.98-5.48
			c-1.12-6.94,2.65-9.41,7.22-9.92c2.4-0.28,4.64,0.28,6.32,1.75c1.35,1.17,2.33,2.86,2.78,5.16v0.01
			C502.66,213.94,502.7,214.32,502.76,214.7z"/>
		<path class="st34" d="M497.16,214.77c0,3.17-2.06,5.48-4.86,5.79c-3.03,0.34-5.79-1.99-6.17-5.24c-0.37-3.25,1.8-6.17,4.82-6.5
			c1.25-0.15,2.44,0.15,3.45,0.78C495.72,210.76,497.16,211.88,497.16,214.77z"/>
		<path d="M494.02,214.02c0.2,1.63-0.97,3.09-2.58,3.27c-1.63,0.18-3.08-0.98-3.28-2.6c-0.18-1.63,0.98-3.07,2.6-3.26
			C492.38,211.24,493.84,212.4,494.02,214.02z"/>
		<path d="M494.32,207.68c2.09-0.23,4.04,0.07,5.67,0.92c-1.71-1.6-4.02-2.22-6.52-1.92c-4.55,0.51-8.01,2.95-7.21,9.93
			c0.01,0.18,0.07,0.36,0.1,0.56C485.8,210.59,489.51,208.23,494.32,207.68z"/>
		<path class="st1" d="M493.79,212.25c0.08,0.78-0.47,1.49-1.22,1.55c-0.75,0.1-1.46-0.47-1.54-1.23c-0.09-0.78,0.46-1.49,1.22-1.56
			C493.01,210.91,493.69,211.47,493.79,212.25z"/>
	</g>
	<g>
		<path class="st21" d="M467.57,216.19c0.55,4.93-1.82,7.46-6.9,7.15c-3.47-0.21-5.26-2.1-5.67-5.73c-0.56-4.93,1.8-9.26,5.26-9.65
			C463.72,207.57,466.99,211.25,467.57,216.19z"/>
		<path class="st34" d="M463.69,215.37c0.34,2.92-1.36,5.51-3.82,5.78c-2.42,0.29-4.68-1.85-5-4.77c-0.35-2.9,1.36-5.5,3.81-5.77
			C461.11,210.35,463.35,212.47,463.69,215.37z"/>
		<path d="M460.29,215.11c0.12,1.28-0.77,2.44-2.01,2.59c-1.28,0.14-2.4-0.78-2.55-2.06c-0.15-1.29,0.76-2.43,2.01-2.6
			C458.99,212.92,460.14,213.83,460.29,215.11z"/>
		<path class="st1" d="M460.35,213.99c0.1,0.77-0.43,1.48-1.19,1.55c-0.77,0.09-1.46-0.46-1.55-1.24c-0.1-0.78,0.46-1.47,1.22-1.56
			C459.58,212.65,460.26,213.22,460.35,213.99z"/>
		<path d="M460.62,209.13c2.18-0.25,4.27,0.92,5.69,2.91c-1.37-2.68-3.67-4.35-6.05-4.07c-3.46,0.4-5.82,4.72-5.26,9.65
			c0.01,0.12,0.04,0.21,0.04,0.32C454.66,213.44,457.11,209.54,460.62,209.13z"/>
	</g>
	<path class="st35" d="M466.64,197.17l0.2-0.84c0.28-1.19-0.48-2.38-1.71-2.35c-1.11,0.04-3.87,0.13-5.43,0.83
		c-3.45,1.48-3.94,4.33-3.98,5.63c1.69-0.76,6.03-0.31,8.79-0.95C465.7,199.19,466.38,198.34,466.64,197.17z"/>
	<path class="st35" d="M484.52,195.56c-0.15-1.29,0.19-2.84,1.65-3.33c1.91-0.66,4.35-0.45,6.21-0.02c4.07,0.97,5.08,3.69,5.31,4.99
		c-1.97-0.49-6.76,0.59-9.95,0.37C486.37,197.46,484.73,197.25,484.52,195.56z"/>
	<path class="st19" d="M472.83,234.63c-1.52-0.39-2.81-1.96-2.72-3.72c0.01-0.87,0.37-1.74,0.95-2.4c0.71-0.7,1.48-0.99,2.26-1.24
		c1.56-0.46,3.19-0.56,4.77-0.28c1.54,0.26,3.21,0.97,4.01,2.36c-1.17-1.06-2.68-1.36-4.11-1.45c-1.46-0.08-2.97,0.06-4.35,0.47
		c-0.67,0.2-1.36,0.53-1.77,0.89c-0.48,0.45-0.77,1.08-0.87,1.72C470.82,232.31,471.5,233.82,472.83,234.63z"/>
	<path class="st19" d="M468.96,239.97c0.89,2.84,5.98,6.14,8.91,5.8c2.93-0.33,7.81-1.83,9.98-6.28c-1.83,1.47-6.31,2.38-10.42,2.46
		C474.28,241.99,472.05,240.77,468.96,239.97z"/>
	<path class="st36" d="M459.22,177.4c0.78,3.72,11.66,20.05,21.32,20.86c-0.86-4.3-2.49-8.87-1.11-9.61c0.93,1.62,3.35,8.39,6,9.05
		c0.74-3.14,0.71-9.83,2.49-11.93c0.41,1.86,0.56,4.9,0.56,4.9s15.67-10.78,19.13-14.23c-0.26,4.03-3.94,12.1-6.33,15.24
		c3.8,1.09,10.61-5.23,12.94-7.4c-2.32,5.42-4.35,13.29-2.61,19.02c1.75,5.71,9.14,17.18,9.48,21.68
		c5.4-2.59,10.05-11.71,12.13-19.39c2.04-7.69,1.92-12.99,0.86-18.05c-1.85-8.83-7.73-19.57-14.82-23.51
		c2.61-1.25,3.68-3.28,3.68-3.28l-6.9,0.8c0,0,2.37-5.07,3.43-6.91c-0.8-0.47-4.87,2.29-6.87,4.24c-1.08-3.12-5.3-7.79-7.67-9.25
		c1.04,1.03,2.34,4.33,2.15,5.87c-4.63-1.77-20.19-4.56-30.68-2.98c-10.48,1.58-18.55,5.18-21.94,7.48c1.85,0.18,5.73,0.3,7.1,0.92
		c-5.38,2.71-12.74,9.1-15.3,18.92c-2.55,9.85,1.58,19.39,2.36,21.6C452,191.78,454.58,180.23,459.22,177.4z"/>
	<g>
		<g>
			<polygon class="st5" points="412.73,472.55 405.15,460.24 405.15,347.73 412.73,347.73 412.73,472.07 			"/>
			<g>
				<rect x="412.73" y="347.73" class="st6" width="17.68" height="124.83"/>
				<rect x="412.73" y="347.73" class="st7" width="17.68" height="8.25"/>
			</g>
			<polygon class="st7" points="412.73,355.98 405.15,347.23 412.73,347.73 			"/>
		</g>
		<g>
			<polygon class="st5" points="176.97,472.55 184.54,460.24 184.54,347.73 176.97,347.73 176.97,472.07 			"/>
			<g>
				<rect x="159.31" y="347.73" class="st6" width="17.66" height="124.83"/>
				<rect x="159.31" y="347.73" class="st7" width="17.66" height="8.25"/>
			</g>
			<polygon class="st7" points="176.97,355.98 184.54,347.23 176.97,347.73 			"/>
		</g>
		<rect x="130.43" y="332.49" class="st6" width="328.84" height="15.24"/>
		<polygon class="st37" points="459.27,332.49 130.43,332.49 198.94,293 390.76,293 		"/>
	</g>
	<g>
		<path class="st12" d="M517.76,206.71c1.57-2.16,6.85-4.26,9.17-1.25c2.32,2.98,3.46,12.92-1.55,18.74
			c-5.83,6.85-10.36,7.06-12.29,5.12C511.15,227.34,517.76,206.71,517.76,206.71z"/>
		<path class="st19" d="M524.06,212.25c-0.15-1.44-1.59-2.57-3.01-2.32c-1.4,0.14-2.81,1.03-3.39,2.59
			c-0.5,1.33-0.78,3.14,0.03,4.56c0.8,1.37,2.04,2.1,3.13,2.78l-0.24-0.45c-0.02,0.81-0.66,1.77-1.26,2.56
			c-0.63,0.8-1.33,1.6-2.16,2.22c0.94-0.43,1.79-1.05,2.58-1.8c0.71-0.78,1.52-1.54,1.77-2.95l0.03-0.27l-0.23-0.18
			c-1.09-0.75-2.13-1.5-2.68-2.53c-0.51-1.03-0.46-2.29-0.05-3.54c0.39-1.11,1.4-1.99,2.55-2.24
			C522.25,210.39,523.6,210.83,524.06,212.25z"/>
	</g>
	<polygon class="st21" points="276.72,306.95 270.59,317.33 185.77,317.33 201.51,306.95 	"/>
	<polygon class="st21" points="345.98,312.74 352.11,323.11 436.94,323.11 421.19,312.74 	"/>
	<g>
		<path class="st38" d="M254.38,326.38c0.07,0.39,0.42,0.72,0.8,0.74l42.33,2.83c0.37,0.03,0.91-0.18,1.16-0.48l9.6-10.86
			c0.26-0.29,0.44-0.84,0.38-1.22l-0.21-1.83l-54.28,8.8L254.38,326.38z"/>
		<g>
			<path class="st39" d="M254.93,324.76l41.76,2.76c0.67,0.04,1.47-0.18,1.75-0.5l9.91-11.05c0.28-0.32-0.02-0.62-0.66-0.67
				l-40.27-2.66c-0.65-0.04-1.46,0.18-1.78,0.51L254.3,324.1C253.97,324.42,254.25,324.71,254.93,324.76z"/>
			<g>
				<path class="st38" d="M262.79,319.43l36.66,2.41c0.66,0.04,1.44-0.18,1.74-0.51c0.29-0.32-0.02-0.62-0.67-0.66l-36.54-2.4
					c-0.67-0.05-1.47,0.18-1.8,0.5C261.85,319.09,262.12,319.39,262.79,319.43z"/>
			</g>
			<path class="st40" d="M296.12,317.58c-0.74,0.81-0.02,1.56,1.66,1.66c1.66,0.12,3.58-0.45,4.33-1.27c0.73-0.81,0-1.55-1.66-1.65
				C298.82,316.21,296.88,316.78,296.12,317.58z"/>
			<path class="st41" d="M286.58,316.96c-0.77,0.81-0.06,1.55,1.6,1.66c1.66,0.12,3.61-0.45,4.38-1.27
				c0.76-0.81,0.04-1.55-1.61-1.65C289.3,315.58,287.35,316.15,286.58,316.96z"/>
			<path class="st42" d="M277.02,316.32c-0.8,0.81-0.1,1.55,1.55,1.66c1.66,0.12,3.63-0.45,4.41-1.27c0.78-0.79,0.09-1.53-1.55-1.65
				C279.78,314.95,277.82,315.52,277.02,316.32z"/>
			<path class="st43" d="M267.45,315.7c-0.81,0.8-0.14,1.55,1.52,1.64c1.65,0.12,3.66-0.44,4.46-1.25c0.81-0.81,0.14-1.55-1.52-1.65
				C270.28,314.32,268.27,314.89,267.45,315.7z"/>
			<path class="st44" d="M290.16,324.03c-0.76,0.81,0,1.55,1.69,1.66c1.69,0.12,3.64-0.45,4.39-1.26c0.74-0.81-0.01-1.55-1.7-1.66
				C292.87,322.65,290.9,323.22,290.16,324.03z"/>
			<path class="st45" d="M280.41,323.39c-0.77,0.81-0.04,1.55,1.64,1.66c1.7,0.12,3.69-0.45,4.44-1.25
				c0.76-0.81,0.01-1.55-1.63-1.66C283.16,322,281.19,322.58,280.41,323.39z"/>
			<path class="st46" d="M270.67,322.76c-0.8,0.79-0.08,1.54,1.61,1.64c1.69,0.12,3.7-0.45,4.47-1.25c0.78-0.81,0.06-1.55-1.61-1.66
				C273.47,321.37,271.46,321.95,270.67,322.76z"/>
			<path class="st47" d="M260.92,322.11c-0.83,0.79-0.12,1.53,1.57,1.64c1.7,0.12,3.72-0.45,4.52-1.25c0.8-0.81,0.1-1.55-1.57-1.66
				C263.77,320.73,261.74,321.31,260.92,322.11z"/>
		</g>
	</g>
	<g>
		<path class="st48" d="M306.67,293.29l1.9,17.37c0,0.62,3.32,1.85,7.46,1.85c0.01,0,0.01,0,0.03,0c0.92,0,1.82-0.07,2.63-0.17
			c1.03-0.13,1.95-0.32,2.7-0.54c1.33-0.39,2.13-0.83,2.13-1.14l1.89-17.37l-1.75-6.3h-14.94l-0.17,0.54l-0.41,1.19L306.67,293.29z"
			/>
		<path class="st49" d="M316.2,288.72l3.25,6.09l-0.77,17.53c1.03-0.13,1.95-0.32,2.7-0.54l1.85-17.77l-1.74-6.5h-12.95l-0.41,1.19
			H316.2z"/>
		<path class="st22" d="M325.75,288.14v5.28c0,1.66-4.35,3-9.71,3c-5.36,0-9.71-1.35-9.71-3v-5.28h2.08l2.86,1.68l9.95,0.04
			l1.63-1.72H325.75z"/>
		<path class="st41" d="M306.33,288.14c0,1.66,4.35,3.01,9.71,3.01c5.37,0,9.71-1.35,9.71-3.01c0-1.66-4.35-3.01-9.71-3.01
			C310.68,285.14,306.33,286.49,306.33,288.14z M311.89,288.14c0-0.63,1.86-1.16,4.15-1.16c2.3,0,4.16,0.53,4.16,1.16
			c0,0.65-1.86,1.17-4.16,1.17C313.75,289.31,311.89,288.79,311.89,288.14z"/>
		<path class="st22" d="M319.62,288.72c-0.73-0.34-2.05-0.58-3.59-0.58c-1.55,0-2.86,0.23-3.58,0.58c-0.37-0.17-0.57-0.37-0.57-0.58
			c0-0.63,1.86-1.16,4.15-1.16c2.3,0,4.16,0.53,4.16,1.16C320.2,288.36,319.99,288.55,319.62,288.72z"/>
	</g>
	<g>
		<g>
			<polygon class="st42" points="429.72,284.01 427.75,282.32 399.91,314.63 401.89,316.32 			"/>
			<polygon class="st1" points="428.74,283.16 427.75,282.32 399.91,314.63 400.91,315.46 			"/>
			<path class="st42" d="M398.79,316.92l-0.77,1.58c-0.2,0.41-0.06,0.53,0.31,0.27l1.46-1L398.79,316.92z"/>
			<polygon class="st50" points="401.89,316.32 399.91,314.63 398.79,316.92 399.79,317.77 			"/>
		</g>
		<polygon class="st1" points="428.52,282.96 427.92,282.47 400.1,314.78 400.68,315.28 		"/>
	</g>
	<path class="st12" d="M531.67,265.9c4.24,5.78,1.47,14.11-4.18,19.88c-5.67,5.76-36.92,21.42-43.24,25.01
		c-6.3,3.59-39.98,7.37-48.59,5.47c-8.63-1.91-12.89-9.06-17.3-10.94c-4.41-1.9-8.96-0.55-12.52-3.89c-3.56-3.33-0.26-6.98,3.69-8.8
		c3.97-1.83,10.62-0.25,12.49,1.86c1.89,2.1,7.76,6.09,12.28,5.8c4.5-0.26,30.84-5.67,36.59-8.41c5.76-2.76,27.74-21.44,36.42-27.5
		C515.99,258.32,525.55,257.63,531.67,265.9z"/>
	<g>
		<g>
			<polygon class="st51" points="336.43,316.47 336.85,319.39 374.42,310.11 373.98,307.19 			"/>
			<polygon class="st1" points="336.64,317.94 336.85,319.39 374.42,310.11 374.2,308.65 			"/>
			<path class="st51" d="M376.48,308.86l1.44-0.88c0.37-0.23,0.32-0.44-0.07-0.47l-1.6-0.13L376.48,308.86z"/>
			<polygon class="st50" points="373.99,307.18 374.42,310.12 376.48,308.86 376.26,307.38 			"/>
		</g>
		<polygon class="st1" points="336.68,318.26 336.82,319.14 374.38,309.85 374.25,308.98 		"/>
	</g>
</g>
</svg>
