<?xml version="1.0" encoding="utf-8"?>
<!-- Generator: Adobe Illustrator 24.3.0, SVG Export Plug-In . SVG Version: 6.00 Build 0)  -->
<svg version="1.1" id="Слой_1" xmlns="http://www.w3.org/2000/svg" xmlns:xlink="http://www.w3.org/1999/xlink" x="0px" y="0px"
	 viewBox="0 0 600 600" style="enable-background:new 0 0 600 600;" xml:space="preserve">
<style type="text/css">
	.st0{fill:#B8B8B8;}
	.st1{fill:#E1E1E1;}
	.st2{opacity:0.4;fill:#B8B8B8;}
	.st3{fill:#FFB07F;}
	.st4{fill:#E28040;}
	.st5{fill:#353630;}
	.st6{fill:#F9F0CD;}
	.st7{fill:#EC7822;}
	.st8{fill:#4D81BB;}
	.st9{opacity:0.7;fill:#6090C5;}
	.st10{fill:#E34429;}
	.st11{opacity:0.5;fill:#E34429;}
	.st12{opacity:0.5;fill:#E28040;}
	.st13{fill:#6090C5;}
	.st14{opacity:0.4;fill:#6090C5;}
	.st15{opacity:0.5;fill:#EC7822;}
	.st16{fill:#B3F4D6;}
	.st17{fill:#50574B;}
	.st18{fill:#E68340;}
	.st19{fill:#3E2B1F;}
	.st20{fill:#FFFFFF;}
	.st21{fill:#60100E;}
	.st22{fill:#5A4331;}
	.st23{fill:#EA526E;}
	.st24{fill:#4A3926;}
	.st25{fill:#D93364;}
	.st26{fill:#EF437D;}
	.st27{fill:#582D16;}
	.st28{fill:#543E2D;}
	.st29{fill:#E4412F;}
</style>
<g>
	<g>
		<path class="st0" d="M62.45,374.4c-1.77,4.86,2,8.14,3.32,12.23c1.35-0.89,2.71-1.78,4.06-2.67c1.49,4.04,3.05,3.56,5.76,7.14
			c6.31-6.15,6.59,4.85,13.03,0.33c1.03,5.55,3.68,6.7,7.66,3.07c0.42,1.18,0.84,2.37,1.25,3.56c0.96-1.06,1.93-2.12,2.89-3.18
			c2.56,5.12,6.92,5.84,11.88,3.27c2.42,5.44,3.45,5.88,7.83,2.64c7.03,1.17,15.28,10.93,22.27,3.88c0.55,1.05,1.1,2.12,1.64,3.18
			c4.49-3.63,11.32-1.4,14.31,2.28c4.61-4.43,12.53-2.56,16.53,1.06c0.77-0.84,1.54-1.69,2.31-2.52c3.93,10.24,6.23-5.81,9.89,5.13
			c3.5-4.96,4.31-3.31,8.6-4.08c3.47,6.8,10.87,3.89,17.25,5.19c2.83,0.56,7.25-1.88,9.45-2.21c-0.17,0.03,2.36,2.72,3.99,2.74
			c1.52,0.02,2.3-3.76,5.33-3.38c3.98,0.49,4.13,1.54,8.22,1.1c2.76-0.3,1.25,3.9,3.99,4.07c3.12,0.19,4.31-3.69,5.31-3.65
			c6.44,0.33,14.29-0.53,18.55,4.57c4.41-4.51,9.95-6.17,14.56,0.36c0.71-1.59,1.42-3.18,2.13-4.76c7.26,4.08,18.57,2.51,27.03,4.72
			c2.89-6.11,12.49-0.97,18.63-1.29c5.53-0.29,14.87-7.62,18.68,0.39c0.65-1.17,1.3-2.32,1.95-3.49c0.72,0.98,1.45,1.94,2.18,2.91
			c4.67-4.88,9.86-4.8,14.52-0.35c0.9-2.16,3.01-3.4,3.87-5.23c4.56,2.61,1.51,4.77,6.22,0.39c2.83,5.22,5.66,4.47,8.23-0.85
			c4.62,4.96,14.82,2.26,19.67-0.71c8.08-4.94,14.49,8.42,19.47-3.3c3.84,5.81,8.86,4.22,12.37-1.13c0.84,1.26,1.69,2.5,2.53,3.75
			c1.96-5.48,6.3-4.66,10.34-1.04c2.31-4.85,15.91-7.4,19.05-5.81c3.65,1.83,17.66-3.78,18.71-6.23c5.12,3.22,2.35,2.91,5.95-1.51
			c1.02,1.31,2.05,2.63,3.08,3.95c0.33-1.48,0.67-2.95,1.01-4.43c3.01-0.9,5.32-0.63,9.06,1.8c3.58-7.75,14.84-1.81,15.36-11.64
			c7.04,2.23,7.82-3.64,13.38-7.43c-1.73-3.12-4.08-8.77-7.17-11.7c-4.45-4.24-8.67-2.46-9.86-8.58c-1.12,0.93-2.24,1.86-3.36,2.79
			c-5.43-7.01-14.25-1.04-18.61-10.15c-0.99,1.14-1.97,2.27-2.96,3.4c-0.41-1.27-0.82-2.54-1.23-3.81
			c-8.08,4.94-12.07-7.94-18.89-0.13c-0.39-1.71-0.79-3.43-1.18-5.15c-1.97,0.33-3,1.61-4.63,2.62c-0.53-1.04-1.06-2.06-1.59-3.08
			c-0.87,1.1-1.74,2.2-2.61,3.29c-3.6-3.83-1.42-5.28-6.11-0.81c-0.53-1.14-1.06-2.27-1.58-3.41c-0.85,1.12-1.7,2.24-2.56,3.37
			c-3.62-3.58-3.5-3.21-8.1-1.38c-3.17-4.53-3.58-4.95-8.01-2.33c-0.56-1.13-1.13-2.27-1.68-3.41c-6.95,3.68-11.96-0.86-18.83,1.43
			c-2.45-4.14-15.51-5.17-18.46-1.38c-2.06-5.92-17.72-5.49-22.62-1.96c-4.27-6.96-9.5,0.6-13.32-2.31
			c-2.44-1.87-2.92,4.33-6.19-0.38c-4.17-6.01-4.79,1.57-7.3,1.5c-7.38-0.17-22-8.6-26.9-1.1c-0.68-1.19-1.35-2.38-2.03-3.58
			c-6.24,2.09-14.25,5.12-18.77,0.67c-0.7,0.81-1.4,1.63-2.1,2.45c-2.35-2.07-16.75-0.85-20.69,1.06
			c-5.47-9.32-9.78,4.24-16.61-2.92c-5.66,2.95-16.15,2.73-22.82-0.69c-2.1,4.68-21.31,5.47-24.84,1.46
			c-1.24,1.74-2.64,3.45-3.83,5.18c-0.79-1.53-1.58-3.07-2.37-4.6c-0.59,1.59-1.17,3.19-1.76,4.79c-1.55-0.91-2.75-2.64-4.39-3.63
			c-0.61,1.12-1.22,2.25-1.84,3.37c-0.77-1.06-1.54-2.1-2.31-3.16c-2.16,3.46-20.6,4.43-22.8,1.98c-3.08,3.09-13.33,6.27-15.25,3.93
			c-3.05-3.73-12.1,3.29-15.28,2.98c-0.85-1.09-1.69-2.19-2.54-3.28c-0.48,1.56-0.96,3.12-1.45,4.67
			c-0.45,0.13-11.98-1.26-11.74-1.53c-2.1,2.31-8.56,1.68-11.3,1.64c-0.44,1.39-0.88,2.79-1.32,4.18c-0.92-1.16-1.84-2.31-2.77-3.47
			c-0.43,1.34-0.87,2.67-1.32,4.01c-6.59-5.99-15.53,6.7-23.36,4.03c-8.45-2.88-11.69,12.71-22.69,8.41
			c0.11,1.39,0.21,2.78,0.32,4.17C59.93,364.53,60.47,369.36,62.45,374.4L62.45,374.4z"/>
		<polygon class="st1" points="62.45,369.11 60.63,371.18 62.2,372.66 63.07,374.45 62.87,377.7 65.78,377.51 65.77,381.33 
			69.83,378.67 70.27,382.17 72.48,382.43 74.41,383.2 75.59,385.8 78.94,382.96 80.71,384.04 82.36,385.54 83.94,387.34 
			85.72,388.56 88.62,386.13 89.43,390.74 91.65,390.49 93.37,392.19 96.28,389.21 97.52,392.77 100.42,389.58 101.68,393.22 
			103.71,393.68 105.99,392.98 107.66,395.04 109.88,394.47 112.3,392.84 113.71,396.3 115.51,397.85 117.57,398.05 120.13,395.49 
			121.77,398.01 124.02,397.09 126.06,397.37 128.24,396.82 129.65,401.01 131.7,401.26 133.78,401.37 136.05,400.13 137.79,402.54 
			139.87,402.61 142.4,399.36 144.05,402.55 146.45,400.16 148.46,400.64 150.46,401.34 152.59,400.85 154.46,402.59 156.63,401.79 
			158.36,404.83 160.61,403.34 162.93,401.17 164.77,403.27 166.95,402.34 168.79,404.61 171.04,402.92 173.1,403.04 174.89,405.89 
			177.19,403.37 178.87,407.61 180.96,407.39 183.35,403.75 185.36,404.35 187.08,408.49 189.46,404.73 191.58,404.13 
			193.49,406.06 195.68,404.42 197.47,408.17 199.59,407.52 201.52,409.57 203.66,408.56 205.68,409.43 207.74,409.58 
			209.91,408.14 211.91,409.39 213.95,409.81 216.12,408.14 218.14,409.09 220.37,406.26 222.38,407.4 224.26,411 226.37,410.13 
			228.59,407.02 230.67,406.63 232.72,406.89 234.73,408.41 236.75,409.36 238.88,407.97 240.96,407.73 242.87,411.86 
			244.94,411.98 247.01,412.29 249.22,408.27 251.25,409.58 253.36,408.38 255.44,408.5 257.52,407.82 259.57,408.4 261.61,409.46 
			263.67,410.44 265.77,409.33 267.77,412.84 269.89,410.91 271.96,411.36 274.09,408.26 276.16,408.08 278.22,409.44 
			280.26,411.74 282.34,413.2 284.47,408.43 286.53,410.45 288.61,409.91 290.7,410.35 292.79,408.59 294.89,409.43 296.99,411.04 
			299.05,409.1 301.13,411.28 303.2,411.52 305.27,412.18 307.34,411.86 309.41,410.93 311.5,413.16 313.53,408.8 315.59,408.47 
			317.7,411.78 319.75,410.37 321.85,412.2 323.94,413.01 326,412.85 328.03,410.41 330.13,411.87 332.17,410.31 334.28,411.86 
			336.32,410.84 338.37,409.85 340.44,410.05 342.45,408.13 344.5,407.61 346.6,408.56 348.8,412.26 350.75,408.76 352.93,411.67 
			354.93,409.9 356.92,407.9 358.99,407.82 361.12,409.06 363.13,407.87 365.25,409 367.45,411.33 369.34,407.85 371.32,406.1 
			373.57,409.66 375.63,409.2 377.54,406.49 379.85,410.56 381.89,409.91 383.92,409.21 385.77,405.65 388,408.07 390.16,409.41 
			392.12,407.63 394.3,409.16 396.26,407.36 398.32,407.12 400.34,406.32 402.26,404.14 404.45,405.54 406.43,404.32 408.48,403.92 
			410.49,403.14 412.68,404.26 414.82,404.91 417.12,407.27 419.13,406.34 421.29,407.09 423.12,404.53 424.91,401.63 
			427.21,403.73 429.56,406.16 431.54,405.12 433.57,404.54 435.36,401.96 437.28,400.5 439.81,404.25 441.36,399.87 443.5,400.31 
			445.71,401.28 447.75,400.86 450.15,403.2 451.95,401.01 453.62,398.01 455.77,398.43 457.69,397.29 460.09,399.42 462.1,398.84 
			464.38,400.02 466.3,398.93 468.05,396.82 470.34,397.97 472.31,397.18 474.3,396.6 476.54,397.38 477.97,393.75 480.14,394.19 
			482.07,393.36 484.61,395.47 486.54,394.59 487.91,391.17 490.68,394.16 492.55,393.09 493.85,389.67 496.93,393.6 497.94,389.17 
			500.52,390.94 501.93,388.31 504.02,388.17 507,390.97 508.27,388.03 509.76,385.96 512.35,387.2 514.01,385.65 515.95,384.95 
			518.46,385.6 520.41,384.82 522.08,383.41 522.36,379.34 525.4,380.67 526.37,378.28 529.7,379.4 531.28,377.78 530.83,374.29 
			532.08,372.79 535.74,371.9 532.95,369.11 533.84,366.87 531.45,365.77 530.26,364.35 529.21,362.67 528.57,360.2 527.54,357.94 
			525.63,356.94 524.08,355.32 520.97,356.9 519.29,355.63 518.71,351.62 515.36,354.42 513.96,352.24 512.01,351.54 510.39,349.8 
			507.42,352.3 506,349.93 503.69,350.46 501.9,349.2 500.31,347.16 498.01,347.77 496.74,344.26 493.78,347.66 492.55,343.85 
			490.16,344.98 487.84,345.89 486.06,344.38 483.96,344.39 482.38,341.84 480.51,340.65 478.19,341.8 476.28,340.79 473.66,343.72 
			472.48,338.57 470.26,339.3 467.86,341.19 466.27,338.11 463.66,341.4 462.15,337.75 460.12,337.34 457.55,340.59 455.97,337.17 
			453.41,340.53 451.76,337.44 449.59,338.16 447.66,337.06 445.31,339.15 443.65,335.81 441.64,335.22 439.65,334.46 437.3,336.83 
			435.61,333.42 433.31,335.39 431.17,335.94 429.14,335.46 427.35,332.77 425.1,334.43 423.12,333.46 421,333.94 419.08,332.38 
			416.78,334.85 415.04,331.34 412.96,331.43 410.75,333.1 408.76,332.16 406.55,333.9 404.69,331.35 402.78,329.4 400.63,330.33 
			398.32,333.48 396.6,328.77 394.48,329.28 392.29,331.03 390.21,331.14 388.23,329.85 386.24,328.5 384.19,328.21 382,329.96 
			380.04,328.04 377.84,330.18 375.7,331.51 373.84,327.58 371.75,327.79 369.56,330.28 367.58,328.53 365.57,327.15 363.37,329.96 
			361.38,328.43 359.18,331.2 357.16,330.22 355.2,327.4 353.16,326.61 351.09,326.37 348.88,330.32 346.8,330.72 344.82,327.88 
			342.72,328.51 340.63,329.18 338.54,329.77 336.49,329.12 334.43,328.54 332.43,325.67 330.32,327.3 328.28,325.48 326.19,325.82 
			324.12,325.57 321.98,329.23 319.95,325.64 317.85,327.31 315.76,327.81 313.7,327.31 311.62,326.91 309.53,326.61 307.43,329.78 
			305.36,328.16 303.27,328.55 301.18,326.32 299.08,328.76 296.99,326.54 294.92,327.1 292.84,326.77 290.79,330.01 288.72,330.12 
			286.65,329.81 284.58,328.78 282.5,328.29 280.43,328.1 278.39,329.82 276.27,326.18 274.19,326.13 272.13,326.85 270.06,326.91 
			268.06,330.44 265.97,329.13 263.9,329.14 261.78,326.91 259.77,329.31 257.68,328.69 255.57,327.04 253.57,329.44 251.44,327.55 
			249.42,328.98 247.31,328.13 245.21,327.08 243.21,329.1 241.1,327.97 238.96,326.22 237.07,330.82 234.95,329.68 232.91,330.31 
			230.89,331.46 228.69,328.61 226.55,327.28 224.55,328.66 222.49,328.9 220.44,329.43 218.36,329.36 216.38,330.99 214.12,327.67 
			212.23,330.85 210.29,332.84 207.92,328.25 206.16,333.04 203.94,330.72 201.78,329.41 199.94,332.78 197.63,329.64 
			195.72,332.11 193.75,333.51 191.74,334.4 189.27,329.65 187.22,330.05 185.33,332.42 183.1,330.72 181.09,331.66 179.27,334.59 
			177.24,335.12 174.82,331.61 172.92,333.48 170.94,334.57 168.9,335.05 166.92,336 164.68,334.54 162.71,335.57 160.78,337.02 
			158.36,334.06 156.25,333.89 154.2,334.25 152.48,337.33 150.45,337.75 148.43,338.33 146.09,336.34 144.29,338.52 141.75,335.24 
			140.31,339.9 137.98,338.2 136.28,340.89 134.12,340.39 131.92,339.66 129.46,337.38 127.68,339.36 125.41,338.37 123.68,340.53 
			121.35,339.2 119.6,341.26 117.27,340.01 115.95,344.19 113.18,340.73 111.87,344.73 109.12,341.59 107.32,343.06 105.26,343.35 
			103.65,345.62 101.26,344.4 99.75,347.03 98.11,348.93 95.99,348.86 93.14,346.1 91.48,347.89 89.7,349.16 87.31,348.35 
			85.15,348.42 83.22,349.22 81.64,351.06 80.68,354.55 78.94,355.68 76.2,354.29 74.39,355.29 73.29,357.78 71.16,358.02 
			68.71,357.79 65.82,357.17 66.14,361.33 62.2,359.89 61.02,362.06 61.91,365.44 61.67,367.4 		"/>
		<path class="st0" d="M318.96,343.94c-0.48-1.38-1.02-2.73-1.54-4.09l-0.08-0.21l-0.27,0.02c-0.7,0.01-1.4,0.01-2.1,0.06
			l-0.17,0.01l-0.15,0.16l-2.3,2.38l0.88-0.05l-1.9-1.86h-0.01l-0.07-0.05c-0.64-0.5-1.3-0.97-1.96-1.44l-0.6-0.42l-0.5,0.6
			l-2.26,2.75l1.23-0.16l-1.99-1.54l-0.69-0.54l-0.56,0.71l-2.2,2.75l1.11-0.26l-2.03-0.97l0.36,0.31l-1.99-2.79l-0.17-0.24
			l-0.23-0.08l-2.06-0.75l-0.11-0.04l-0.08-0.01l-2.08-0.17l-0.52-0.05l-0.22,0.43l-2.05,4.07l0.38-0.28l-2.06,0.51l0.44,0.18
			l-2.18-2.68l-0.1-0.13l-0.12,0.04c-0.69,0.25-1.36,0.55-2.04,0.84c0.72-0.14,1.44-0.27,2.15-0.43l-0.22-0.08l1.78,3l0.14,0.22
			l0.31-0.05l2.1-0.28l0.23-0.03l0.15-0.26l2.39-3.85l-0.74,0.38l2.06,0.34l-0.19-0.05l2.02,0.84l-0.4-0.32l1.92,2.85l0.13,0.19
			l0.22,0.12l2.02,0.99l0.65,0.32l0.46-0.59l2.18-2.77l-1.26,0.16l2.01,1.51l0.71,0.53l0.52-0.7l2.14-2.85l-1.09,0.17
			c0.67,0.44,1.35,0.89,2.04,1.31l-0.07-0.06l2.05,1.66l0.51,0.4l0.37-0.46l2.08-2.59l-0.31,0.16c0.7-0.1,1.39-0.25,2.08-0.38
			l-0.35-0.19C317.5,341.42,318.2,342.7,318.96,343.94z"/>
		<path class="st0" d="M353.84,382.96c-0.56-0.75-1.13-1.47-1.72-2.17l-0.11-0.12l-0.19,0.06l-2.23,0.75l-0.09,0.03l-0.1,0.13
			l-2.47,3.01l1.18,0.19c-0.48-1.61-1-3.2-1.55-4.79l-0.25-0.73l-0.76,0.17l-2.12,0.47l-0.18,0.04l-0.17,0.14l-2.21,1.72l0.52-0.2
			l-2.08,0.12l0.54,0.15l-3.99-2.57l-0.19-0.12l-0.17-0.02l-2.06-0.22l-0.36-0.04l-0.23,0.2l-2.09,1.87l0.83,0.05l-2.05-1.81
			l-0.38-0.34l-0.31,0.34c-0.7,0.75-1.35,1.55-2.03,2.33l0.05-0.04c-0.68,0.5-1.35,1.02-2.01,1.57c0.77-0.35,1.53-0.71,2.27-1.09
			l0.01-0.01l0.04-0.02c0.79-0.66,1.6-1.28,2.37-1.96h-0.69l1.86,2.03l0.36,0.39l0.48-0.34l2.28-1.63l-0.59,0.16l2.05,0.35
			l-0.35-0.14c1.26,0.95,2.62,1.85,3.94,2.72l0.25,0.16l0.29-0.01l2.08-0.11l0.29-0.02l0.22-0.19l2.18-1.76l-0.34,0.16l2.1-0.55
			l-1.01-0.56c0.6,1.56,1.23,3.11,1.9,4.63l0.52,1.19l0.66-1l2.14-3.28l-0.19,0.16l2.07-1.14l-0.3-0.06
			C352.43,381.8,353.12,382.39,353.84,382.96z"/>
		<path class="st0" d="M399.29,353.24c-0.73,0.08-1.47,0.18-2.19,0.3h0.11l-1.98-0.68l0.26,0.18l-1.62-2.82l-0.32-0.55l-0.58,0.39
			l-2.33,1.53l0.77-0.07l-1.95-1.04l-0.23-0.12l-0.31,0.06l-2.14,0.42l0.75,0.17l-1.9-1.56l-0.64-0.53l-0.59,0.61
			c-0.78,0.81-1.54,1.64-2.3,2.48l1.49,0.23c-0.6-1.16-1.18-2.33-1.79-3.47l-0.29-0.53l-0.52,0.04l-2.07,0.15l-0.27,0.02l-0.17,0.13
			l-2.14,1.79l0.67-0.07l-2.04-0.81l-0.33-0.13l-0.22,0.19c-0.71,0.63-1.39,1.28-2.07,1.93l0.45,0.06c-0.7-0.8-1.38-1.59-2.12-2.34
			c0.51,0.93,1.06,1.83,1.61,2.75l0.15,0.25l0.3-0.18c0.79-0.51,1.58-1,2.34-1.54l-0.55,0.06l1.93,1.06l0.32,0.17l0.36-0.24
			l2.29-1.57l-0.44,0.16l2.08-0.03l-0.8-0.48c0.54,1.19,1.12,2.35,1.69,3.54l0.57,1.19l0.92-0.96c0.78-0.81,1.55-1.63,2.3-2.47
			l-1.23,0.1l1.93,1.52l0.35,0.27l0.39-0.09l2.11-0.54l-0.54-0.07l2.01,0.9l0.45,0.19l0.33-0.27l2.17-1.76l-0.9-0.16l1.97,2.55
			l0.13,0.16l0.13,0.02l2.06,0.28l0.08,0.02l0.04-0.02C397.91,353.79,398.6,353.52,399.29,353.24z"/>
		<path class="st0" d="M432.25,383.06c-0.98,1.01-1.91,2.04-2.85,3.07l0.53,0.08c-0.43-1.26-0.85-2.51-1.32-3.74l-0.09-0.25
			l-0.29-0.07l-2.01-0.51l-0.33-0.07l-0.26,0.29l-2.69,3.14l1.3,0.16l-1.51-3.45l-0.56-1.31l-0.89,1.13l-2.6,3.33l1.52,0.13
			l-1.63-3.1l-0.37-0.7l-0.74,0.24l-2.17,0.73l0.72,0.07l-1.94-1.09l-0.57-0.32l-0.47,0.43l-2.32,2.13l1.34,0.27l-1.73-3.3
			l-0.17-0.34l-0.31-0.07l-2.03-0.51l0.05,0.02l-2.02-0.67l-0.39-0.13l-0.24,0.27l-2.27,2.47l0.76,0.13l-1.9-3.29l-0.16-0.27
			l-0.21,0.19c-0.73,0.7-1.45,1.43-2.15,2.16c0.83-0.58,1.65-1.17,2.45-1.77l-0.36-0.08l1.47,3.52l0.25,0.6l0.51-0.46l2.45-2.26
			l-0.63,0.14l1.96,0.85l0-0.02l0.05,0.03l1.99,0.68l-0.49-0.42l1.59,3.37l0.48,1.01l0.86-0.74l2.38-2.05l-1.03,0.12l1.92,1.11
			l0.34,0.19l0.39-0.12l2.18-0.7l-1.1-0.47l1.67,3.08l0.68,1.27l0.84-1.14l2.52-3.39l-1.45-0.17l1.66,3.38l0.57,1.17l0.73-1
			l2.44-3.36l-0.59,0.22l2.04,0.33l-0.38-0.32c0.54,1.2,1.13,2.37,1.71,3.55l0.24,0.49l0.29-0.41
			C430.69,385.41,431.49,384.24,432.25,383.06z"/>
		<path class="st0" d="M487.68,363.35c-0.26-1.32-0.59-2.63-0.89-3.94l-0.09-0.37l-0.4,0.15c-0.81,0.3-1.61,0.6-2.39,0.92l-2.4,0.81
			l0.65,0.12l-1.71-1.62l-0.18-0.17l-0.31-0.01l-2.1-0.06l0.71,0.4l-1.53-2.59l-0.1-0.16l-0.19-0.13l-1.86-1.21l-0.42-0.27
			l-0.46,0.22l-2.33,1.13l0.82,0l-1.92-0.97l-0.62-0.32l-0.46,0.53c-0.87,0.98-1.73,1.97-2.57,2.98l1.45,0.4
			c-0.42-1.71-0.89-3.42-1.38-5.11l-0.21-0.74l-0.62,0.24l-2.19,0.85l-0.11,0.05l-0.05,0.05c-0.78,0.65-1.52,1.36-2.27,2.05
			l0.47,0.12c-0.61-0.98-1.21-1.96-1.86-2.92c0.41,1.09,0.86,2.16,1.31,3.23l0.13,0.33l0.33-0.22c0.85-0.56,1.71-1.1,2.53-1.7
			l-0.16,0.08l2.26-0.6l-0.83-0.5c0.31,1.75,0.62,3.49,0.98,5.22l0.33,1.58l1.12-1.17c0.91-0.95,1.79-1.91,2.66-2.89l-1.08,0.2
			l1.9,1.01l0.4,0.22l0.42-0.2l2.31-1.15l-0.88-0.05l1.88,1.18l-0.29-0.29l1.64,2.51l0.27,0.42l0.44-0.02l2.1-0.07l-0.5-0.18
			l1.86,1.42l0.33,0.26l0.32-0.15l2.37-1.08c0.76-0.4,1.51-0.83,2.25-1.27l-0.49-0.22C486.63,360.89,487.13,362.13,487.68,363.35z"
			/>
		<path class="st0" d="M245.64,382.96c0.72-0.57,1.42-1.16,2.11-1.75l-0.3,0.06l2.07,1.14l-0.19-0.16l2.15,3.28l0.66,1l0.52-1.19
			c0.67-1.52,1.29-3.07,1.9-4.63l-1.01,0.56l2.1,0.55l-0.35-0.16l2.18,1.76l0.22,0.19l0.29,0.02l2.08,0.11l0.3,0.01l0.25-0.16
			c1.32-0.87,2.67-1.78,3.94-2.72l-0.36,0.14l2.05-0.35l-0.59-0.16l2.28,1.63l0.49,0.34l0.36-0.39l1.86-2.03h-0.69
			c0.77,0.68,1.58,1.3,2.37,1.96l0.04,0.02l0.01,0.01c0.75,0.38,1.5,0.75,2.28,1.09c-0.66-0.54-1.33-1.06-2.02-1.57l0.05,0.04
			c-0.68-0.77-1.33-1.58-2.03-2.33l-0.31-0.34l-0.38,0.34l-2.06,1.81l0.84-0.05l-2.09-1.87l-0.23-0.2l-0.36,0.04l-2.06,0.22
			l-0.17,0.02l-0.18,0.12l-3.99,2.57l0.54-0.15l-2.08-0.12l0.52,0.2l-2.21-1.72l-0.17-0.14l-0.18-0.04l-2.12-0.47l-0.76-0.17
			l-0.25,0.73c-0.54,1.59-1.07,3.18-1.54,4.79l1.17-0.19l-2.47-3.01l-0.11-0.13l-0.1-0.03l-2.22-0.75l-0.2-0.06l-0.1,0.12
			C246.78,381.49,246.2,382.21,245.64,382.96z"/>
		<path class="st0" d="M200.19,353.24c0.69,0.28,1.38,0.55,2.08,0.78l0.03,0.02l0.08-0.02l2.07-0.28l0.13-0.02l0.13-0.16l1.97-2.55
			l-0.9,0.16l2.18,1.76l0.33,0.27l0.44-0.19l2.01-0.9l-0.54,0.07l2.11,0.54l0.4,0.09l0.35-0.27l1.93-1.52l-1.24-0.1
			c0.75,0.85,1.52,1.66,2.3,2.47l0.92,0.96l0.57-1.19c0.57-1.18,1.14-2.35,1.68-3.54l-0.8,0.48l2.08,0.03l-0.43-0.16l2.29,1.57
			l0.36,0.24l0.32-0.17l1.93-1.06l-0.55-0.06c0.77,0.54,1.56,1.03,2.34,1.54l0.3,0.18l0.15-0.25c0.55-0.91,1.1-1.81,1.61-2.75
			c-0.73,0.75-1.42,1.54-2.11,2.34l0.45-0.06c-0.69-0.66-1.37-1.31-2.08-1.93l-0.22-0.19l-0.33,0.13l-2.04,0.81l0.67,0.07
			l-2.14-1.79l-0.17-0.13l-0.27-0.02l-2.07-0.15l-0.52-0.04l-0.29,0.53c-0.62,1.14-1.2,2.31-1.79,3.47l1.49-0.23
			c-0.76-0.84-1.52-1.67-2.3-2.48l-0.6-0.61l-0.64,0.53l-1.9,1.56l0.74-0.17l-2.14-0.42l-0.3-0.06l-0.23,0.12l-1.95,1.04l0.78,0.07
			l-2.32-1.53l-0.58-0.39l-0.32,0.55l-1.62,2.82l0.26-0.18l-1.98,0.68h0.11C201.66,353.42,200.93,353.32,200.19,353.24z"/>
		<path class="st0" d="M167.23,383.06c0.77,1.18,1.57,2.34,2.37,3.5l0.28,0.41l0.24-0.49c0.58-1.18,1.17-2.35,1.71-3.55l-0.39,0.32
			l2.04-0.33l-0.59-0.22l2.44,3.36l0.73,1l0.57-1.17l1.65-3.38l-1.45,0.17l2.52,3.39l0.84,1.14l0.68-1.26l1.67-3.08l-1.11,0.47
			l2.18,0.7l0.38,0.12l0.34-0.19l1.93-1.11l-1.03-0.12l2.37,2.05l0.86,0.74l0.48-1.01l1.58-3.37l-0.49,0.42l1.98-0.68l0.05-0.03
			l0,0.02l1.96-0.85l-0.64-0.14l2.45,2.26l0.51,0.46l0.26-0.6l1.47-3.52l-0.37,0.08c0.81,0.6,1.63,1.19,2.45,1.77
			c-0.71-0.74-1.42-1.47-2.15-2.16l-0.2-0.19l-0.16,0.27l-1.9,3.29l0.76-0.13l-2.26-2.47l-0.24-0.27l-0.39,0.13l-2.03,0.67
			l0.05-0.02l-2.03,0.51l-0.31,0.07l-0.18,0.34l-1.72,3.3l1.33-0.27l-2.31-2.13l-0.47-0.43l-0.56,0.32l-1.94,1.09l0.72-0.07
			l-2.18-0.73l-0.73-0.24l-0.37,0.7l-1.62,3.1l1.52-0.13l-2.6-3.33l-0.89-1.13l-0.57,1.31l-1.5,3.45l1.3-0.16l-2.7-3.14l-0.26-0.29
			l-0.33,0.07l-2.01,0.51l-0.29,0.07l-0.1,0.25c-0.47,1.23-0.89,2.48-1.31,3.74l0.52-0.08C169.14,385.11,168.2,384.07,167.23,383.06
			z"/>
		<path class="st0" d="M111.8,363.35c0.56-1.22,1.05-2.45,1.57-3.69l-0.48,0.23c0.74,0.43,1.48,0.86,2.25,1.26l2.36,1.08l0.32,0.15
			l0.34-0.26l1.86-1.42l-0.49,0.18l2.09,0.07l0.44,0.02l0.27-0.42l1.64-2.51l-0.29,0.29l1.87-1.18l-0.87,0.05l2.32,1.15l0.41,0.2
			l0.4-0.22l1.9-1.01l-1.08-0.2c0.88,0.98,1.76,1.94,2.66,2.89l1.12,1.17l0.34-1.58c0.36-1.73,0.67-3.47,0.97-5.22l-0.82,0.5
			l2.26,0.6l-0.16-0.08c0.82,0.6,1.68,1.14,2.53,1.7l0.34,0.22l0.13-0.33c0.45-1.07,0.9-2.14,1.31-3.23
			c-0.65,0.96-1.26,1.93-1.86,2.92l0.47-0.12c-0.75-0.7-1.5-1.4-2.28-2.05l-0.05-0.05l-0.11-0.05l-2.19-0.85l-0.61-0.24l-0.21,0.74
			c-0.48,1.69-0.95,3.39-1.38,5.11l1.45-0.4c-0.84-1.01-1.69-2.01-2.57-2.98l-0.46-0.53l-0.62,0.32l-1.92,0.97l0.82,0l-2.33-1.13
			l-0.46-0.22l-0.42,0.27l-1.86,1.21l-0.18,0.13l-0.1,0.16l-1.53,2.59l0.71-0.4l-2.1,0.06l-0.31,0.01l-0.18,0.17l-1.72,1.62
			l0.65-0.11l-2.4-0.81c-0.79-0.33-1.59-0.63-2.39-0.92l-0.4-0.15l-0.09,0.37C112.39,360.72,112.06,362.02,111.8,363.35z"/>
	</g>
	<path class="st2" d="M251.26,372.48c1.65,6.78-3.78,10.03-9.84,10.83c-8.13,1.07-12.89-1-20.93-2.68c-2.88-0.6-11.3-2.76-12.9-5.92
		c-2.07-4.07,1.91-5.83-2.06-9.27c-3.49-3.03-14.35,5.03-18.46,5.93c-4.82,1.06-10.07,0.85-15.09,0.72
		c-5.92-0.16-23.49-0.33-24.04-13.73c-0.92-22.27,67.21-10.01,78.67-10.01c2.61,0,7.96-0.5,10.05,1.52c2.63,2.55,2.3,9,1.09,11.81
		c5.09,3.12,10.96,3.3,13.13,9.57C251.04,371.67,251.16,372.08,251.26,372.48z"/>
	<path class="st2" d="M396.8,364.28c17.87,2.6,39.32-6.93,56.09,1.37c12.63,6.25,9.15,18.88-0.56,26.58
		c-9.6,7.61-18.59,9.22-30.5,9.16c-5.85-0.03-11.21-0.98-16.74-2.45c-4.48-1.18-9.54-1.94-14.22-3.06
		c-9.15-2.2-17.55-4.03-26.94-5.26c-20.08-2.63-38.89,2.4-59.08,1.71c-8.57-0.29-15.03-0.82-19.85-9.05
		c-3.82-6.51,0.58-11.77,5.12-16.72c5.45-5.94,17.35-10.03,25.1-10.81c4.15-0.42,8.46-0.1,12.64-0.1c11.68,0,25.38-2.37,36.8-0.02
		C375.17,357.79,385.8,362.67,396.8,364.28z"/>
	<g>
		<g>
			<path class="st3" d="M397.34,279.21c-1.98,5.49-13.95,13.61-18.19,13.61c-4.24,0-21.25-18.81-27.07-29.16
				c-5.83-10.36-11.56-24.49-13.8-27.1c-2.24-2.62-2.74-15.97-1.25-20.68c1.5-4.71,4.74-12.3,3.74-13.61
				c-0.99-1.31-4.2-5.5-4.59-6.28c-0.39-0.79,0.6-3.66,2.35-2.36c1.74,1.32,4.24,4.58,4.24,4.58s-3.2-5.75-3.74-6.66
				c-1.08-1.84,0.17-4.11,2.66-1.49c-1.83-3.06,0.42-5.06,4.37-1.05c-0.35-2.35,0.67-4.01,2.68-2.71c2,1.31,5.49,7.59,6.24,9.95
				c0.75,2.36,1.5,3.67,1,8.37c-0.51,4.71,1.49,12.83,0.75,16.75c-0.75,3.93-5.98,6.28-4.99,11.26c1,4.97,6.23,13.09,14.21,20.15
				c7.98,7.07,25.67,13.35,25.67,13.35L397.34,279.21z"/>
			<path class="st4" d="M346.05,189.01c1.01,1.13,1.99,2.28,2.89,3.51c0.46,0.61,0.87,1.26,1.23,1.97c0.18,0.36,0.33,0.73,0.44,1.15
				c0.11,0.43,0.13,0.79,0.18,1.19c0.14,1.55,0.19,3.1,0.14,4.64c-0.08,1.54-0.04,3.14-0.63,4.59c0.19-0.74,0.15-1.52,0.14-2.28
				c0-0.77-0.03-1.53-0.08-2.31c-0.09-1.52-0.16-3.06-0.32-4.57c-0.02-1.5-0.82-2.74-1.59-4.04
				C347.68,191.58,346.81,190.34,346.05,189.01z"/>
			<path class="st4" d="M341.41,189.54c1.09,1.12,2.04,2.36,2.99,3.6c0.48,0.61,0.93,1.26,1.39,1.89c0.23,0.34,0.45,0.61,0.67,1.01
				c0.21,0.49,0.26,0.87,0.33,1.29c0.2,1.62,0.17,3.22,0.07,4.81c-0.1,1.6-0.25,3.19-0.55,4.75l-0.02-4.75
				c-0.04-1.58-0.04-3.18-0.23-4.7c-0.04-0.36-0.13-0.78-0.23-1.01c-0.15-0.29-0.41-0.64-0.61-0.96l-1.27-1.96L341.41,189.54z"/>
			<path class="st4" d="M342.76,198.21c0.59,0.67,0.94,1.54,1.16,2.41c0.23,0.88,0.32,1.79,0.34,2.69c0.01,1.8-0.34,3.62-1.08,5.23
				c0.17-1.78,0.36-3.49,0.33-5.22c0-0.86-0.06-1.73-0.16-2.58C343.22,199.89,343.09,199.04,342.76,198.21z"/>
			<path class="st4" d="M356.12,202.36c-0.91-0.43-2.01-0.48-2.82,0.04c-0.83,0.5-1.24,1.49-1.39,2.48
				c-0.34,2.05-0.3,4.16-0.37,6.29c-0.07,1.07-0.05,2.15-0.47,3.28c-0.05,0.13-0.14,0.28-0.21,0.39c-0.1,0.14-0.2,0.25-0.3,0.36
				c-0.2,0.2-0.41,0.38-0.63,0.53c-0.43,0.33-0.88,0.59-1.32,0.84c-0.89,0.5-1.79,0.99-2.62,1.57c-0.84,0.56-1.63,1.24-2.11,2.18
				c0.34-1.02,1.12-1.81,1.9-2.49c0.81-0.67,1.69-1.22,2.54-1.78c0.42-0.28,0.84-0.57,1.23-0.87c0.19-0.15,0.38-0.32,0.54-0.48
				c0.07-0.1,0.14-0.18,0.19-0.25c0.07-0.12,0.11-0.19,0.15-0.29c0.31-0.88,0.33-1.98,0.37-3.01c0.09-2.11,0.06-4.27,0.56-6.39
				c0.23-1.06,0.77-2.19,1.78-2.7C354.13,201.59,355.29,201.78,356.12,202.36z"/>
		</g>
		<path class="st5" d="M290.68,376.56c-1.26-6.28,4.04-12.05,10.7-14.75c6.67-2.7,15.21-3.1,22.43-1.11
			c7.23,2,24.09,12.08,24.09,12.08L290.68,376.56z"/>
		<path class="st6" d="M310.17,361.87c-6.3,0.38-16.27,5.01-18.27,9.46c-1.99,4.45-1.99,10.47,3.24,13.35
			c5.24,2.87,13.21,2.09,21.94,0c8.72-2.1,22.68-1.58,25.67-1.58c2.99,0,7.21-7.81,5.15-10.33
			C344,368.01,323.7,361.04,310.17,361.87z"/>
		<path class="st7" d="M238.7,270.01c-9.75-1.1-21.51-3.35-24.57-3.86c-4.98-0.81-9.71-2.39-9.71-2.39l6.98-16.22
			c4.56,0.82,19.02,5.13,27.28,7.11C239.1,258.88,239.09,265.01,238.7,270.01z"/>
		<path class="st3" d="M281.69,215.86c-0.41,7.29-0.82,10.37-2.04,12.68c-0.28,0.53-0.59,1-0.96,1.48
			c-1.99,2.61-4.77,4.76-6.62,9.31c-1.86,4.55-15.07,28.36-20.05,30.72c-1.91,0.91-7.24,0.66-13.33-0.04
			c0.39-5,0.4-11.13-0.02-15.35c2.13,0.53,3.85,0.89,4.88,1c4.98-4.97,19.44-18.32,21.68-21.2c2.24-2.88-0.75-4.19-1.25-7.85
			c-0.5-3.66,0.25-9.16,0.25-10.47c0-1.3,2.24-1.83,2.49,0c0.25,1.83,0,4.19,0,4.19s2.56-13.2,3.93-16.36
			c0.11-0.28,0.21-0.47,0.31-0.58c1.23-1.46,2.95-5.16,5.6-4.24C279.24,200.04,282.19,206.95,281.69,215.86z"/>
		<path class="st8" d="M396.7,323.69c-8.82-6.53-44.47-30.61-53.94-35.06c-9.47-4.45-27.42-15.97-38.14-6.02
			c-10.72,9.94-6.23,17.79-5.23,24.86c1,7.07,9.72,41.61,13.46,52.61c14.7,7.06,23.24,8.11,23.24,8.11s-1.8-42.92-1.31-46.06
			c1,3.14,33.16,36.11,33.16,36.11l35.4-2.35L396.7,323.69z"/>
		<path class="st9" d="M334.78,322.13c-0.35-2.88-1.3-5.61-2.78-7.91c-0.75-1.14-1.62-2.19-2.64-3.05c-0.51-0.43-1.03-0.85-1.59-1.2
			c-0.55-0.37-1.15-0.68-1.78-1.07c-2.42-1.54-4.6-3.45-6.5-5.59c-1.91-2.14-3.6-4.49-4.9-7.07c1.8,2.2,3.71,4.27,5.72,6.19
			c2.02,1.91,4.15,3.67,6.46,5.12c0.55,0.36,1.18,0.69,1.79,1.11c0.61,0.41,1.19,0.87,1.73,1.39c1.07,1.02,2.01,2.21,2.7,3.53
			C334.4,316.2,335.05,319.22,334.78,322.13z"/>
		<path class="st3" d="M425.76,191.54c-4.73,6.8-27.92,23.81-45.61,26.95c1-5.23,3.74-23.03,1.99-25.91
			c-0.59-0.96-1.74-2.87-3.15-5.12c-2.27-3.63-5.26-8.17-7.78-11.14c-0.58-0.7-1.13-1.31-1.65-1.81l-3.62-9.42l23.68-13.6
			c0,0,8.64,5.54,11.3,13.49C403.58,172.92,418.29,187.61,425.76,191.54z"/>
		<path class="st10" d="M411.13,185c-1.32,5.23-24.46,25.23-29.96,27.4c-2.51,5.31-3.62,12.64-5.44,14.74
			c-1.81,2.09-11.29,12.04-11.28,21.19c0.01,17.54,9.72,21.21,14.71,28.53c4.99,5.5,14.46,20.16,16.7,30.88
			c2.24,10.73,0,24.07,0,24.07s47.61,6.03,60.57,0c-0.5-3.92-13.21-22.5-15.21-34.27c-1.99-11.78-4.14-55.09-4.06-66.94
			C437.23,218.76,426.16,189.71,411.13,185z"/>
		<path class="st11" d="M441.22,297.53c-1.99-11.78-4.14-55.09-4.06-66.94c0.05-6.79-3.59-19.25-9.54-29.53
			c3.4,8.26,5.36,16.57,5.33,21.73c-0.08,12.21,4.47,65.15,6.46,77.29c1.99,12.14,12.25,23.02,8.38,23.36
			c-35.86,3.22-51.93,8.37-51.93,8.37s47.61,6.03,60.57,0C455.92,327.89,443.21,309.3,441.22,297.53z"/>
		<path class="st10" d="M411.56,243.62c-7.23,3.14-25.18,25.39-30.41,29.31c-4.06,3.05-15.9,12.06-22.88,17.31
			c-5.77-5.97-7.78-15.33-9.38-21.86c5.34-6.36,24.92-27.72,28.77-33.92c4.24-6.81,10.57-22.51,18.2-25.92
			c8.23-3.66,16.73-0.48,20.94,5.24C423.52,222.94,418.79,240.47,411.56,243.62z"/>
		<path class="st11" d="M376.99,238.27c1.14-2.03,9.77-12.98,9.77-20.15c-0.95,1.8-8.3,15.04-9.1,16.34
			c-3.86,6.19-23.43,27.56-28.77,33.92c0.35,1.45,0.74,3.05,1.17,4.71C355.54,266,373.48,244.51,376.99,238.27z"/>
		<path class="st11" d="M412.99,238.83c-7.74,3.29-26.94,26.62-32.54,30.74c-4.32,3.17-16.85,12.52-24.34,18.04
			c0.66,0.92,1.37,1.81,2.16,2.62c6.98-5.25,18.82-14.26,22.88-17.31c5.24-3.92,23.18-26.17,30.41-29.31
			c3.39-1.47,6.22-6.09,7.59-11.53C417.55,235.31,415.4,237.81,412.99,238.83z"/>
		<path class="st12" d="M281.69,215.86c-0.41,7.29-0.82,10.37-2.04,12.68c-1.95-2.51-3.59-4.94-4.45-6.64
			c-2.24-4.44-3.24-13.35-4.44-17.54c-0.04-0.13-0.08-0.27-0.11-0.4c0.11-0.28,0.21-0.47,0.31-0.58c1.23-1.46,2.95-5.16,5.6-4.24
			C279.24,200.04,282.19,206.95,281.69,215.86z"/>
		<path class="st3" d="M358.26,290.23c-2.03,1.53-3.64,2.72-4.54,3.37c-3.99,2.88-9.22,3.41-11.22,1.57
			c-1.99-1.82-16.95-12.3-22.18-18.58c-5.23-6.28-22.68-29.83-28.67-38.2c-4.49-2.36-12.21-12.04-14.46-16.5
			c-2.24-4.44-3.24-13.35-4.43-17.54c-1.2-4.19-0.8-5.75,0.95-5.23c-2.25-6.28,0-9.42,1.49-8.64c0-3.4,2.5-3.92,4.24-2.1
			c0.75-1.57,3.24,1.83,4.49,3.15c1.24,1.31,12.63,21.45,12.63,21.45s-1.25-10.64,4.4-12.04c3.65-0.89,1.58,2.42,0.84,7.07
			c-0.45,2.79,1.08,23.03,1.08,23.03s12.22,13.87,16.7,19.11c4.49,5.23,24.68,17.01,28.16,19.63c0.22-0.3,0.62-0.78,1.15-1.41
			C350.49,274.91,352.49,284.27,358.26,290.23z"/>
		<path class="st4" d="M279.45,188.4c0.89,1.57,1.7,3.17,2.5,4.78c0.81,1.6,1.57,3.24,2.32,4.86c0.74,1.64,1.48,3.28,2.16,4.95
			c0.7,1.66,1.38,3.33,1.99,5.03c-0.89-1.56-1.7-3.17-2.5-4.78c-0.81-1.6-1.57-3.23-2.32-4.86c-0.74-1.65-1.48-3.29-2.16-4.95
			C280.74,191.77,280.05,190.1,279.45,188.4z"/>
		<path class="st4" d="M275.21,190.49c0.87,1.65,1.67,3.35,2.44,5.04c0.79,1.7,1.52,3.41,2.26,5.13c0.72,1.73,1.44,3.45,2.1,5.21
			c0.67,1.75,1.33,3.5,1.92,5.3c-0.87-1.66-1.66-3.35-2.44-5.05c-0.79-1.69-1.52-3.41-2.26-5.13c-0.72-1.73-1.43-3.46-2.1-5.21
			C276.46,194.03,275.8,192.28,275.21,190.49z"/>
		<path class="st4" d="M273.72,199.13c1.22,2.19,2.24,4.47,3.21,6.78c0.95,2.32,1.84,4.65,2.52,7.09c-1.22-2.19-2.24-4.46-3.21-6.78
			C275.29,203.89,274.4,201.56,273.72,199.13z"/>
		<path class="st13" d="M456.42,331.81c4.24,8.38,5.49,32.72,0,44.23c-5.48,11.52-18.45,17.54-30.66,17.54
			c-12.21,0-45.11-6.8-55.59-8.64c-10.47-1.83-48.1-12.82-53.34-16.75c-5.23-3.92-14.21-13.09-13.46-23.81
			c0.75-10.73,14.46-15.7,21.19-16.49c6.73-0.79,42.87,6.28,53.84,9.42c10.97,3.15,15.7,3.67,15.7,3.67l1.74-9.17
			C395.85,331.81,434.82,327.82,456.42,331.81z"/>
		<path class="st14" d="M458.8,339.66c0.25,10.98-1.68,24.71-5.24,32.2c-5.48,11.51-18.45,17.54-30.66,17.54
			c-12.21,0-45.11-6.81-55.58-8.64c-10.47-1.83-47.28-10.73-52.52-14.66c-1.1-0.82-2.35-1.87-3.65-3.12
			c1.98,2.19,4.03,3.97,5.69,5.22c5.23,3.93,42.87,14.91,53.34,16.75c10.47,1.83,43.38,8.64,55.59,8.64
			c12.21,0,25.18-6.02,30.66-17.54C460.66,367.14,460.88,350.59,458.8,339.66z"/>
		<path class="st9" d="M394.11,340.97c3.21,0.16,6.36,0.99,9.43,1.88c3.09,0.9,6.12,1.99,9.11,3.16c2.98,1.21,5.94,2.51,8.81,3.99
			c2.88,1.47,5.71,3.1,8.28,5.11c-2.87-1.48-5.82-2.72-8.75-3.99c-2.95-1.24-5.9-2.46-8.88-3.63c-2.96-1.2-5.94-2.35-8.93-3.48
			c-1.5-0.56-2.99-1.11-4.5-1.63C397.19,341.83,395.67,341.35,394.11,340.97z"/>
		<path class="st7" d="M211.4,247.55v13.87c0,0-2.25,19.36-3.99,31.4c-1.75,12.04-6.98,31.67-6.98,31.67s-37.89,13.2-47.86,10.01
			c3.99-8.7,6.48-22.57,6.48-32.26c0-9.69-1.99-29.83,0-36.89c1.81-6.43,6.7-9.82,10.01-12.35c4.45,2.4,12.42,9.72,19.15,8.42
			c6.73-1.31,13.02-9.95,12.25-15.97c1.15-0.54,2.25-0.86,3.21-0.79C207.16,244.92,211.4,247.55,211.4,247.55z"/>
		<path class="st3" d="M188.21,261.41c-6.73,1.31-14.71-6.02-19.15-8.42c0.34-0.25,0.66-0.5,0.96-0.75
			c3.24-2.61,6.73-5.2,5.48-10.45l9.22-7.34l10.72,4.87c0,0-0.66,0.84-1.46,2.11c-1.15,1.79-2.63,4.41-2.95,6.57
			c-0.12,0.8-0.09,1.53,0.18,2.15c2.7-0.57,6.2-3.34,9.25-4.71C201.24,251.46,194.95,260.11,188.21,261.41z"/>
		<path class="st7" d="M181.96,298.37c-3.34,3.56-8.64,6.47-12.36,7.5c-3.91-12.02-8.37-29.01-9.05-32.41
			c-0.99-4.97,1.13-9.77,3.74-11.89c4.23-3.42,10.47-2.25,12.46,3.78C178.68,271.18,181.56,292.78,181.96,298.37z"/>
		<path class="st15" d="M180.41,299.84c0.16-0.14,0.31-0.28,0.48-0.42c0.38-0.35,0.74-0.7,1.08-1.06
			c-0.4-5.59-3.27-27.19-5.21-33.02c-0.31-0.94-0.73-1.75-1.23-2.45c1.8,7.66,4.21,28.31,4.8,35.89c-2.47,0.91-7.13,2.61-9.2,0.45
			c-1.69-1.76-11.27-29.25-10.58-25.77c0.68,3.39,5.14,20.38,9.05,32.41C172.79,304.98,177.13,302.71,180.41,299.84L180.41,299.84
			C180.41,299.85,180.41,299.84,180.41,299.84z"/>
		<path class="st3" d="M222.36,254.87c-0.75,2.62-1.74,6.14-2.86,8.63c-1.12,2.5-0.57,7.12-1.75,10.21
			c-1.23,3.19-4.86,3.67-6.73,7.73c-1.89,4.1-23.05,35.71-26.9,38.32c-3.87,2.63-6.24,2.76-9.85-2.22
			c-1.15-1.58-2.84-6.09-4.67-11.69c3.73-1.02,9.03-3.94,12.36-7.5c0.01,0.16,0.02,0.33,0.03,0.47
			c4.49-4.19,19.94-18.06,22.44-23.81c2.49-5.76,0-17.87,0-19.63c0-4.32,1.56-4.8,2.97-1.63c1.31,2.96,0.84,5.64,0.78,5.95
			c0.29-0.7,4.88-11.83,5.85-13.35c1-1.57,2.99-1.05,2.61,1.18c1.5-2.88,4.11-3.66,2.74,1.19c1.37-0.52,2.24,0.78,1.12,3.53
			C221.5,251.21,223.11,252.25,222.36,254.87z"/>
		<path class="st4" d="M220.49,252.25c-0.74,1.72-1.47,3.44-2.16,5.16c-0.36,0.86-0.68,1.73-0.99,2.61
			c-0.31,0.87-0.59,1.77-0.71,2.7c-0.09-0.95,0.11-1.91,0.34-2.82c0.23-0.92,0.55-1.82,0.89-2.69c0.36-0.87,0.74-1.73,1.18-2.56
			C219.49,253.83,219.94,253.01,220.49,252.25z"/>
		<path class="st4" d="M219.38,248.72c-0.5,0.78-0.84,1.63-1.21,2.47l-1.04,2.55c-0.36,0.85-0.69,1.71-1.07,2.55
			c-0.37,0.85-0.74,1.7-1.18,2.51c0.5-1.8,1.09-3.55,1.79-5.27c0.35-0.85,0.72-1.7,1.15-2.52
			C218.27,250.2,218.71,249.36,219.38,248.72z"/>
		<path class="st4" d="M216.63,247.53c-0.29,0.87-0.65,1.71-1.02,2.55c-0.36,0.83-0.76,1.65-1.16,2.47
			c-0.79,1.64-1.62,3.24-2.31,4.93c0.15-0.92,0.45-1.79,0.77-2.66c0.32-0.86,0.71-1.69,1.1-2.51
			C214.82,250.68,215.7,249.1,216.63,247.53z"/>
		<path class="st16" d="M200.43,324.49c4.99-2.75,16.2-9.42,24.55-11.9c8.35-2.49,25.92-6.68,28.92-4.07
			c2.99,2.63,7.35,7.98,5.73,13.62c-1.62,5.62-6.73,14.78-9.22,18.06c-1-2.62-5.74-14.14-16.7-8.51
			c-1.62,5.24-4.49,10.86-4.49,10.86s-23.8,9.03-30.9,9.95c-7.1,0.91-11.6-7.85-11.22-13.88c0.37-6.02,0.97-10.16,0.97-10.16
			L200.43,324.49z"/>
		<path class="st3" d="M250.41,340.19c0,0-13.72,17.71-14.72,19.26c-0.9,1.38-3.79,3.11-2.58,4.29c-4.65-1.3-12.99-0.91-19.59,0
			c2.86-1.05,6.22-3.66,8.34-6.41c2.12-2.74,7.35-14.78,7.35-14.78l4.49-10.87c0,0,5.79-3.13,10.63,0
			C249.16,334.81,249.78,338.75,250.41,340.19z"/>
		<path class="st17" d="M246.05,377.61c-1.99,2.22-6.86,3.79-9.59,2.62c-2.75-1.17-10.77-4.58-12.92-4.44
			c-2.16,0.14-9.51-0.26-11.14-0.53c-1.63-0.26-3.49-2.09-3.74-5.23c-0.25-3.14,1.99-5.23,4.86-6.28c6.6-0.91,14.95-1.3,19.59,0
			c0.14,0.14,0.33,0.27,0.59,0.39c2.49,1.18,8.85,0.69,11.59,3.88C248.04,371.2,248.04,375.39,246.05,377.61z"/>
		<path class="st16" d="M233.71,331.68c0.44-1.13,1.05-2.18,1.68-3.18c0.63-1.02,1.32-1.99,2.03-2.93c0.73-0.94,1.48-1.86,2.28-2.73
			c0.8-0.87,1.65-1.71,2.6-2.41c-1.31,2.01-2.68,3.91-4.11,5.79C236.76,328.09,235.29,329.9,233.71,331.68z"/>
		<path class="st16" d="M152.57,334.49c-2.37,3.87-5.63,13.78-3.24,20.98c3.24,9.71,11.47,12.72,18.45,12.72
			c11.71,0.02,21.68-3.27,25.17-4.45c3.49-1.18,12.96-7.27,14.71-12.4c1.75,5.34,6.98,10.46,8.29,11.21
			c1.31,0.76,9.32-8.86,10.3-13.45c0.1-3.93,0.73-11.32-0.52-14.11c-1.25-2.78-5.61-9.06-12.21-8.28
			c-6.61,0.79-26.01,6.64-26.01,6.64l0.55-4.89C188.06,328.45,161.67,334.68,152.57,334.49z"/>
		<path class="st16" d="M225.73,334.99c-1.25-2.78-5.61-9.06-12.21-8.28c-6.61,0.79-26.01,6.64-26.01,6.64s16.8-3.92,23.16-4.68
			c6.36-0.76,10.56,5.32,11.76,8.01c1.2,2.7,2.84,17.02,3.82,12.42C226.35,345.16,226.98,337.77,225.73,334.99z"/>
		<path class="st16" d="M196.74,360.53c-3.49,1.18-13.45,4.47-25.17,4.45c-6.98-0.01-15.2-3.01-18.44-12.73
			c-1.9-5.68,0.11-17.74-0.55-17.76c-2.37,3.87-5.63,13.78-3.24,20.98c3.24,9.71,11.47,12.72,18.45,12.72
			c11.71,0.02,21.68-3.27,25.17-4.45c2.41-0.81,7.68-3.97,11.28-7.53C201.36,358.33,198.39,359.98,196.74,360.53z"/>
		<path class="st16" d="M167.15,339.53c3.18-1.67,6.49-3.02,9.88-4.18c1.69-0.56,3.41-1.07,5.16-1.45c1.74-0.37,3.54-0.66,5.32-0.56
			c-1.75,0.31-3.44,0.86-5.13,1.36c-1.69,0.53-3.37,1.08-5.05,1.65C173.97,337.46,170.61,338.62,167.15,339.53z"/>
		<path class="st4" d="M354.65,163.34c0.1-0.13,0.21-0.07,0.31-0.06c0.08,0.01,0.19,0.05,0.26,0.1c0.18,0.07,0.4,0.15,0.6,0.31
			c0.41,0.31,0.73,0.79,1.01,1.29l0.08-0.04c-0.15-0.57-0.33-1.13-0.74-1.63c-0.19-0.25-0.44-0.52-0.8-0.57
			c-0.18-0.03-0.37,0-0.54,0.09c-0.17,0.08-0.33,0.32-0.25,0.51H354.65z"/>
		<path class="st12" d="M193.98,241.44c-1.15,1.79-2.63,4.41-2.95,6.57c-4.77-0.03-8.4-8.05-8.4-8.05L193.98,241.44z"/>
		<path class="st12" d="M393.03,169.63c-0.41,3.28-9.72,11.25-14.04,17.84c-2.27-3.63-5.26-8.17-7.78-11.14l1.13-7.74
			C372.34,168.59,393.62,165.02,393.03,169.63z"/>
		<g>
			<path class="st3" d="M165.96,235.28c2.42,1.71,8.29,6.73,10.36,8.49c0.2-0.26,0.49-0.63,0.84-1.09c0-0.06,0.05-0.06,0.05-0.11
				c0.1-0.16,0.2-0.26,0.3-0.41c0.1-0.1,0.2-0.26,0.24-0.42c0.2-0.26,0.4-0.57,0.59-0.83c0.05-0.1,0.1-0.15,0.15-0.26
				c0.1-0.1,0.15-0.26,0.25-0.36c0.15-0.21,0.24-0.42,0.35-0.57c0.1-0.11,0.15-0.21,0.2-0.32c0.3-0.41,0.44-0.67,0.44-0.67
				c1.92,0.52,12.82,6.12,14.99,6.95c2.17,0.82,5.23,0.26,7.79-0.68c2.52-0.88,3.46-4.35,3.7-5.18c0-0.05,0.05-0.15,0.1-0.21
				c0-0.05,0.05-0.1,0.1-0.15c0.4-0.42,1.13-0.26,1.33-0.47c0.2-0.16-0.05-0.62-0.25-1.04c0-0.05,0-0.05,0-0.1
				c-0.15-0.31-0.3-0.57-0.3-0.73c0.34-0.36,1.48-0.32,1.38-0.83v-0.05c-0.15-0.36-0.3-0.72-0.44-1.09
				c-0.25-0.46-0.4-0.88-0.44-1.09c-0.1-0.41,1.43-1.4,2.17-2.54c0.69-1.19,0.2-2.95-0.49-3.37c-0.64-0.42-3.4-1.29-4.19-2.74
				c-0.79-1.45,0.05-5.64,0.1-9.79c0.05-2.13-0.25-5.6-1.09-9.01c0,0,0,0,0-0.05c-0.89-3.37-2.27-6.68-4.54-8.6
				c-3.75-3.16-14.2-7.14-22.93-5.54C171.54,193.38,158.47,229.84,165.96,235.28z"/>
			<path class="st18" d="M206.11,230.66c-0.17,0.34-0.32,0.69-0.4,1.07c-0.05,0.19-0.07,0.39-0.07,0.59c0.01,0.2,0.06,0.44,0.23,0.6
				c0.09,0.08,0.19,0.14,0.29,0.16c0.1,0.02,0.22,0.04,0.34-0.01c0.11-0.05,0.19-0.13,0.25-0.19c0.07-0.07,0.12-0.14,0.19-0.2
				c0.12-0.11,0.28-0.19,0.45-0.24c0.16-0.05,0.35-0.04,0.47,0.11c-0.07-0.19-0.3-0.25-0.49-0.24c-0.19,0.01-0.38,0.09-0.54,0.21
				c-0.16,0.11-0.29,0.28-0.41,0.32c-0.11,0.03-0.29-0.03-0.38-0.12c-0.1-0.09-0.15-0.26-0.16-0.43c-0.02-0.17,0-0.36,0.02-0.54
				C205.95,231.4,206.03,231.02,206.11,230.66z"/>
			<path class="st19" d="M203.43,212.07c0.38-0.08,0.3-0.96-0.16-1.15c-0.46-0.19-1.27,0.09-2.29,0.93
				c-0.78,0.64-1.52,2.06-1.65,3.39C200.38,214.24,202.41,212.3,203.43,212.07z"/>
			<path class="st20" d="M198.94,222.95c0.02,0.13,0.04,0.26,0.06,0.38c0.37,2.15,1.34,3.72,2.24,3.59c0.31-0.04,0.58-0.3,0.79-0.69
				c0.14-0.28,0.25-0.63,0.33-1.03c0.15-0.77,0.17-1.74,0.03-2.77c-0.06-0.4-0.14-0.79-0.23-1.17c-0.09-0.35-0.2-0.7-0.32-1
				c-0.1-0.24-0.2-0.45-0.3-0.65c-0.19-0.35-0.4-0.63-0.62-0.84c-0.08,0.04-0.15,0.07-0.22,0.11c-0.7,0.37-1.9,2.03-1.77,3.9
				C198.92,222.84,198.93,222.89,198.94,222.95z"/>
			<path class="st21" d="M200.75,223.35c0.21,1.48,0.75,2.66,1.28,2.88c0.41-0.82,0.57-2.24,0.35-3.8c-0.11-0.8-0.31-1.55-0.55-2.17
				c-0.14-0.12-0.28-0.16-0.42-0.15C200.81,220.21,200.51,221.65,200.75,223.35z"/>
			<path d="M201.45,223.36c0.14,1,0.5,1.79,0.86,1.93c0.01-0.03,0.03-0.06,0.04-0.09c0.15-0.77,0.17-1.74,0.03-2.77
				c-0.06-0.4-0.14-0.79-0.23-1.17c-0.08-0.06-0.17-0.09-0.26-0.07C201.49,221.25,201.29,222.21,201.45,223.36z"/>
			<path d="M198.99,223.35c0.01-0.01,0.01-0.02,0.01-0.02c0.29-1.09,1.25-3.47,2.52-3.72c0.09-0.02,0.18-0.02,0.28-0.02
				c0.45-0.36,0.62-0.97,0.62-0.97s-0.79-0.13-1.51,0.15c-0.08,0.04-0.15,0.07-0.22,0.11c-0.7,0.37-1.9,2.03-1.77,3.9
				C198.93,222.97,198.96,223.16,198.99,223.35z"/>
			<path class="st18" d="M198.63,221.24c0.12-0.41,0.23-0.81,0.37-1.19c0.14-0.37,0.31-0.73,0.53-1c0.21-0.28,0.48-0.48,0.78-0.6
				c0.3-0.11,0.63-0.14,0.97-0.13c-0.33-0.16-0.68-0.22-1.03-0.15c-0.35,0.07-0.68,0.28-0.93,0.61c-0.25,0.32-0.42,0.72-0.52,1.15
				C198.68,220.34,198.63,220.79,198.63,221.24z"/>
			<path class="st22" d="M198.22,195.58c3.16-0.3,5.38-0.12,7.56,2.33c2.18,2.45,2.1,7.6,1.28,9.29c-0.78-2.15-1.38-2.92-1.95-3.45
				c0.08,1.21-2.4,6.36-3.82,6.76c0.45-4.16-0.51-9.75-2.54-11.1c0.38,1.77,1.39,5.87-0.54,7.64c-0.38-1.33-1.14-3.48-2.01-3.96
				c0.63,1.9-0.56,7.13-2.23,9.47c-1.67,2.34-7.87,9.93-12.43,11.25c-2.26,6.63-1.84,14.94-1.84,14.94s-2.49,4.01-3.41,5.03
				c-1.77-0.43-5.3-4.9-7.1-5.88c-1.81-0.98-10.38-5.51-11.6-15.59c-1.22-10.07,2.03-15.85,8.08-23.75
				c5.56-7.25,10.32-7.72,17.78-7.14C190.9,191.99,196.98,194.82,198.22,195.58z"/>
			<g>
				<path class="st22" d="M165.62,200.63c0.81-1.94,3.11-10.63-2.54-15.09c0.13,2.09-0.42,4.35-0.42,4.35s-5.2-6.03-9.76-5.2
					c-4.56,0.83-10.74,2.17-12.94,9.39c-2.2,7.22-0.48,13.97,2.45,15.5c0.33,1.74,3.45,7.31,6.79,7.59
					c-0.52-1.66,0.34-4.97,0.34-4.97s2.14,4.72,6.49,5.3c-2.35-3.31-2.53-8.65-0.72-11.34c1.82-2.7,6-1.3,6-1.3L165.62,200.63z"/>
				<path class="st23" d="M166.65,196.29l1.06,0.66c0,0,1.86,3.4-0.75,6.97c-2.62,3.58-5.87,2.62-7.3,2.04
					c-0.47-0.45-0.07-2.2-0.07-2.2S166.59,199.81,166.65,196.29z"/>
				<path class="st24" d="M142.42,209.57c-0.25-2.05-0.26-4.13-0.1-6.17c0.09-1.01,0.22-2.04,0.43-3.03
					c0.21-0.99,0.5-1.96,0.89-2.87c0.2-0.46,0.41-0.91,0.67-1.33c0.25-0.39,0.57-0.77,0.9-1.1c0.68-0.7,1.48-1.28,2.3-1.81
					c1.68-1.03,3.5-1.84,5.44-2.25c-1,0.03-1.98,0.24-2.94,0.53c-0.96,0.3-1.89,0.69-2.79,1.18c-0.89,0.48-1.74,1.08-2.5,1.81
					c-0.38,0.36-0.73,0.76-1.04,1.24c-0.28,0.44-0.53,0.92-0.74,1.4c-0.82,1.99-1.16,4.09-1.22,6.19
					C141.68,205.46,141.86,207.57,142.42,209.57z"/>
				<path class="st24" d="M149.55,212.2c0.12-0.88,0.19-1.74,0.28-2.62c0.09-0.86,0.17-1.72,0.31-2.57c0.12-0.84,0.29-1.68,0.5-2.51
					c0.22-0.82,0.51-1.62,0.86-2.43c-0.62,0.61-1.08,1.4-1.41,2.23c-0.35,0.82-0.56,1.71-0.7,2.59c-0.13,0.89-0.18,1.78-0.15,2.67
					C149.27,210.45,149.36,211.33,149.55,212.2z"/>
				<path class="st24" d="M144.72,213.96c-0.21-1.16-0.3-2.34-0.29-3.5c0-1.16,0.09-2.33,0.27-3.48c0.37-2.28,1.1-4.51,2.37-6.37
					c1.25-1.87,2.96-3.39,4.91-4.47c0.97-0.54,2-0.98,3.07-1.28c1.07-0.32,2.18-0.47,3.3-0.47c-2.24-0.32-4.57,0.18-6.63,1.2
					c-2.08,1.01-3.92,2.59-5.26,4.57c-1.34,2-2.08,4.37-2.33,6.74C143.87,209.28,144.02,211.72,144.72,213.96z"/>
			</g>
		</g>
		<g>
			<path class="st25" d="M204.34,236.1c0.15,0.32,0.3,0.57,0.54,0.78c0.59,0.57,1.43,0.98,2.61,1.09c0-0.05,0-0.05,0-0.1
				c-0.15-0.31-0.3-0.57-0.3-0.73c0.34-0.36,1.48-0.32,1.38-0.83c-0.15,0.05-0.3,0.1-0.49,0.1
				C207.49,236.52,205.77,236.68,204.34,236.1z"/>
			<path class="st26" d="M204.88,236.89c0.44,0.46,0.64,1.55,1.43,2.74c0-0.05,0.05-0.1,0.1-0.15c0.4-0.42,1.13-0.26,1.33-0.47
				c0.2-0.16-0.05-0.62-0.25-1.04c0-0.05,0-0.05,0-0.1C206.9,237.76,206.01,237.45,204.88,236.89z"/>
		</g>
		<g>
			<path class="st3" d="M183.36,222.21c-1.39-1.62-4.46-2.7-6.05-0.96c-1.57,1.75-1.08,4.53-0.55,5.63
				c0.53,1.05,3.28,7.23,6.09,7.49c2.82,0.26,2.2-2.39,2.25-3.26C185.13,230.26,183.36,222.21,183.36,222.21z"/>
			<path class="st4" d="M177.55,225.25c-0.18-0.81,0.02-1.71,0.53-2.39c0.26-0.33,0.6-0.61,1-0.77c0.4-0.18,0.83-0.18,1.23-0.15
				c0.8,0.05,1.69,0.4,2.18,1.23c0.25,0.39,0.3,0.9,0.29,1.31c-0.01,0.43-0.04,0.87-0.17,1.32c-0.15,0.42-0.43,0.83-0.79,1.1
				c-0.36,0.28-0.78,0.44-1.17,0.53c-0.19,0.06-0.42,0.08-0.53,0.12c-0.11,0.04-0.21,0.16-0.28,0.28c-0.15,0.27-0.18,0.65-0.11,0.99
				c0.07,0.35,0.25,0.64,0.51,0.8c0.3,0.16,0.7,0.32,1.05,0.43c0.72,0.25,1.52,0.41,2.24,0.86l-0.22,0.17
				c-0.24-0.94-0.3-1.99,0.12-2.84c-0.3,0.9-0.17,1.89,0.16,2.74l0.15,0.37l-0.35-0.18c-0.69-0.37-1.44-0.48-2.22-0.69
				c-0.38-0.09-0.75-0.18-1.16-0.4c-0.41-0.24-0.69-0.67-0.8-1.12c-0.11-0.46-0.09-0.95,0.14-1.41c0.11-0.22,0.3-0.43,0.56-0.55
				c0.26-0.09,0.43-0.09,0.6-0.14c0.72-0.19,1.34-0.59,1.56-1.27c0.1-0.34,0.16-0.73,0.14-1.12c0.02-0.4-0.01-0.75-0.18-1.04
				c-0.36-0.61-1.05-0.98-1.79-1.08c-0.37-0.05-0.74-0.07-1.08,0.06c-0.33,0.12-0.65,0.33-0.91,0.61
				C177.76,223.62,177.47,224.41,177.55,225.25z"/>
		</g>
		<path class="st3" d="M361.96,125.27c-1.7,2.03-4.91,9.51-3.74,16.76c0.59,3.65-0.09,10.72-3.33,14.13
			c-3.24,3.4-4.05,4.45-3.9,5.75c0.17,1.49,2.66,2.53,3.49,3.58c0.83,1.05-0.17,3.49-0.59,4.63c-0.42,1.14,1.67,2.35,4.16,2.35
			c-1.49,0.96-2.41,2.7-1.16,3.66c1.25,0.97,1.83,1.75,2.25,3.14c0.41,1.4-0.67,6.55,2.32,7.07c2.99,0.53,12.8-4.1,15.46-5.67
			c2.66-1.57,20.18-13.43,21.84-15.69c3.24,2.26,4.91,0.16,6.99-3.24c2.08-3.4,7.4-13.09,5.98-23.38
			c-1.41-10.3-12.54-21.73-24.34-22.16C375.58,115.77,368.93,116.9,361.96,125.27z"/>
		<path class="st27" d="M359.11,144.58c-0.3,0.12,0.93,1.98,1.38,2.24c0.48,0.35,3.11-0.94,4.36-0.51c1.24,0.44,3.21,1.26,3.69,1.72
			c0.45,0.4,0.93-0.29,0.31-0.9c-0.62-0.6-2.88-2.66-4.81-2.94C361.8,143.91,360.18,144.08,359.11,144.58z"/>
		<g>
			<path class="st25" d="M355.8,172.83c-0.93-0.18-2.63-1.33-2.05-2.8c0.36-0.93,0.99,0.02,2.2,0.52c0.82,0.35,3.25,1.14,5.38,0.82
				C360.34,172.69,358.53,173.36,355.8,172.83z"/>
			<path class="st26" d="M355.8,172.83c-0.98-0.08-1.54,1.53-0.81,2.54c0.66,0.93,1.88,1,2.44,0.48c1.55-1.46,2.16-3.09,2.93-3.57
				C358.06,172.85,356.5,172.87,355.8,172.83z"/>
		</g>
		<path d="M360.13,150.39c-0.16,0.46-0.55,0.92-0.94,1.04c-0.5,0.17-1.27-0.17-1.71-0.23c0.38,0.46,0.77,0.69,0.94,1.04
			c0.11,0.29-0.5,0.92-0.72,1.05c0.66,0.57,3.58,0.98,5.24,0.57c1.6-0.4,3.7-1.67,4.13-3.18c-1.59,1.33-3.25,1.63-4.79,1.52
			C360.79,152.06,360.02,151.66,360.13,150.39z"/>
		<path class="st28" d="M448.45,225.29c-1.49,5.5-9.85,18.58-10.84,22.24c-3.99-12.31-2.12-40.09-11.84-47.94
			c-9.72-7.85-18.7-15.91-23.01-25.82c-4.33-9.9-10.62-12.03-10.62-12.03s-5-10.82-5-7.68c0,3.14-2.32,13.6-8.65,19.35
			c1.92-8.63-0.33-16.48-2.07-19.09c-1.74-2.62-3.49-8.63-2.74-12.29c-1.5,1.3-5.73,4.96-5.73,4.96l1.49-5.76l-2.99,3.92
			c0,0-2.49-6.02-1.5-9.68c-2.99,1.57-6.57,8.09-6.57,8.09s-4.64-3.64-4.9-7.04c-0.24-3.4,3.99-8.63,3.99-8.63l-4,0.52
			c0,0,3.6-7.33,9.23-8.12c3.21-2.76,8.2-5.42,14.49-6.95c6.88-1.68,15.29-2,24.56,0.37c0.69,0.17,1.39,0.35,2.09,0.56
			c4.51,1.33,12.96,9.95,14.71,17.8c1.74,7.85,2.51,16.73,6.25,24.58c3.74,7.85,9.2,26.19,17.93,35.35
			C451.43,201.17,449.94,219.79,448.45,225.29z"/>
		<path class="st29" d="M403.07,137.84c-2.67,12.55-6.23,19.36-6.23,19.36s-3.47-3.71-2.74-5.96c0.5-20.33-16.92-37.89-16.92-37.89
			c6.88-1.68,15.29-2,24.56,0.37C405.33,122.71,404.81,129.67,403.07,137.84z"/>
		<g>
			<path class="st3" d="M387.74,151.37c1.82-2.15,5.88-3.57,7.97-1.27c2.07,2.31,1.41,5.97,0.73,7.41c-0.7,1.4-4.32,9.55-8.03,9.87
				c-3.73,0.34-2.91-3.16-2.97-4.29C385.4,161.96,387.74,151.37,387.74,151.37z"/>
			<path class="st4" d="M395.39,155.36c0.24-1.06-0.03-2.25-0.7-3.14c-0.34-0.44-0.78-0.81-1.31-1.01c-0.53-0.24-1.09-0.24-1.63-0.2
				c-1.05,0.08-2.22,0.53-2.87,1.62c-0.33,0.52-0.39,1.19-0.38,1.73c0.01,0.57,0.05,1.15,0.22,1.73c0.18,0.56,0.57,1.1,1.03,1.46
				c0.47,0.37,1.03,0.58,1.54,0.71c0.25,0.07,0.55,0.11,0.7,0.15c0.15,0.07,0.27,0.22,0.36,0.38c0.19,0.36,0.23,0.86,0.14,1.31
				c-0.09,0.46-0.33,0.84-0.67,1.06c-0.39,0.2-0.93,0.42-1.38,0.57c-0.96,0.33-2.01,0.55-2.94,1.12l0.29,0.22
				c0.32-1.21,0.4-2.61-0.17-3.72c0.4,1.18,0.23,2.48-0.2,3.6l-0.19,0.49l0.46-0.24c0.91-0.49,1.89-0.62,2.91-0.9
				c0.5-0.12,0.99-0.25,1.53-0.53c0.55-0.32,0.91-0.89,1.06-1.49c0.15-0.61,0.12-1.24-0.19-1.85c-0.15-0.28-0.39-0.56-0.73-0.72
				c-0.34-0.1-0.57-0.13-0.79-0.19c-0.95-0.25-1.77-0.77-2.06-1.66c-0.13-0.46-0.21-0.95-0.19-1.47c-0.02-0.53,0.02-0.98,0.25-1.37
				c0.47-0.81,1.38-1.3,2.35-1.42c0.49-0.06,0.97-0.1,1.42,0.08c0.43,0.15,0.85,0.44,1.2,0.81
				C395.1,153.2,395.49,154.27,395.39,155.36z"/>
		</g>
	</g>
</g>
</svg>
