<?xml version="1.0" encoding="utf-8"?>
<!-- Generator: Adobe Illustrator 24.3.0, SVG Export Plug-In . SVG Version: 6.00 Build 0)  -->
<svg version="1.1" id="Слой_1" xmlns="http://www.w3.org/2000/svg" xmlns:xlink="http://www.w3.org/1999/xlink" x="0px" y="0px"
	 viewBox="0 0 600 600" style="enable-background:new 0 0 600 600;" xml:space="preserve">
<style type="text/css">
	.st0{fill:#FFB07F;}
	.st1{fill:#DC4518;}
	.st2{opacity:0.5;fill:#DC4518;}
	.st3{fill:#80CEA8;}
	.st4{opacity:0.5;fill:#80CEA8;}
	.st5{fill:#ADDDBF;}
	.st6{fill:#D0E9F6;}
	.st7{fill:#DE8040;}
	.st8{fill:#FFFFFF;}
	.st9{fill:#60100E;}
	.st10{opacity:0.3;fill:#FFFFFF;}
	.st11{fill:#3E2B1F;}
	.st12{fill:#E68340;}
	.st13{fill:#EA8844;}
	.st14{fill:#5A4331;}
	.st15{fill:#FFA37F;}
	.st16{fill:#404040;}
	.st17{fill:#618DC2;}
	.st18{opacity:0.5;fill:#618DC2;}
	.st19{fill:#632B0A;}
	.st20{fill:#FFA87F;}
	.st21{fill:#F4DD5A;}
	.st22{opacity:0.5;fill:#F4DD5A;}
	.st23{fill:#80380D;}
	.st24{fill:#B61C00;}
	.st25{fill:#D82400;}
</style>
<g>
	<g>
		<path class="st0" d="M171.75,512.56c4.17,0.93,9.24,3.06,14.61,2.14c0.59-2.74,9.53-34.54,12.22-42.16
			c2.67-7.65,11.62-20.17,11.62-20.17h4.78c0,0-1.5,8.55-2.39,11.31c-0.9,2.75-8.64,45.23-8.34,51.02c2.09,0,11.33-0.31,14.02-1.52
			c1.18-7.03,8.64-36.06,12.81-46.75c4.17-10.7,9.84-35.41,9.84-42.75c0-7.33-0.6-35.41-2.08-40.31
			c-1.49-4.88-5.38-28.39-5.67-33.89c-2.09-0.6-8.65,1.84-10.15,1.84c-0.34,0-0.61-0.39-0.84-0.98c0-0.02,0-0.02-0.01-0.03
			c-0.58-1.54-0.82-4.42-0.9-5.69c-0.03-0.39-0.04-0.63-0.04-0.63h-16.71c0,0,0.1,0.71,0.17,1.68c0.04,0.45,0.08,0.94,0.11,1.44
			c0.1,1.92,0.07,4.03-0.58,4.2c-1.19,0.3-11.64-1.22-14.62-0.31c-2.99,0.91-2.09,16.19-2.09,21.37c0,5.21,1.18,34.81,0,46.99
			c-1.2,12.17-4.78,38.2-5.66,42.48C180.98,466.12,172.34,507.07,171.75,512.56z"/>
		<path class="st0" d="M228.64,368.18c1.97-0.01,15.54,39.73,14.88,43.93c-0.32,2.06-0.64,4.13-0.94,6.19
			c-0.23,1.66-0.86,7.37-1.39,9.02c-0.57,1.77,0.27,4.62,2.37,2.64c1.5-1.4,0.62-3,1.72-4.6c2.05,2.8,0.12,5.42,0.84,8.43
			c0.64,2.68,0.9,4.37,3.87,4.69c3.35,0.36,3.19-0.59,4.13-3.33c1.02-2.96,2.79-7.61,1.66-10.52c-1.32-3.37-2.92-6.42-3-11.17
			c-0.38-21.86-7.39-65.33-19.61-63.98C228.5,349.99,228.64,368.18,228.64,368.18z"/>
		<path class="st1" d="M178.29,461.93c3.81,3.89,22.58,5.48,25.73,4.11c1.11-2.05,6.27-11.9,6.27-11.9l1.79-0.22
			c0,0-0.09,1.51-0.29,3.55c-0.26,2.73-0.74,6.45-1.5,8.8c1.56,1.6,16.1,3.9,23.49,2.53c4.24-10.31,9.67-38.64,7.14-47.31
			c-13.19,2.51-48.25,0.28-53.62,0.05C185.59,424.71,180.09,452.53,178.29,461.93z"/>
		<path class="st2" d="M187.31,421.54c0.46,0.02,1.13,0.06,1.98,0.09c-2.15,6.02-7.89,28.86-5.42,37.16
			c1.36,4.55,14.73,6.87,20.63,6.37c-0.19,0.36-0.36,0.67-0.47,0.88c-3.14,1.37-21.92-0.23-25.73-4.12
			C180.08,452.53,185.59,424.71,187.31,421.54z"/>
		<path class="st3" d="M231.21,349.47l-5.48,1.26c0,0,3.8,16.68-1.12,20.58c-4.93,3.89-11.89,2.51-14.67,0
			c-2.78-2.52-7.48-20.01-7.48-20.01l-5.61-0.42c0,0,3.81,17.23,1.57,24.1c-2.23,6.87-10.57,11.35-10.57,11.35
			s-2.17,33.77-2.85,36.52c4.93,3.44,21.7,7.33,32.89,7.33s25.05-4.58,27.52-6.87c-0.67-9.62-5.6-40.77-6.03-44.21
			C238.92,375.66,232,366.56,231.21,349.47z"/>
		<path class="st4" d="M187.85,386.33c0,0,1.4,29.3,2.27,31.63c2.12,5.7,19.01,9.37,30.19,9.37c9.06,0,25.07-4.43,25.1-4.02
			c-2.46,2.29-16.33,6.87-27.52,6.87s-27.96-3.89-32.89-7.33C185.68,420.1,187.85,386.33,187.85,386.33z"/>
		<path class="st5" d="M227.35,350.36c0,0,3.83,17.82-2.74,22.28c-5.18,3.53-11.89,2.52-14.67,0c-2.78-2.51-8.62-21.42-8.62-21.42
			l1.14,0.08c0,0,4.69,17.49,7.48,20.01c2.78,2.51,9.74,3.89,14.67,0c4.92-3.9,1.12-20.58,1.12-20.58L227.35,350.36z"/>
		<path class="st0" d="M189.63,351.01c-4.78,0.61-17.6,27.18-19.69,35.43c-2.09,8.24-0.59,14.65,2.99,18.62
			c3.57,3.97,11.01,9.82,13.42,12.83c1.19,1.48,3.42,3.06,4.32,5.5c0.89,2.45,3.8,6.84,7.08,8.22c2.54,1.07,3.66,0.49,3.8-0.43
			c0.8,0.25,2.16-0.31,2.24-1.44c0.96,0.31,2.46,0.61,2.39-1c1.64-0.46,0.8-3.12,0.07-4.27c-0.27-0.43-2.76-6.27-7.53-8.71
			c-4.78-2.44-5.37-4.58-6.71-7.02c-1.34-2.44-6.71-10.69-7.75-12.98c2.09-5.18,5.67-15.11,6.57-17.25
			C191.72,376.36,189.63,351.01,189.63,351.01z"/>
		<g>
			<path class="st6" d="M202.3,519.54c0.08,0.99,0.22,1.94,0.47,2.75c2.69,1.4,5.8,0.51,7.59,0.95c1.79,0.47,8.66,2.31,12.1,2.45
				c3.43,0.15,7.88-0.91,9.09-1.9c0.11-0.62,0.21-1.47,0.25-2.32c-2.04,1.24-7.8,1.47-10.23,0.92c-2.47-0.52-7.56-2.35-9.99-2.35
				C209.12,520.05,204.6,519.07,202.3,519.54z"/>
			<path class="st6" d="M203.32,510.97c1.68,0.73,4.43,1.09,5.73,0.55c1.07-6.13,8.26-5.21,11.09-4.21
				c0.82,0.25,1.26,0.73,1.47,1.34c0.11-1.28-0.17-2.41-1.53-2.89c-2.69-0.99-10.75-1.76-11.78,4.36c-1.33,0.59-2.58,0.43-4.12-0.44
				C203.85,509.83,203.56,510.31,203.32,510.97z"/>
			<path d="M202.3,519.54c2.29-0.47,6.81,0.51,9.28,0.51c2.43,0,7.52,1.83,9.99,2.35c2.44,0.55,8.2,0.32,10.23-0.92
				c0.07-1.32,0-2.78-0.28-4.06c-0.29-1.07-0.71-1.98-1.47-2.49c-2.01-1.4-4.91-3.45-8.52-2.56c-0.11,0-0.18,0-0.29,0.03
				c0-1.18,0.32-2.53,0.35-3.74c-0.21-0.62-0.64-1.09-1.47-1.34c-2.83-0.99-10.02-1.92-11.09,4.21c-1.3,0.54-4.05,0.18-5.73-0.55
				c-0.04,0-0.04,0-0.04,0C202.57,512.87,202.07,516.5,202.3,519.54z"/>
			<path class="st6" d="M222.77,512.16c-1.11-0.11-2.17,0.43-3.02,1.13c-0.75,0.76-1.54,1.76-1.4,2.94c0.25-0.49,0.6-0.85,0.93-1.22
				c0.34-0.36,0.68-0.73,1.06-1.03C221.06,513.27,221.85,512.79,222.77,512.16z"/>
			<path class="st6" d="M221.37,510.83c-0.69-0.4-1.53-0.59-2.35-0.54c-0.83,0.03-1.64,0.31-2.38,0.68
				c-1.44,0.84-2.62,2.29-2.77,3.96C215.52,512.19,218.22,510.61,221.37,510.83z"/>
		</g>
		<g>
			<path class="st6" d="M190.05,519.54c-0.07,0.99-0.21,1.94-0.46,2.75c-2.69,1.4-5.8,0.51-7.59,0.95
				c-1.79,0.47-8.66,2.31-12.1,2.45c-3.44,0.15-7.87-0.91-9.09-1.9c-0.11-0.62-0.22-1.47-0.26-2.32c2.04,1.24,7.8,1.47,10.24,0.92
				c2.47-0.52,7.55-2.35,9.98-2.35C183.25,520.05,187.77,519.07,190.05,519.54z"/>
			<path class="st6" d="M189.05,510.97c-1.68,0.73-4.44,1.09-5.73,0.55c-1.08-6.13-8.27-5.21-11.1-4.21
				c-0.83,0.25-1.26,0.73-1.47,1.34c-0.11-1.28,0.17-2.41,1.54-2.89c2.69-0.99,10.74-1.76,11.77,4.36c1.33,0.59,2.57,0.43,4.12-0.44
				C188.52,509.83,188.79,510.31,189.05,510.97z"/>
			<path d="M190.05,519.54c-2.28-0.47-6.8,0.51-9.27,0.51c-2.43,0-7.52,1.83-9.98,2.35c-2.44,0.55-8.2,0.32-10.24-0.92
				c-0.07-1.32,0-2.78,0.28-4.06c0.29-1.07,0.72-1.98,1.47-2.49c2-1.4,4.91-3.45,8.51-2.56c0.11,0,0.19,0,0.29,0.03
				c0-1.18-0.32-2.53-0.36-3.74c0.21-0.62,0.64-1.09,1.47-1.34c2.82-0.99,10.02-1.92,11.1,4.21c1.29,0.54,4.04,0.18,5.73-0.55
				c0.03,0,0.03,0,0.03,0C189.8,512.87,190.3,516.5,190.05,519.54z"/>
			<path class="st6" d="M169.6,512.16c1.1-0.11,2.17,0.43,3.01,1.13c0.75,0.76,1.55,1.76,1.41,2.94c-0.26-0.49-0.6-0.85-0.94-1.22
				c-0.33-0.36-0.67-0.73-1.06-1.03C171.31,513.27,170.51,512.79,169.6,512.16z"/>
			<path class="st6" d="M170.99,510.83c0.69-0.4,1.54-0.59,2.36-0.54c0.82,0.03,1.64,0.31,2.38,0.68c1.43,0.84,2.61,2.29,2.76,3.96
				C176.84,512.19,174.14,510.61,170.99,510.83z"/>
		</g>
		<g>
			<path class="st7" d="M204.54,343.99c0,0,0.1,0.71,0.17,1.68c4.45,2.33,8.92,4.14,12.16,4.69c0.55,0.1,3.56,0.27,5.31-0.06
				c-0.58-1.54-0.82-4.42-0.9-5.69c-0.45-0.39-0.75-0.63-0.75-0.63H204.54z"/>
			<path class="st0" d="M226.01,296.61c2.5,1.92,6.38,6.04,6.27,11.08c-0.11,5.03-0.1,9.84,0.01,12.75
				c0.1,2.91,1.85,8.73,1.42,13.42c-0.45,4.7-8.2,13.2-13.44,14.09c-5.24,0.89-14.75-1.79-20.32-5.25
				c-5.58-3.48-7.98-9.51-8.86-14.89c-0.87-5.36,0.22-21.58,2.62-25.73c2.41-4.14,9.51-9.73,16.94-9.73
				C218.07,292.35,222.8,294.14,226.01,296.61z"/>
			<g>
				<path class="st8" d="M202.56,325.14c0,3.03,2.38,3.94,4.92,3.94c2.51,0,4.8-1.46,4.91-3.94c0.2-4.24-2.2-5.47-4.91-5.47
					c-1.43,0-2.72,0.5-3.61,1.5c-0.71,0.79-1.17,1.89-1.29,3.3v0.01C202.57,324.69,202.56,324.92,202.56,325.14z"/>
				<path class="st9" d="M202.58,324.46L202.58,324.46c0.2,1.78,1.58,3.16,3.25,3.16c1.82,0,3.29-1.61,3.29-3.59
					c0-1.98-1.47-3.59-3.29-3.59c-0.73,0-1.41,0.27-1.96,0.73C203.16,321.96,202.7,323.05,202.58,324.46z"/>
				<path d="M204.09,324.03c0,0.99,0.79,1.79,1.74,1.79c0.97,0,1.75-0.8,1.75-1.79c0-0.99-0.78-1.8-1.75-1.8
					C204.88,322.24,204.09,323.05,204.09,324.03z"/>
				<path d="M207.04,320.34c-1.23,0-2.37,0.31-3.26,0.94c0.9-1.08,2.22-1.61,3.71-1.61c2.71,0,4.91,1.23,4.91,5.48
					c0,0.12-0.01,0.23-0.01,0.35C212.26,321.51,209.92,320.34,207.04,320.34z"/>
				<path class="st10" d="M204.12,322.95c0,0.47,0.36,0.86,0.82,0.86c0.45,0,0.82-0.39,0.82-0.86c0-0.47-0.37-0.85-0.82-0.85
					C204.48,322.09,204.12,322.47,204.12,322.95z"/>
			</g>
			<g>
				<path class="st8" d="M223.38,323.62c0,3.01,1.56,4.37,4.53,3.84c2.04-0.36,2.95-1.63,2.95-3.84c0-3.02-1.67-5.47-3.74-5.47
					C225.05,318.15,223.38,320.6,223.38,323.62z"/>
				<path d="M226.99,318.88c-1.31,0-2.46,0.84-3.17,2.14c0.63-1.71,1.87-2.87,3.3-2.87c2.07,0,3.74,2.45,3.74,5.47
					c0,0.06-0.01,0.13-0.01,0.19C230.79,321.07,229.08,318.88,226.99,318.88z"/>
				<ellipse class="st9" cx="226.01" cy="323.16" rx="2.63" ry="3.21"/>
				<path d="M224.15,323.16c0,0.78,0.61,1.42,1.36,1.42c0.74,0,1.35-0.64,1.35-1.42c0-0.78-0.62-1.42-1.35-1.42
					C224.76,321.74,224.15,322.38,224.15,323.16z"/>
				<path class="st10" d="M224.03,322.49c0,0.47,0.36,0.86,0.82,0.86c0.46,0,0.82-0.38,0.82-0.86c0-0.47-0.36-0.86-0.82-0.86
					C224.4,321.63,224.03,322.02,224.03,322.49z"/>
			</g>
			<path class="st11" d="M222.63,312.08l-0.17-0.48c-0.25-0.7,0.12-1.47,0.84-1.54c0.66-0.06,2.29-0.18,3.26,0.12
				c2.11,0.66,2.62,2.34,2.72,3.12c-1.04-0.33-3.56,0.24-5.24,0.04C223.31,313.25,222.87,312.78,222.63,312.08z"/>
			<path class="st11" d="M212,312.36c0-0.79-0.32-1.7-1.2-1.9c-1.16-0.26-2.59,0.03-3.65,0.42c-2.32,0.86-2.74,2.57-2.8,3.37
				c1.13-0.43,4.01-0.11,5.89-0.47C211.04,313.63,212,313.38,212,312.36z"/>
			<path class="st12" d="M221.52,335.09c0.87-0.33,1.51-1.37,1.35-2.43c-0.07-0.52-0.33-1.02-0.73-1.38
				c-0.46-0.37-0.93-0.5-1.41-0.6c-0.95-0.17-1.92-0.11-2.83,0.16c-0.89,0.27-1.82,0.82-2.2,1.71c0.61-0.72,1.48-0.99,2.32-1.17
				c0.86-0.14,1.75-0.16,2.59-0.01c0.41,0.07,0.83,0.22,1.11,0.41c0.31,0.23,0.52,0.6,0.63,0.98
				C222.54,333.55,222.24,334.5,221.52,335.09z"/>
			<path class="st13" d="M223.82,337.94c-0.93,1.44-2.9,2.87-4.65,2.87c-1.75,0-3.39,0.25-6.17-1.43
				C214.64,338.86,220.64,338.61,223.82,337.94z"/>
			<path class="st14" d="M225.67,299.67c-0.21,2.3-5.52,12.88-11.14,14.04c0.22-2.65,0.86-5.52,0-5.87
				c-0.44,1.03-1.41,5.29-2.92,5.87c-0.65-1.84-1.08-5.87-2.27-7.02c-0.1,1.15,0,3,0,3s-9.96-5.41-12.22-7.25
				c0.42,2.42,3.13,7.01,4.76,8.74c-2.16,0.91-6.6-2.42-8.12-3.57c1.73,3.11,3.46,7.72,2.81,11.28s-4.21,10.99-4.1,13.72
				c-3.36-1.18-6.71-6.36-8.45-10.85c-1.73-4.48-2.02-7.69-1.73-10.81c0.5-5.45,3.23-12.33,7.13-15.19
				c-1.62-0.57-2.38-1.73-2.38-1.73h4.11c0,0-1.73-2.87-2.49-3.91c0.44-0.34,3.04,1.04,4.34,2.07c0.43-1.96,2.59-5.06,3.89-6.09
				c-0.53,0.69-1.08,2.76-0.86,3.68c2.6-1.38,11.58-4.14,17.85-3.91c6.27,0.23,11.25,1.84,13.41,2.99
				c-1.08,0.23-3.35,0.58-4.11,1.03c3.35,1.27,8.11,4.61,10.28,10.36s0.39,11.78,0.06,13.17
				C230.89,307.84,228.59,301.05,225.67,299.67z"/>
		</g>
		<path class="st2" d="M211.79,457.46L211.79,457.46c0.11-1.18,0.19-2.16,0.23-2.8c0.01-0.11,0.02-0.22,0.02-0.31c0-0.01,0,0,0-0.01
			c0.03-0.27,0.03-0.43,0.03-0.43c5.71-2.81,7.99-3.97,10.69-5.48c-3.53,3.94-7.03,7.09-9.64,8.45c0.57,2.17,1.23,5.26,1.76,7.59
			c0.47,2.01,11.54,4.02,19.29,3.33c-0.13,0.34-0.27,0.68-0.4,0.99c-7.38,1.38-21.92-0.92-23.49-2.52
			C211.05,463.91,211.53,460.2,211.79,457.46z"/>
	</g>
	<g>
		<path class="st15" d="M297.1,512.25v0.09c0.01-0.02,0.01-0.06,0.03-0.09c-0.02,1.6,0.37,2.93,1.04,4.01v0.02
			c0.27,0.41,0.58,0.8,0.92,1.14c0.34,0.33,0.72,0.65,1.12,0.9c0.21,0.12,0.42,0.23,0.64,0.36c0.43,0.21,0.88,0.4,1.35,0.56
			c0.24,0.06,0.48,0.13,0.74,0.18c1.53,0.35,3.17,0.32,4.74-0.03c0.28-0.07,0.54-0.13,0.81-0.22c0.26-0.08,0.51-0.15,0.76-0.27
			c0.26-0.09,0.51-0.19,0.75-0.32c0.25-0.12,0.47-0.23,0.7-0.37c0.16-0.09,0.33-0.2,0.49-0.32c0.16-0.11,0.31-0.22,0.46-0.33
			c0.31-0.25,0.59-0.52,0.87-0.81c0.17-0.18,0.34-0.39,0.48-0.59c0,0,0,0,0.02-0.02c0.28-0.41,0.52-0.85,0.74-1.33
			c0.08-0.17,0.15-0.36,0.19-0.57c0.11-0.39,0.19-0.79,0.23-1.21c0.03-0.23,0.03-0.5,0.03-0.75c-0.48-2.12-0.92-4.54-1.29-6.96
			c-5.41-0.32-10.46-1.82-13.61-3.77C298.61,505.66,297.82,509.23,297.1,512.25z"/>
		<path class="st15" d="M273.59,509.34c0.03,0.22,0.09,0.42,0.15,0.62c0.14,0.41,0.29,0.79,0.51,1.13c0.11,0.18,0.23,0.35,0.35,0.53
			c3.55,4.63,14.62,4.63,18.8-3.54c-0.01-3.22-0.29-6.51-0.74-9.45c-0.13-0.8-0.19-1.95-0.25-3.4c-3.95,1.27-9.6,1.45-13.43,0.36
			C277.77,499.9,275.81,504.55,273.59,509.34z"/>
		<path class="st16" d="M301.1,528.76h12.91c2.98,0,5.11-3.16,2.98-8.89c-0.57-1.56-1.99-4.13-2.8-7.62c0,0.26,0,0.52-0.04,0.75
			c-0.03,0.44-0.11,0.84-0.23,1.21c-0.04,0.21-0.11,0.4-0.19,0.57c-0.2,0.49-0.45,0.93-0.74,1.33c-0.02,0.02-0.02,0.02-0.02,0.02
			c-0.14,0.21-0.31,0.41-0.48,0.59c-0.27,0.3-0.56,0.57-0.87,0.81c-0.15,0.12-0.3,0.25-0.46,0.33c-0.16,0.13-0.33,0.23-0.49,0.32
			c-0.22,0.15-0.45,0.26-0.7,0.37c-0.24,0.13-0.49,0.23-0.75,0.32c-0.25,0.12-0.51,0.19-0.76,0.27c-0.27,0.09-0.53,0.16-0.81,0.22
			c-1.56,0.35-3.21,0.37-4.74,0.03c-0.25-0.05-0.5-0.12-0.74-0.18c-0.47-0.16-0.92-0.35-1.35-0.56c-0.22-0.13-0.43-0.25-0.64-0.36
			c-0.4-0.26-0.78-0.57-1.12-0.9c-0.34-0.34-0.65-0.72-0.92-1.14v-0.02c-0.67-1.07-1.06-2.4-1.04-4.01
			c-0.02,0.03-0.02,0.07-0.03,0.09c0,0.02,0,0.02,0,0.02c-0.81,3.36-1.55,5.95-2.16,7.54C292.69,525.83,296.99,528.76,301.1,528.76z
			"/>
		<path class="st16" d="M271.74,522.11c3.95,2.78,12.07,3.02,16.39,1.56c3.28-1.12,6.2-6.59,5.28-15.59
			c-4.18,8.17-15.25,8.17-18.8,3.54c-0.11-0.18-0.24-0.35-0.35-0.53c-0.22-0.34-0.38-0.72-0.51-1.13c-0.06-0.2-0.11-0.4-0.15-0.62
			c0,0.01-0.02,0.01-0.02,0.03c-0.95,2.04-1.93,4.08-2.93,6.09C269.82,517.13,270.22,521.03,271.74,522.11z"/>
		<path class="st17" d="M257.54,316.4c1.1,9.63,5.95,23.34,9.85,39.46c2.79,11.58,4.18,22.45,4.18,24.58c0,2.66,0.13,8.1-0.91,12.88
			c-0.96,4.55-1.88,8.85-1.93,10.98c-0.12,25.33,4.68,51.06,7.83,68.08c1.34,7.39,2.01,20.3,1.34,22.85
			c0.36,0.12,0.72,0.23,1.09,0.36c3.83,1.09,9.48,0.92,13.43-0.36c0.41-0.07,0.86-0.25,1.22-0.36c-0.19-15.39,5.22-61.43,6.93-71.78
			c1.21-7.64,0.72-15.46,0.3-21.77c-0.24-3.15-0.42-5.88-0.3-7.76c0.12-1.63-0.75-5.87-0.26-8.85c3.34-20.22,3.72-42.54,4.33-56.31
			c0.57-13.5,1.2-15.8,0.66-26.1c-0.07-1.16-0.14-2.24-0.23-3.26c-0.07-0.79-0.15-1.53-0.24-2.23c0.91-0.36,1.51-0.42,1.89-0.42
			c0.54,0,1.02,0.13,1.63,0.23c0,0,0.07,0,0.07,0.07c0.24,6.01-0.98,16.37-2.07,36.81c-0.72,13.03-1.46,46.72-1.34,49.41
			c0.38,8.79,0.79,17.89-0.72,23.33c-1.7,6.27-2.13,26.19-2.54,45.48c-0.13,6.36-0.24,12.98-0.44,18.91
			c-0.42,12.11-1.75,22.54-3.04,30.18c0.31,0.25,0.68,0.48,1.04,0.73c3.15,1.94,8.2,3.45,13.61,3.77c0.44,0.06,0.8,0.06,1.22,0.06
			c-0.54-3.76,1.27-19.63,4.27-27.28c4.62-11.88,11.54-29.89,15.43-53.47c1.02-5.93,0.66-14.91,0.29-22.84
			c-0.13-3.71-0.24-7.23-0.24-10.14c0-2.67,1.58-8.36,3.82-16.25c5.42-19.32,14.48-39.03,16.72-82.19
			c0.49-10.07-0.48-18.66-2.31-26.2c-1.83-7.33-4.44-13.51-7.36-18.91c-0.36,0.13-0.71,0.25-1.08,0.43
			c-16.89,6.24-42.17,11.95-65.37,11.92c-5.07,0-10.03-0.28-14.8-0.89c-1.35-0.18-2.69-0.36-4-0.59c-0.37-0.07-0.8-0.12-1.16-0.19
			c-0.66,4.8-1.22,9.89-1.52,15.1C255.59,291.9,256.25,305.17,257.54,316.4z"/>
		<path class="st18" d="M301.72,451.71c0.41-19.29,0.84-39.21,2.54-45.48c1.52-5.44,1.1-14.54,0.72-23.33
			c-0.05-1.22,0.07-8.73,0.28-17.82c1.31-14.44,1.63-28.37,2.06-38.02c0.44-10.51,0.92-15.57,0.85-24.96
			c0.21-5.43,0.3-3.31,0.22-5.42c0-0.07-0.07-0.07-0.07-0.07c-0.24-0.04-0.47-0.09-0.7-0.12c-0.04-0.35-0.07-0.7-0.11-1.04
			c0.9-0.36,1.52-0.42,1.88-0.42c0.53,0,1.03,0.12,1.64,0.23c0,0,0.07,0,0.07,0.07c0.25,6-0.97,16.37-2.07,36.79
			c-0.73,13.03-1.45,46.73-1.33,49.41c0.36,8.81,0.78,17.89-0.73,23.34c-1.71,6.25-2.12,26.2-2.55,45.47
			c-0.14,6.38-0.24,12.98-0.43,18.93c-0.41,12.11-5.03,27.98-2.01,30.91c2.4,2.32,12.08,4.78,12.12,5.17c-0.41,0-0.78,0-1.22-0.06
			c-5.41-0.32-10.46-1.82-13.61-3.77c-0.36-0.25-0.72-0.48-1.04-0.73c1.28-7.64,2.62-18.07,3.04-30.18
			C301.48,464.69,301.59,458.07,301.72,451.71z"/>
		<path class="st18" d="M256.81,273.84c0.29-5.21,0.85-10.3,1.52-15.1c0.37,0.08,0.79,0.13,1.16,0.19c0.44,0.07,0.87,0.14,1.31,0.21
			c-0.56,4.28-1.03,8.76-1.29,13.35c-1.22,18.07-0.56,31.34,0.73,42.56c1.1,9.65,5.96,23.33,9.85,39.47
			c2.79,11.57,4.17,22.44,4.17,24.56c0,2.68,0.13,8.11-0.9,12.9c-0.96,4.55-1.88,8.85-1.93,10.97c-0.13,25.34,4.68,51.04,7.83,68.07
			c1.34,7.4-0.38,18.67,3.35,22.52c1.73,1.76,11.04,1.15,11.04,1.33c-0.36,0.12-0.81,0.3-1.22,0.36c-3.95,1.27-9.6,1.45-13.43,0.36
			c-0.37-0.12-0.73-0.24-1.09-0.36c0.67-2.55,0-15.46-1.34-22.85c-3.16-17.02-7.95-42.75-7.83-68.08c0.06-2.13,0.97-6.43,1.93-10.98
			c1.04-4.78,0.9-10.23,0.9-12.88c0-2.13-1.39-12.99-4.17-24.58c-3.9-16.12-8.75-29.83-9.85-39.46
			C256.25,305.17,255.59,291.9,256.81,273.84z"/>
		<path class="st19" d="M300.86,90.06c0,11.81-1,21.4,4.27,21.4c14.81,0,20.88-8.27,20.88-20.09c0-11.83-10.33-22.72-15.61-22.72
			S300.86,78.23,300.86,90.06z"/>
		<path class="st20" d="M247.06,148.7c5.07,0.14,20.97,17.44,22.13,23.21c1.16,5.79,19.74,17.31,19.74,23.67
			c0,6.37-4.92,27.81-6.35,29.74h47.95c-2.17-4.59-7.07-12.89-7.07-21.17c0-8.28,10.75-20.68,15.23-32.24
			c0.71-17.15,10.11-27.81,19.65-30.47c-2.45-13.3-13.15-14.48-16.48-15.95c-3.31-1.5-14.22-6.85-21.97-10.51
			c-3.89-1.88-7.32-6.08-9.27-10.09c-0.44-0.89-0.78-1.76-1.04-2.62c-0.25-0.76-0.44-1.5-0.51-2.17c-0.02-0.15-0.04-0.32-0.07-0.51
			c0,0-17.13,1.05-20.89,1.05c0,3.97-0.33,13.01-2.45,15.65c-0.23,0.29-0.65,0.65-1.23,1.01c-4.55,3.03-18.93,8.48-26.52,12.17
			C249.37,133.61,247.06,143.65,247.06,148.7z"/>
		<path class="st7" d="M284.42,117.3c16.2,3,23.88-11.93,25.15-15.03c-0.25-0.76-0.44-1.5-0.51-2.17c-0.02-0.15-0.04-0.32-0.07-0.51
			c0,0-17.13,1.05-20.89,1.05c0,3.97-0.33,13.01-2.45,15.65C285.42,116.58,285,116.94,284.42,117.3z"/>
		<path class="st21" d="M350.91,262.75c-1.39-20.35-16.04-41.53-17.42-50c-1.39-8.5-1.23-19.34,1.34-29.21
			c12.3-8.28,9.01-19.24,5.64-26.15c-12.9-13.67-62.26-13.46-75.4,0.19c-3.52,6.66,1.01,21.25,9.87,25.96
			c2.56,9.88,2.72,20.71,1.34,29.21c-1.02,6.15-5.96,12.58-12.36,26.89c-0.31,0.72-0.61,1.43-0.91,2.13
			c-0.48,1.21-0.95,2.44-1.36,3.68c-1.23,3.57-4.28,13.28-4.28,18.71C265.02,269.8,324.62,275.23,350.91,262.75z"/>
		<path class="st20" d="M355.31,134.68c8.03,10.33,30.51,38.43,39.31,53.26c5.13,8.65,5.83,13.66,0.53,22.56
			c-5.3,8.88-23.44,50.7-33.62,57.3c-10.17,6.61-11.87,0.46-16.65,0c-4.77-0.46-13.2,3.25-15.64,4c-2.79,0.85-3.84-0.35-1.18-2.91
			c-6.03,2.55-7.83-1.51-3.25-3.84c-4.56,0.96-3.23-3.22-0.88-4.69c2.7-1.68,8.14-5.53,11.83-7.39c2.94-1.52,4.55-2.8,2.4-3.8
			c-2.16-0.99-7.77-2.25-10.25-2.19c-2.02,0.01-4.12-2.03,0.1-3.06c4.2-1.03,11.57,0.38,14.87,2.34c3.3,1.96,6.89,7.23,9.04,8.02
			c2.16,0.78,11.46-5.88,14.48-15.77c3.02-9.88,11.48-27.58,13.21-32.42c1.73-4.84,0.01-9.3-6.52-15.82
			c-9.83-9.79-25.03-27.05-32.71-30.1C340.36,160.19,341.62,133.19,355.31,134.68z"/>
		<path class="st22" d="M292.1,184.46c1.29-0.53,2.56-1.11,3.82-1.7c1.24-0.63,2.5-1.24,3.67-1.92c1.17-0.7,2.36-1.42,3.23-2.29
			l0.48-0.49l0.59,0.31c0.77,0.4,1.34,0.82,1.97,1.22l1.84,1.18c1.22,0.8,2.47,1.5,3.75,2.18c1.28,0.65,2.59,1.25,3.95,1.74
			c1.36,0.5,2.76,0.86,4.21,1.15c-4.35,0.54-11.29-1.18-12.6-1.9c-0.65-0.37-2.79-1.71-3.2-1.95c-1.02,0.84-2.07,1.47-3.17,2.04
			c-1.29,0.64-7.16,1.93-12.5,1.82C289.51,185.52,290.82,184.99,292.1,184.46z"/>
		<g>
			<path class="st7" d="M293.27,127.03c-0.05-0.35-0.17-0.72-0.4-1.03c-0.23-0.31-0.59-0.54-0.95-0.65
				c-0.38-0.11-0.76-0.15-1.12-0.13l-1.05,0.06c-1.37,0.08-2.76,0.16-4.14,0.28c-2.76,0.22-5.52,0.51-8.27,0.95
				c2.78,0.06,5.56-0.04,8.33-0.2c1.38-0.08,2.76-0.19,4.14-0.3l1.04-0.09c0.32-0.04,0.64-0.06,0.95-0.01
				C292.4,125.96,292.93,126.38,293.27,127.03z"/>
			<path class="st7" d="M301.86,126.53c0.26-0.69,0.72-1.18,1.32-1.33c0.29-0.09,0.62-0.13,0.94-0.14l1.04-0.04
				c1.38-0.09,2.77-0.17,4.15-0.28c2.76-0.23,5.52-0.52,8.27-0.96c-2.78-0.06-5.55,0.04-8.32,0.21c-1.38,0.08-2.76,0.18-4.15,0.3
				l-1.04,0.1c-0.36,0.02-0.73,0.12-1.08,0.28c-0.35,0.16-0.68,0.45-0.86,0.79C301.94,125.8,301.86,126.17,301.86,126.53z"/>
		</g>
		<path class="st20" d="M247.06,148.69c0.05,11.79-0.71,38.6-2.64,47.29c-1.93,8.69-6.74,40.56-10.41,49.4
			c-2.69,6.5-7.13,18.5-8.67,20.79c-1.54,2.28-6.75,8.01-10.98,7.62c-4.24-0.41-14.26-1.98-15.41-0.99
			c-1.16,0.99-6.17,8.29-7.9,9.86c-1.73,1.57-1.44,3.45-0.48,3.74c-1.64,1.38-1.92,3.65,1.35,2.76c3.28-0.88,5.3-4.12,6.65-4.82
			c1.35-0.69,2.21,0,1.35,2.06c-0.87,2.08-3.95,5.03-4.63,5.32c-0.66,0.3-0.19,3.45,3.09,1.87c3.28-1.58,6.35-7,8.38-7.1
			c2.02-0.09,8.96,1.08,13.78-0.89c4.81-1.96,10.5-5.52,17.92-18.23c7.42-12.72,19.45-33.86,21.57-42.14c2.12-8.29,4.43-32.4,5-46.1
			c0.42-9.91-0.31-18.84,1.05-25.85C261.47,151.41,254.24,143.22,247.06,148.69z"/>
		<g>
			<path class="st20" d="M216.22,283.32c-1.16-0.59-3.04-2.22-4.48-1.4c-1.45,0.81-4.47,2.21-6.5,2.81c-3,0.86-4.83,1.1-5.85,1.1
				c-1.01,0-3.83-0.66,0.51-3.69c4.33-3.03,7.51-3.99,8.52-4.81L216.22,283.32z"/>
			<path class="st7" d="M216.22,283.32c-1.2-0.68-2.28-1.79-3.84-1.77c-1.46,0.44-2.55,1.21-3.89,1.7c-2.55,1.09-5.27,1.81-8,2.15
				c-1.17,0.26-3.28,0.03-2.45-1.18c0.72-1.09,1.96-1.86,3.12-2.67c2.29-1.6,4.89-2.69,7.26-4.23c-2.48,1.28-5.16,2.24-7.52,3.86
				c-1.16,0.77-2.43,1.47-3.34,2.73c-0.22,0.31-0.42,0.8-0.22,1.28c0.23,0.49,0.65,0.65,1.01,0.79c0.76,0.26,1.51,0.18,2.21,0.11
				c2.81-0.42,5.54-1.24,8.1-2.43c1.28-0.52,2.56-1.39,3.74-1.8C213.75,281.73,214.99,282.73,216.22,283.32z"/>
		</g>
		<path class="st7" d="M327.85,262.75c1.07-0.56,2.17-0.99,3.26-1.43l3.29-1.33l3.31-1.31c0.56-0.21,1.11-0.42,1.67-0.59
			c0.56-0.2,1.12-0.38,1.72-0.44c-1.22-0.16-2.41,0.19-3.57,0.46c-1.14,0.32-2.27,0.73-3.39,1.16c-1.1,0.45-2.2,0.94-3.25,1.51
			C329.83,261.36,328.75,261.93,327.85,262.75z"/>
		<path class="st7" d="M324.62,258.81c2.44-0.97,4.8-2.06,7.14-3.15l3.52-1.68c1.17-0.56,2.33-1.13,3.56-1.57
			c-1.32,0.13-2.56,0.59-3.79,1.02c-1.22,0.46-2.41,0.99-3.59,1.55C329.11,256.1,326.79,257.31,324.62,258.81z"/>
		<path class="st20" d="M270.44,77.84c0.02,0.24,0.14,0.61,0.32,1.12c0.14,0.37,0.3,0.85,0.51,1.34c0.57,1.59,1.26,3.53,1.26,4.74
			c0,2.08,0.11,5.33,0.88,7.01c0.76,1.68,9.43,21.7,13.39,21.7c3.95,0,18.31-6.5,22.71-15.1c4.45-8.57,4.93-21.68,4.93-28.78
			c0-7.1-2.8-22.39-21.29-22.39c-18.49,0-21.29,13.12-22.34,17.75C269.88,69.32,270.32,76.85,270.44,77.84z"/>
		<g>
			<path class="st7" d="M281.2,93.15c-0.1,0.89-0.94,1.52-1.39,2.21c-0.29,0.27-0.17,0.69,0.03,1.03c0.23,0.34,0.48,0.68,0.8,0.96
				c-0.4-0.17-0.73-0.49-0.98-0.85c-0.24-0.33-0.48-0.89-0.11-1.32c0.29-0.37,0.63-0.65,0.92-0.98
				C280.73,93.87,281.04,93.56,281.2,93.15z"/>
			<path class="st7" d="M282.41,97.42c0.21-0.8,1.42-1.21,2.02-0.61c-0.4-0.06-0.73-0.09-1.07,0.07
				C283,96.96,282.72,97.15,282.41,97.42z"/>
			<path class="st7" d="M278.33,85.01c0.92,0.87,1.68,1.89,2.28,3c0.5,1.15,0.84,2.43,0.7,3.69c-0.14-1.24-0.4-2.45-0.99-3.54
				C279.84,87.01,279.05,86.05,278.33,85.01z"/>
		</g>
		<path class="st23" d="M285.72,79.53c-0.45,0.36-0.09,2.2,0.72,1.71c4.05-2.44,9.54-2.66,12.43-2.59
			C295.98,77.62,289.19,76.87,285.72,79.53z"/>
		<path class="st23" d="M270.76,78.96c0.14,0.37,0.3,0.85,0.51,1.34c1.76,0.5,4.44,1.78,5.11,1.81c0.66,0.02,1.31-0.61,0.71-1.21
			c-1.26-1.25-4.35-1.62-5.48-1.85C271.41,79.02,271.11,78.98,270.76,78.96z"/>
		<path d="M296.53,84.06c-2.4,1.74-7.22,2.8-8.09,0.75c-0.68,1-0.68,2.59,1.25,2.69C291.62,87.6,294.89,87.11,296.53,84.06z"/>
		<path class="st7" d="M288.03,82.97c0.58-0.56,1.28-0.6,1.97-0.72c0.69-0.07,1.4-0.15,2.1-0.12c1.44-0.11,2.84,0.06,4.43-0.02
			c-1.27-1.04-2.89-1.32-4.45-1.36c-0.79,0.08-1.59,0.16-2.35,0.49C289,81.5,288.15,82.11,288.03,82.97z"/>
		<path d="M277.74,85.79c-0.64,1.09-1.73,1.95-3.72,1.74c-1.19-0.13-1.93-2.28-1.99-3.1C272.79,85.94,274.88,86.68,277.74,85.79z"/>
		<path class="st7" d="M277.55,84.06c-0.41-1.09-1.5-1.58-2.44-1.92c-0.51-0.09-1.04-0.18-1.56-0.11c-0.53,0.06-1.05,0.32-1.47,0.67
			c1.05,0.32,1.81,0.5,2.69,0.79c0.45,0.06,0.87,0.23,1.32,0.3C276.56,83.92,276.99,83.89,277.55,84.06z"/>
		<g>
			<path class="st24" d="M292.19,101.29c-0.92,2.28-4.02,5.02-6.3,5.51c-2.3,0.49-3.11-0.2-3.41-1.06c-0.3-0.88-0.32-1.48-0.08-1.84
				C282.96,104.15,288.2,103.43,292.19,101.29z"/>
			<path class="st25" d="M292.19,101.29c-1.74,0.28-6.21,0.94-8.43,0.17c-0.31,0.12-0.63,0.34-0.87,0.36
				c-0.26-0.14-0.57-0.44-0.82-0.57c-0.3,0.11-0.81,0.64-0.71,1.4c0.03,0.38,0.7,1.41,1.94,1.57
				C284.53,104.4,289.32,103.56,292.19,101.29z"/>
		</g>
		<path class="st21" d="M317.59,113.74c8.41,4.16,27.79,10.02,32.19,13.3c7.28,5.42,35.57,42.12,38.01,47.13
			c-5.85,12.02-13.67,14.47-19.03,15.82c-5.37-4.14-29.9-31.02-29.9-31.02l-36.99-7.1l-35.79,8.82c0,0,0.18,32.97-0.31,40.56
			c-6.35,1.1-17.76,0.21-23.92-4.15c0.49-9.24,2.71-57.48,9.83-63.96c7.32-6.67,20.31-12,29.41-13.98
			c3.34,11.35,18.9,21.66,18.9,21.66S317.59,123.78,317.59,113.74z"/>
		<path class="st23" d="M312,92.12c5.3-4.1,7.74-8.1,5.58-11.38c-2.23-3.4-3.79-1.28-5.21,2.23c-0.22-4.21-7.84-10.12-8.01-13.74
			c-0.23-4.9-6.52-6.83-9.55-6.15c-3.04,0.67-16.49,0.1-19.94,1.85c-3.64,1.85-4.12,4.3-4.65,8.88c0,0-2.88-8.62-0.08-15.44
			c3.46-8.42,5.88-11.07,18.61-14.25c12.75-3.2,24.99,2.38,30.42,11.83C324.6,65.4,327.75,88.69,312,92.12z"/>
		<path class="st20" d="M313.77,79.94c1.55-2.77,4.96-2.1,5.26,0.1c0.32,2.2-0.43,5.58-1.45,7.48c-1.01,1.91-2.61,3.54-3.49,4.06
			c-0.88,0.52-1.77,1.12-2.44-0.53C311.01,89.41,313.77,79.94,313.77,79.94z"/>
	</g>
</g>
</svg>
