<?xml version="1.0" encoding="utf-8"?>
<!-- Generator: Adobe Illustrator 24.3.0, SVG Export Plug-In . SVG Version: 6.00 Build 0)  -->
<svg version="1.1" id="Слой_1" xmlns="http://www.w3.org/2000/svg" xmlns:xlink="http://www.w3.org/1999/xlink" x="0px" y="0px"
	 viewBox="0 0 600 600" style="enable-background:new 0 0 600 600;" xml:space="preserve">
<style type="text/css">
	.st0{fill:#B8B8B8;}
	.st1{fill:#E1E1E1;}
	.st2{opacity:0.4;fill:#B8B8B8;}
	.st3{fill:#F4EECD;}
	.st4{fill:#332A23;}
	.st5{fill:#EEA271;}
	.st6{fill:#5A4A3E;}
	.st7{fill:#FFB07F;}
	.st8{fill:#6191C6;}
	.st9{opacity:0.5;fill:#5A4A3E;}
	.st10{opacity:0.4;fill:#FFB07F;}
	.st11{fill:#FFFFFF;}
	.st12{fill:#018EAA;}
	.st13{opacity:0.3;fill:#FFFFFF;}
	.st14{fill:#CD804C;}
	.st15{fill:#E68340;}
	.st16{fill:#EA8844;}
	.st17{fill:#FADD53;}
	.st18{fill:#7BC29C;}
	.st19{fill:#FFB37F;}
	.st20{opacity:0.5;fill:#FFB37F;}
	.st21{fill:#8D5A36;}
	.st22{fill:#9BE3C4;}
	.st23{fill:#D2F5E2;}
	.st24{opacity:0.3;fill:#6190C5;}
	.st25{fill:#AD6409;}
	.st26{fill:#50564A;}
	.st27{fill:#E98640;}
	.st28{opacity:0.2;}
	.st29{fill:#E6543E;}
	.st30{fill:#EA6038;}
	.st31{fill:#804807;}
	.st32{fill:#A05017;}
	.st33{fill:#F2A56E;}
	.st34{opacity:0.5;}
	.st35{fill:#FFAD75;}
	.st36{fill:#D23F2C;}
	.st37{fill:#E2442F;}
	.st38{fill:#E84D6A;}
	.st39{opacity:0.5;fill:#E84D6A;}
	.st40{fill:#216508;}
	.st41{fill:#754627;}
	.st42{fill:#A8171B;}
	.st43{fill:#A46337;}
</style>
<g>
	<g>
		<path class="st0" d="M65.1,385.44c-1.78,4.64,2.01,7.78,3.34,11.69c1.35-0.86,2.71-1.71,4.07-2.55c1.49,3.87,3.06,3.4,5.77,6.82
			c6.33-5.88,6.61,4.63,13.08,0.31c1.03,5.3,3.69,6.41,7.68,2.94c0.42,1.13,0.84,2.27,1.25,3.4c0.97-1.01,1.94-2.03,2.9-3.04
			c2.57,4.89,6.94,5.58,11.91,3.13c2.43,5.19,3.47,5.61,7.86,2.52c7.05,1.12,15.33,10.44,22.34,3.71c0.55,1.01,1.1,2.02,1.65,3.04
			c4.51-3.47,11.35-1.33,14.36,2.18c4.62-4.23,12.57-2.44,16.58,1.01c0.77-0.8,1.54-1.61,2.31-2.41c3.94,9.79,6.25-5.55,9.92,4.9
			c3.52-4.74,4.32-3.16,8.63-3.9c3.48,6.5,10.9,3.72,17.3,4.96c2.84,0.54,7.27-1.79,9.48-2.11c-0.17,0.03,2.37,2.6,4.01,2.61
			c1.53,0.01,2.31-3.59,5.34-3.23c3.99,0.47,4.14,1.47,8.25,1.05c2.77-0.29,1.26,3.73,4,3.89c3.13,0.18,4.33-3.53,5.33-3.48
			c6.46,0.31,14.34-0.51,18.61,4.36c4.43-4.31,9.98-5.89,14.61,0.34c0.71-1.52,1.43-3.04,2.14-4.55c7.28,3.89,18.62,2.39,27.12,4.51
			c2.89-5.84,12.53-0.93,18.69-1.24c5.54-0.28,14.92-7.28,18.73,0.37c0.65-1.12,1.3-2.22,1.95-3.34c0.72,0.93,1.46,1.86,2.18,2.78
			c4.68-4.66,9.89-4.58,14.56-0.33c0.91-2.06,3.02-3.25,3.89-4.99c4.57,2.49,1.51,4.56,6.24,0.37c2.84,4.99,5.68,4.27,8.25-0.81
			c4.64,4.74,14.86,2.16,19.73-0.68c8.1-4.73,14.53,8.04,19.53-3.16c3.85,5.54,8.88,4.03,12.41-1.08c0.85,1.2,1.7,2.39,2.54,3.59
			c1.96-5.24,6.32-4.45,10.38-1c2.32-4.63,15.96-7.06,19.1-5.55c3.66,1.75,17.72-3.61,18.77-5.95c5.14,3.07,2.36,2.78,5.97-1.44
			c1.03,1.26,2.05,2.51,3.08,3.77c0.34-1.42,0.67-2.82,1.01-4.23c3.02-0.86,5.34-0.6,9.09,1.72c3.59-7.41,14.88-1.73,15.41-11.12
			c7.06,2.13,7.84-3.47,13.42-7.1c-1.73-2.98-4.1-8.38-7.19-11.19c-4.46-4.05-8.69-2.35-9.89-8.19c-1.12,0.89-2.24,1.78-3.36,2.67
			c-5.45-6.7-14.29-1-18.67-9.7c-0.99,1.09-1.98,2.17-2.97,3.25c-0.41-1.21-0.82-2.43-1.24-3.64c-8.1,4.72-12.11-7.59-18.95-0.12
			c-0.39-1.64-0.79-3.28-1.18-4.92c-1.97,0.31-3.01,1.54-4.64,2.5c-0.53-0.99-1.06-1.97-1.59-2.94c-0.87,1.05-1.75,2.1-2.62,3.15
			c-3.61-3.66-1.42-5.05-6.13-0.78c-0.53-1.09-1.06-2.17-1.59-3.26c-0.86,1.08-1.71,2.14-2.57,3.22c-3.64-3.42-3.51-3.07-8.13-1.32
			c-3.18-4.33-3.59-4.73-8.04-2.22c-0.57-1.08-1.13-2.17-1.69-3.26c-6.97,3.52-11.99-0.82-18.89,1.37
			c-2.46-3.95-15.56-4.94-18.52-1.31c-2.07-5.66-17.78-5.25-22.69-1.88c-4.28-6.64-9.54,0.58-13.36-2.21
			c-2.45-1.78-2.93,4.14-6.21-0.36c-4.18-5.74-4.81,1.49-7.33,1.44c-7.4-0.17-22.07-8.22-26.99-1.05c-0.68-1.14-1.36-2.28-2.03-3.42
			c-6.26,1.99-14.29,4.89-18.83,0.64c-0.71,0.78-1.4,1.56-2.11,2.34c-2.36-1.98-16.8-0.81-20.76,1.01
			c-5.48-8.91-9.81,4.05-16.66-2.79c-5.68,2.82-16.2,2.61-22.89-0.66c-2.11,4.47-21.38,5.23-24.91,1.39
			c-1.24,1.66-2.65,3.3-3.85,4.95c-0.79-1.46-1.58-2.93-2.37-4.39c-0.59,1.52-1.18,3.05-1.76,4.58c-1.56-0.87-2.76-2.52-4.4-3.47
			c-0.61,1.07-1.23,2.15-1.84,3.22c-0.77-1.01-1.55-2-2.32-3.01c-2.17,3.3-20.67,4.23-22.88,1.89c-3.09,2.96-13.38,6-15.3,3.76
			c-3.06-3.56-12.14,3.15-15.33,2.85c-0.85-1.04-1.7-2.09-2.54-3.14c-0.48,1.49-0.96,2.98-1.45,4.46
			c-0.45,0.12-12.02-1.2-11.77-1.46c-2.1,2.21-8.58,1.61-11.33,1.57c-0.44,1.33-0.88,2.67-1.33,4c-0.92-1.11-1.85-2.21-2.78-3.31
			c-0.43,1.28-0.88,2.55-1.32,3.83c-6.61-5.72-15.58,6.41-23.43,3.86c-8.47-2.75-11.72,12.15-22.76,8.03
			c0.1,1.32,0.21,2.66,0.31,3.99C62.58,376.01,63.12,380.62,65.1,385.44L65.1,385.44z"/>
		<polygon class="st1" points="65.1,380.39 63.29,382.37 64.85,383.78 65.73,385.49 65.53,388.6 68.44,388.42 68.44,392.06 
			72.51,389.52 72.95,392.87 75.16,393.12 77.11,393.85 78.28,396.34 81.65,393.62 83.43,394.65 85.07,396.08 86.66,397.8 
			88.45,398.97 91.36,396.65 92.17,401.06 94.4,400.81 96.12,402.44 99.04,399.59 100.29,402.99 103.19,399.94 104.46,403.42 
			106.5,403.87 108.78,403.19 110.46,405.16 112.69,404.62 115.11,403.07 116.53,406.36 118.33,407.84 120.4,408.03 122.97,405.59 
			124.61,408 126.87,407.12 128.91,407.39 131.1,406.86 132.51,410.86 134.57,411.11 136.65,411.21 138.93,410.02 140.68,412.32 
			142.77,412.4 145.31,409.29 146.96,412.34 149.37,410.06 151.39,410.51 153.39,411.18 155.53,410.71 157.4,412.38 159.58,411.61 
			161.31,414.52 163.57,413.09 165.9,411.01 167.75,413.03 169.93,412.14 171.77,414.31 174.03,412.69 176.1,412.81 177.89,415.53 
			180.21,413.12 181.89,417.17 183.98,416.96 186.38,413.48 188.4,414.06 190.13,418.02 192.51,414.42 194.63,413.85 196.55,415.69 
			198.75,414.12 200.55,417.71 202.67,417.08 204.61,419.04 206.75,418.08 208.78,418.91 210.85,419.05 213.02,417.68 
			215.03,418.88 217.08,419.27 219.26,417.68 221.28,418.59 223.52,415.88 225.54,416.97 227.42,420.41 229.54,419.58 231.76,416.6 
			233.85,416.24 235.91,416.48 237.92,417.94 239.95,418.85 242.09,417.51 244.17,417.29 246.09,421.23 248.17,421.35 
			250.25,421.64 252.46,417.8 254.5,419.05 256.61,417.91 258.7,418.02 260.78,417.37 262.84,417.93 264.89,418.94 266.95,419.88 
			269.06,418.81 271.07,422.17 273.19,420.32 275.27,420.76 277.4,417.79 279.49,417.62 281.55,418.92 283.6,421.11 285.68,422.51 
			287.81,417.95 289.89,419.89 291.98,419.37 294.07,419.79 296.17,418.11 298.27,418.91 300.37,420.45 302.45,418.6 304.53,420.68 
			306.6,420.91 308.68,421.54 310.76,421.23 312.84,420.34 314.93,422.48 316.97,418.31 319.03,417.99 321.15,421.16 323.21,419.81 
			325.32,421.56 327.41,422.33 329.48,422.18 331.51,419.84 333.62,421.24 335.67,419.75 337.78,421.23 339.83,420.26 
			341.88,419.31 343.97,419.5 345.98,417.66 348.04,417.17 350.15,418.08 352.35,421.61 354.31,418.27 356.49,421.05 358.5,419.36 
			360.5,417.45 362.57,417.37 364.7,418.55 366.72,417.42 368.86,418.5 371.05,420.72 372.95,417.4 374.94,415.73 377.2,419.13 
			379.26,418.69 381.18,416.1 383.5,419.99 385.55,419.37 387.58,418.7 389.43,415.3 391.67,417.61 393.84,418.89 395.8,417.19 
			398,418.65 399.96,416.93 402.02,416.7 404.06,415.94 405.98,413.86 408.18,415.19 410.16,414.03 412.21,413.64 414.24,412.9 
			416.43,413.97 418.57,414.59 420.88,416.85 422.9,415.96 425.07,416.67 426.9,414.23 428.69,411.46 431.01,413.46 433.36,415.79 
			435.35,414.79 437.38,414.24 439.18,411.78 441.1,410.38 443.64,413.96 445.2,409.78 447.35,410.2 449.57,411.12 451.6,410.72 
			454.02,412.96 455.82,410.86 457.5,408 459.65,408.41 461.58,407.31 463.99,409.34 466,408.8 468.29,409.92 470.22,408.87 
			471.97,406.86 474.27,407.96 476.24,407.21 478.24,406.65 480.49,407.4 481.92,403.93 484.1,404.35 486.04,403.55 488.58,405.57 
			490.52,404.73 491.89,401.47 494.67,404.32 496.55,403.29 497.86,400.03 500.94,403.78 501.96,399.55 504.54,401.25 
			505.96,398.73 508.06,398.6 511.04,401.28 512.32,398.47 513.82,396.49 516.41,397.67 518.07,396.19 520.03,395.52 522.54,396.14 
			524.49,395.39 526.18,394.06 526.45,390.16 529.5,391.43 530.47,389.15 533.82,390.22 535.4,388.67 534.95,385.34 536.2,383.9 
			539.87,383.06 537.07,380.39 537.96,378.25 535.57,377.19 534.37,375.84 533.32,374.24 532.69,371.87 531.65,369.71 
			529.74,368.76 528.17,367.21 525.06,368.72 523.37,367.51 522.79,363.68 519.43,366.35 518.03,364.27 516.07,363.6 514.45,361.94 
			511.47,364.33 510.04,362.07 507.72,362.57 505.93,361.36 504.33,359.42 502.02,360 500.75,356.65 497.79,359.9 496.55,356.26 
			494.15,357.33 491.83,358.2 490.04,356.75 487.93,356.77 486.35,354.33 484.47,353.19 482.15,354.29 480.23,353.33 477.6,356.14 
			476.42,351.21 474.19,351.9 471.78,353.71 470.19,350.77 467.57,353.91 466.05,350.42 464.02,350.03 461.44,353.14 459.85,349.87 
			457.29,353.08 455.64,350.13 453.46,350.81 451.52,349.76 449.16,351.76 447.5,348.57 445.48,348.01 443.49,347.28 441.12,349.55 
			439.43,346.29 437.12,348.17 434.98,348.69 432.94,348.23 431.15,345.67 428.89,347.25 426.9,346.33 424.77,346.78 422.85,345.29 
			420.54,347.66 418.8,344.3 416.71,344.39 414.49,345.98 412.49,345.09 410.28,346.74 408.41,344.31 406.5,342.45 404.34,343.34 
			402.02,346.34 400.3,341.84 398.18,342.34 395.98,344 393.89,344.11 391.9,342.88 389.91,341.59 387.84,341.31 385.66,342.98 
			383.69,341.15 381.48,343.19 379.33,344.46 377.47,340.7 375.37,340.91 373.17,343.29 371.19,341.61 369.18,340.3 366.97,342.98 
			364.96,341.52 362.77,344.17 360.73,343.24 358.77,340.54 356.73,339.78 354.65,339.55 352.43,343.33 350.34,343.71 
			348.36,340.99 346.25,341.59 344.15,342.24 342.06,342.81 340,342.18 337.94,341.62 335.93,338.89 333.81,340.44 331.77,338.7 
			329.67,339.02 327.59,338.79 325.44,342.28 323.41,338.86 321.31,340.45 319.21,340.93 317.14,340.45 315.05,340.07 
			312.96,339.78 310.85,342.81 308.77,341.26 306.68,341.64 304.58,339.5 302.48,341.84 300.37,339.72 298.3,340.25 296.22,339.93 
			294.16,343.03 292.08,343.14 290.01,342.84 287.93,341.85 285.85,341.38 283.77,341.2 281.72,342.85 279.59,339.37 277.51,339.33 
			275.45,340.01 273.37,340.07 271.36,343.44 269.26,342.19 267.18,342.2 265.06,340.07 263.04,342.37 260.95,341.77 258.83,340.19 
			256.82,342.49 254.69,340.68 252.65,342.05 250.55,341.23 248.43,340.23 246.43,342.16 244.31,341.08 242.16,339.4 240.27,343.8 
			238.14,342.72 236.1,343.32 234.08,344.42 231.86,341.69 229.72,340.42 227.71,341.74 225.64,341.97 223.59,342.48 221.51,342.41 
			219.52,343.96 217.25,340.79 215.36,343.83 213.4,345.74 211.03,341.35 209.27,345.93 207.03,343.7 204.87,342.46 203.02,345.68 
			200.7,342.67 198.79,345.04 196.81,346.38 194.8,347.23 192.32,342.68 190.26,343.07 188.37,345.34 186.13,343.71 184.12,344.6 
			182.29,347.41 180.25,347.91 177.83,344.55 175.92,346.35 173.93,347.39 171.89,347.84 169.9,348.75 167.65,347.36 165.67,348.34 
			163.74,349.72 161.31,346.9 159.19,346.73 157.14,347.09 155.41,350.02 153.38,350.42 151.36,350.99 149.01,349.08 147.2,351.16 
			144.66,348.02 143.21,352.48 140.87,350.86 139.16,353.43 137,352.95 134.79,352.25 132.33,350.07 130.54,351.96 128.26,351.01 
			126.52,353.08 124.19,351.81 122.44,353.78 120.1,352.58 118.77,356.58 116,353.27 114.67,357.09 111.92,354.1 110.11,355.5 
			108.05,355.78 106.43,357.94 104.03,356.78 102.52,359.29 100.88,361.11 98.75,361.04 95.89,358.4 94.23,360.11 92.44,361.33 
			90.04,360.55 87.88,360.62 85.94,361.38 84.35,363.14 83.39,366.48 81.65,367.55 78.9,366.23 77.08,367.18 75.98,369.56 
			73.85,369.79 71.38,369.58 68.49,368.98 68.8,372.96 64.85,371.58 63.67,373.66 64.56,376.88 64.32,378.75 		"/>
		<path class="st0" d="M322.42,356.33c-0.48-1.32-1.02-2.61-1.55-3.91l-0.08-0.2l-0.27,0.01c-0.7,0.01-1.41,0.01-2.11,0.06l-0.17,0
			l-0.15,0.15l-2.3,2.28l0.88-0.05l-1.9-1.77h-0.01l-0.07-0.05c-0.64-0.48-1.3-0.92-1.96-1.38l-0.6-0.41l-0.5,0.57l-2.27,2.63
			l1.24-0.15l-1.99-1.47l-0.7-0.51l-0.56,0.68l-2.2,2.63l1.11-0.25l-2.04-0.92l0.36,0.29l-2-2.66l-0.17-0.23l-0.23-0.08l-2.07-0.71
			l-0.11-0.04l-0.08-0.01l-2.08-0.16l-0.52-0.05l-0.22,0.41l-2.05,3.88l0.38-0.27l-2.07,0.49l0.44,0.17l-2.18-2.56l-0.1-0.12
			l-0.12,0.04c-0.69,0.24-1.36,0.53-2.04,0.8c0.72-0.14,1.44-0.26,2.15-0.41l-0.21-0.08l1.78,2.87l0.14,0.21l0.31-0.04l2.1-0.27
			l0.23-0.03l0.15-0.24l2.4-3.68l-0.74,0.37l2.06,0.32l-0.19-0.05l2.03,0.8l-0.4-0.3l1.93,2.73l0.13,0.18l0.23,0.11l2.02,0.95
			l0.65,0.3l0.46-0.56l2.19-2.65l-1.26,0.15l2.02,1.44l0.71,0.5l0.52-0.67l2.15-2.72l-1.09,0.16c0.68,0.43,1.36,0.85,2.05,1.25
			l-0.07-0.06l2.06,1.59l0.51,0.39l0.37-0.44l2.09-2.47l-0.31,0.15c0.7-0.1,1.39-0.24,2.08-0.36l-0.35-0.18
			C320.96,353.94,321.66,355.15,322.42,356.33z"/>
		<path class="st0" d="M357.41,393.62c-0.56-0.71-1.14-1.4-1.72-2.07l-0.11-0.11l-0.19,0.05l-2.23,0.71l-0.09,0.03l-0.1,0.13
			l-2.48,2.87l1.18,0.18c-0.48-1.54-1.01-3.05-1.55-4.57l-0.25-0.7l-0.76,0.16l-2.13,0.45l-0.18,0.04l-0.17,0.13l-2.22,1.64
			l0.52-0.19l-2.09,0.12l0.54,0.14l-4-2.45l-0.19-0.11l-0.17-0.02l-2.07-0.21l-0.36-0.03l-0.23,0.19l-2.1,1.79l0.84,0.04l-2.06-1.72
			l-0.38-0.32l-0.31,0.32c-0.7,0.71-1.36,1.49-2.04,2.22l0.05-0.03c-0.69,0.48-1.36,0.98-2.02,1.5c0.77-0.33,1.53-0.69,2.28-1.04
			l0.01-0.01l0.04-0.02c0.79-0.63,1.6-1.22,2.38-1.87h-0.69l1.86,1.94l0.36,0.37l0.48-0.32l2.28-1.56l-0.59,0.15l2.05,0.33
			l-0.35-0.14c1.26,0.9,2.63,1.77,3.95,2.6l0.25,0.15l0.29-0.01l2.09-0.11l0.29-0.01l0.23-0.18l2.19-1.68l-0.34,0.15l2.11-0.53
			l-1.01-0.54c0.61,1.49,1.23,2.97,1.9,4.43l0.52,1.14l0.66-0.96l2.15-3.14l-0.19,0.15l2.08-1.08l-0.3-0.06
			C355.99,392.51,356.69,393.07,357.41,393.62z"/>
		<path class="st0" d="M402.99,365.23c-0.73,0.08-1.47,0.17-2.2,0.28h0.11l-1.99-0.65l0.26,0.17l-1.62-2.69l-0.32-0.52l-0.58,0.37
			l-2.33,1.46l0.78-0.07l-1.95-0.99l-0.23-0.12l-0.31,0.05l-2.15,0.4l0.75,0.17l-1.91-1.49l-0.64-0.51l-0.6,0.58
			c-0.78,0.77-1.55,1.57-2.3,2.37l1.49,0.22c-0.6-1.11-1.18-2.23-1.8-3.32l-0.29-0.51l-0.52,0.03l-2.08,0.14l-0.27,0.02l-0.17,0.13
			l-2.15,1.71l0.68-0.07l-2.05-0.77l-0.33-0.12l-0.22,0.18c-0.71,0.59-1.39,1.22-2.08,1.85l0.45,0.06c-0.7-0.76-1.39-1.52-2.12-2.24
			c0.51,0.89,1.06,1.75,1.61,2.62l0.15,0.24l0.3-0.17c0.79-0.49,1.58-0.96,2.35-1.47l-0.55,0.06l1.94,1.01l0.32,0.16l0.36-0.23
			l2.3-1.5l-0.44,0.15l2.09-0.02l-0.81-0.46c0.54,1.13,1.12,2.25,1.69,3.38l0.57,1.14l0.92-0.91c0.78-0.78,1.56-1.56,2.31-2.36
			l-1.23,0.1l1.94,1.45l0.35,0.26l0.39-0.09l2.12-0.51l-0.54-0.06l2.02,0.86l0.45,0.19l0.33-0.26l2.18-1.68l-0.9-0.15l1.98,2.43
			l0.13,0.16l0.13,0.01l2.07,0.27l0.08,0.01l0.04-0.01C401.61,365.75,402.3,365.49,402.99,365.23z"/>
		<path class="st0" d="M436.07,393.72c-0.98,0.97-1.92,1.95-2.86,2.94l0.53,0.08c-0.43-1.2-0.85-2.4-1.32-3.58l-0.1-0.24l-0.29-0.07
			l-2.01-0.49l-0.33-0.07l-0.26,0.28l-2.7,3.01l1.3,0.15l-1.51-3.3l-0.57-1.25l-0.89,1.08l-2.61,3.18l1.53,0.12l-1.63-2.97
			l-0.37-0.68l-0.74,0.23l-2.18,0.7l0.72,0.07l-1.94-1.04l-0.57-0.3l-0.47,0.41l-2.32,2.04l1.34,0.26l-1.74-3.16l-0.17-0.32
			l-0.31-0.07l-2.04-0.48l0.05,0.02l-2.03-0.64l-0.39-0.12l-0.25,0.26l-2.28,2.36l0.76,0.13l-1.9-3.14l-0.16-0.26l-0.21,0.18
			c-0.73,0.67-1.45,1.37-2.16,2.07c0.83-0.56,1.65-1.11,2.46-1.69l-0.36-0.08l1.47,3.36l0.25,0.57l0.51-0.44l2.46-2.16l-0.64,0.14
			l1.97,0.81l0-0.01l0.05,0.02l1.99,0.65l-0.49-0.4l1.59,3.22l0.48,0.97l0.86-0.71l2.38-1.96l-1.03,0.11l1.93,1.06l0.34,0.18
			l0.39-0.12l2.18-0.67l-1.11-0.44l1.67,2.95l0.68,1.21l0.84-1.09l2.52-3.25l-1.46-0.16l1.67,3.23l0.57,1.12l0.73-0.96l2.45-3.21
			l-0.59,0.21l2.05,0.31l-0.38-0.31c0.54,1.15,1.13,2.27,1.71,3.4l0.24,0.47l0.29-0.39C434.49,395.96,435.3,394.85,436.07,393.72z"
			/>
		<path class="st0" d="M491.67,374.88c-0.26-1.27-0.59-2.51-0.9-3.76l-0.09-0.35l-0.4,0.14c-0.81,0.28-1.61,0.57-2.4,0.88l-2.4,0.77
			l0.65,0.11l-1.72-1.55l-0.19-0.16l-0.31-0.01l-2.1-0.05l0.71,0.39l-1.53-2.47l-0.1-0.16l-0.19-0.12l-1.86-1.16l-0.42-0.26
			l-0.46,0.21l-2.34,1.08l0.82,0l-1.92-0.93l-0.62-0.3l-0.46,0.5c-0.87,0.93-1.73,1.88-2.58,2.85l1.46,0.39
			c-0.42-1.64-0.9-3.27-1.38-4.88l-0.21-0.7l-0.62,0.23l-2.2,0.81l-0.11,0.04l-0.05,0.04c-0.78,0.62-1.53,1.3-2.28,1.97l0.47,0.11
			c-0.61-0.94-1.22-1.87-1.87-2.79c0.41,1.04,0.86,2.06,1.31,3.08l0.14,0.31l0.33-0.2c0.86-0.54,1.71-1.06,2.54-1.63l-0.16,0.08
			l2.27-0.58l-0.83-0.47c0.31,1.67,0.62,3.33,0.99,4.98l0.33,1.51l1.12-1.12c0.91-0.91,1.8-1.83,2.67-2.76l-1.08,0.19l1.91,0.97
			l0.4,0.2l0.42-0.19l2.32-1.1l-0.88-0.05l1.88,1.13l-0.29-0.28l1.64,2.4l0.27,0.4l0.44-0.02l2.1-0.07l-0.5-0.17l1.87,1.36
			l0.33,0.24l0.31-0.14l2.38-1.03c0.76-0.38,1.51-0.79,2.26-1.21l-0.49-0.21C490.61,372.53,491.11,373.72,491.67,374.88z"/>
		<path class="st0" d="M248.87,393.62c0.72-0.54,1.42-1.11,2.11-1.68l-0.3,0.06l2.08,1.08l-0.19-0.15l2.16,3.14l0.66,0.96l0.52-1.14
			c0.67-1.45,1.3-2.94,1.91-4.43l-1.01,0.54l2.11,0.53l-0.35-0.15l2.19,1.68l0.23,0.18l0.29,0.01l2.09,0.11l0.3,0.01l0.25-0.15
			c1.33-0.83,2.68-1.7,3.95-2.6l-0.35,0.14l2.06-0.33l-0.59-0.15l2.29,1.56l0.49,0.32l0.36-0.37l1.86-1.94h-0.69
			c0.77,0.65,1.58,1.24,2.37,1.87l0.04,0.02l0,0.01c0.75,0.36,1.51,0.71,2.29,1.04c-0.66-0.52-1.34-1.01-2.02-1.5l0.05,0.03
			c-0.68-0.73-1.34-1.51-2.04-2.22l-0.31-0.32l-0.38,0.32l-2.06,1.72l0.84-0.04l-2.1-1.79l-0.23-0.19l-0.36,0.03l-2.07,0.21
			l-0.17,0.02l-0.19,0.11l-4,2.45l0.54-0.14l-2.09-0.12l0.52,0.19l-2.22-1.64l-0.17-0.13l-0.18-0.04l-2.13-0.45l-0.76-0.16
			l-0.25,0.7c-0.54,1.52-1.07,3.03-1.55,4.57l1.17-0.18l-2.47-2.87l-0.11-0.13l-0.09-0.03l-2.22-0.71l-0.2-0.05l-0.1,0.11
			C250.01,392.22,249.43,392.91,248.87,393.62z"/>
		<path class="st0" d="M203.28,365.23c0.69,0.27,1.39,0.52,2.09,0.75l0.03,0.01l0.08-0.01l2.07-0.27l0.13-0.01l0.13-0.16l1.98-2.43
			l-0.9,0.15l2.18,1.68l0.33,0.26l0.44-0.19l2.01-0.86l-0.54,0.06l2.12,0.51l0.4,0.09l0.35-0.26l1.94-1.45l-1.24-0.1
			c0.76,0.81,1.53,1.58,2.31,2.36l0.92,0.91l0.57-1.14c0.57-1.13,1.15-2.24,1.69-3.38l-0.8,0.46l2.09,0.02l-0.44-0.15l2.29,1.5
			l0.36,0.23l0.32-0.16l1.94-1.01l-0.55-0.06c0.77,0.51,1.56,0.99,2.35,1.47l0.3,0.17l0.15-0.24c0.55-0.87,1.1-1.73,1.61-2.62
			c-0.73,0.72-1.42,1.48-2.12,2.24l0.45-0.06c-0.69-0.63-1.37-1.25-2.08-1.85l-0.22-0.18l-0.33,0.12l-2.05,0.77l0.68,0.07
			l-2.15-1.71l-0.17-0.13l-0.27-0.02l-2.08-0.14l-0.52-0.03l-0.29,0.51c-0.62,1.09-1.21,2.21-1.8,3.32l1.49-0.22
			c-0.76-0.8-1.52-1.59-2.31-2.37l-0.6-0.58l-0.64,0.51l-1.91,1.49l0.74-0.17l-2.14-0.4l-0.31-0.05l-0.23,0.12l-1.96,0.99l0.78,0.07
			l-2.33-1.46l-0.58-0.37l-0.32,0.52l-1.62,2.69l0.26-0.17l-1.99,0.65h0.11C204.75,365.4,204.02,365.31,203.28,365.23z"/>
		<path class="st0" d="M170.21,393.72c0.77,1.13,1.58,2.24,2.38,3.34l0.28,0.39l0.24-0.47c0.58-1.13,1.18-2.25,1.72-3.4l-0.39,0.31
			l2.05-0.31l-0.59-0.21l2.45,3.21l0.73,0.96l0.57-1.12l1.66-3.23l-1.46,0.16l2.52,3.25l0.84,1.08l0.68-1.2l1.68-2.95l-1.11,0.44
			l2.19,0.67l0.38,0.12l0.34-0.18l1.94-1.06l-1.03-0.11l2.38,1.96l0.86,0.71l0.48-0.97l1.59-3.22l-0.49,0.4l1.99-0.65l0.05-0.02
			l0,0.01l1.97-0.81l-0.64-0.14l2.46,2.16l0.51,0.44l0.25-0.57l1.47-3.36l-0.36,0.08c0.81,0.58,1.63,1.14,2.46,1.69
			c-0.71-0.7-1.43-1.4-2.16-2.07l-0.2-0.18l-0.16,0.26l-1.91,3.14l0.76-0.13l-2.27-2.36l-0.25-0.26l-0.39,0.12l-2.03,0.64l0.05-0.02
			l-2.04,0.48l-0.31,0.07l-0.18,0.32l-1.73,3.16l1.34-0.26l-2.32-2.04l-0.47-0.41l-0.57,0.3l-1.95,1.04l0.72-0.07l-2.18-0.7
			l-0.73-0.23l-0.37,0.68l-1.63,2.97l1.53-0.12l-2.61-3.18l-0.89-1.08l-0.57,1.25l-1.51,3.3l1.3-0.15l-2.71-3.01l-0.26-0.28
			l-0.33,0.07l-2.01,0.49l-0.29,0.07l-0.1,0.24c-0.47,1.17-0.89,2.37-1.31,3.58l0.52-0.08
			C172.13,395.67,171.19,394.68,170.21,393.72z"/>
		<path class="st0" d="M114.61,374.88c0.57-1.16,1.06-2.35,1.58-3.53l-0.48,0.22c0.74,0.41,1.49,0.82,2.26,1.2l2.37,1.03l0.32,0.14
			l0.34-0.24l1.87-1.36l-0.49,0.17l2.1,0.07l0.44,0.02l0.28-0.4l1.65-2.4l-0.29,0.28l1.88-1.13l-0.88,0.05l2.32,1.1l0.41,0.19
			l0.41-0.2l1.91-0.97l-1.09-0.19c0.88,0.93,1.77,1.85,2.67,2.76l1.13,1.12l0.34-1.51c0.36-1.65,0.68-3.31,0.98-4.98l-0.82,0.47
			l2.27,0.58l-0.16-0.08c0.82,0.57,1.68,1.09,2.54,1.63l0.34,0.2l0.13-0.31c0.45-1.02,0.91-2.04,1.31-3.08
			c-0.65,0.91-1.26,1.85-1.87,2.79l0.47-0.11c-0.75-0.67-1.5-1.34-2.28-1.97l-0.05-0.04l-0.11-0.04l-2.2-0.81l-0.62-0.23l-0.21,0.7
			c-0.48,1.61-0.96,3.24-1.38,4.88l1.46-0.38c-0.84-0.97-1.7-1.92-2.58-2.85l-0.46-0.5l-0.62,0.3l-1.93,0.93l0.82,0l-2.33-1.08
			l-0.46-0.21l-0.42,0.26l-1.86,1.16l-0.18,0.12l-0.1,0.16l-1.53,2.47l0.71-0.39l-2.1,0.05l-0.31,0.01l-0.18,0.16l-1.72,1.55
			l0.65-0.11l-2.41-0.78c-0.79-0.31-1.59-0.6-2.4-0.88l-0.4-0.14l-0.09,0.35C115.2,372.37,114.87,373.62,114.61,374.88z"/>
	</g>
	<path class="st2" d="M418.41,363.76c27.41-4.82,50.83,0.38,75.7,12.35c0.15,0.08,20.3,9.21,12.43,11.49
		c-6.53,1.88-13.42,0.2-20.34,1.28c-9.83,1.52-14.62,5.97-24.44,6.51c-8.96,0.5-15.92-3.34-25.1-2.56
		c-7.48,0.65-20.83,2.12-26.37,6.4c-12.21,9.43-20.63,0.22-24.58-17.1C381.96,365.71,405.02,385.38,418.41,363.76z"/>
	<path class="st2" d="M91.16,387.02c1.78,0.58,15.01-5.71,17.58-6.52c6.43-2.02,12.71-4.46,19.38-5.89
		c15.28-3.27,31.55-3.21,46.42,1.96c13.03,4.53,11.59,13.09-1.89,17.55c-12.15,4.01-24.56,3.16-37.56,3.16
		c-10.25,0-20.66,0.57-30.89,0c-4.64-0.26-23.12-3.03-12.19-9.97C91.73,387.21,91.44,387.12,91.16,387.02z"/>
	<path class="st2" d="M212.19,350.52c27.83,0,56.5,2.01,84.25,0c25.67-1.85,50.21-8.29,76.18-1.81c30.06,7.51-8.54,16.43-14.78,24.2
		c4.41,3.74,6,9.5,1.55,14.26c-7.17,7.68-24.9,5.19-32.9,2.17c-13.11-4.93-24.36-12.43-39.46-11.17
		c-22.05,1.82-71.81,27.31-70.25,0.01c0.08-1.43,2.81-5.09,4.3-6.09C208.91,373.15,178.46,350.52,212.19,350.52z"/>
	<g>
		<g>
			<path class="st3" d="M119.51,373.64c-0.55-0.44-1.12-0.83-1.66-1.07c-2.04,0.77-3.09,2.86-4.2,3.6c-1.13,0.73-5.45,3.53-7.19,5.3
				c-1.77,1.77-3.38,4.66-3.46,5.77c0.28,0.36,0.66,0.82,1.09,1.24c0.34-1.68,3.04-4.87,4.52-5.91c1.48-1.08,4.92-2.92,6.11-4.23
				C115.92,377.02,118.64,375.08,119.51,373.64z"/>
			<path d="M119.51,373.64c-0.86,1.44-3.59,3.39-4.8,4.71c-1.19,1.3-4.63,3.15-6.11,4.23c-1.48,1.04-4.18,4.23-4.52,5.91
				c0.66,0.67,1.45,1.33,2.26,1.79c0.7,0.35,1.39,0.56,2.03,0.4c0.65-0.16,8.97-3.58,12.64-0.04c4.08-3.49,2.51-12.4,2.51-12.4
				C122.87,376.94,121.22,374.94,119.51,373.64z"/>
		</g>
		<g>
			<path class="st3" d="M109.55,376.12c-0.56-0.44-1.12-0.82-1.67-1.06c-2.04,0.76-3.1,2.86-4.2,3.59
				c-1.12,0.74-5.43,3.54-7.19,5.31c-1.75,1.77-3.37,4.65-3.45,5.77c0.28,0.36,0.66,0.82,1.09,1.25c0.35-1.69,3.04-4.88,4.52-5.92
				c1.47-1.07,4.92-2.92,6.1-4.22C105.95,379.51,108.67,377.57,109.55,376.12z"/>
			<path d="M109.55,376.12c-0.87,1.45-3.59,3.39-4.81,4.72c-1.18,1.3-4.63,3.16-6.1,4.22c-1.48,1.04-4.17,4.24-4.52,5.92
				c0.65,0.66,1.45,1.32,2.26,1.78c0.7,0.35,1.39,0.56,2.02,0.4c0.65-0.15,8.98-3.58,12.65-0.03c4.07-3.49,2.5-12.41,2.5-12.41
				C112.9,379.43,111.26,377.43,109.55,376.12z"/>
		</g>
		<path class="st4" d="M176.79,379.27c0.55,5.04-4.67,10.26-9.74,10.98c-5.02,0.72-43.58,0.55-47.36,0
			c-1.18-1.88-0.84-6.87-0.43-10.12c0.2-1.76,0.43-3.02,0.43-3.02s3.22,0.17,4.87,0c-5.07-4.33-3.08-13.69-1.7-16.32l17.18,1.18
			c0,0,18.91,1.79,25.4,4.33C172.64,367.74,176.24,374.23,176.79,379.27z"/>
		<path class="st5" d="M150.41,324.74c2.22,6.32,6.47,21.46,8.35,26.27c1.88,4.8,5.5,12.1,8.13,14.21
			c2.63,2.11,8.31-0.29,10.13,4.88c1.83,5.16-0.35,9.59-3.02,6.31c-2.67-3.28-5.22-1.98-7.68-2.6c-2.46-0.62-4.08-3.4-7.06-5.45
			c-2.99-2.06-9.56-8.43-12.64-12.41c-3.08-3.97-9.21-21.38-10.27-26.8C135.27,323.73,148.19,318.44,150.41,324.74z"/>
		<path class="st6" d="M168.14,382.15c0.55,5.04-4.67,10.26-9.74,10.98c-5.01,0.72-43.58,0.55-47.35,0
			c-1.19-1.87-0.84-6.86-0.44-10.11c0.21-1.76,1.3-4.91,1.3-4.91s2.36,2.05,4,1.88c-5.08-4.32-3.08-13.69-1.7-16.31l17.18,1.18
			c0,0,18.91,1.78,25.4,4.32C163.99,370.63,167.59,377.11,168.14,382.15z"/>
		<path class="st7" d="M145.08,327.55c-6.72-0.1-14.58-8.08-16.4-9.88c0.89-0.23,1.01-2.52,1.01-4.67c-0.03-1.39-0.1-2.73-0.1-3.44
			l14.76,2.33c0,0,0.38,3.44,0.38,6.85c0.66,0.15,1.29,0.38,1.87,0.71c0.33,0.15,0.66,0.35,0.96,0.56
			C148.22,322.34,149.96,327.65,145.08,327.55z"/>
		<path class="st8" d="M156.78,369.18c-7.93,2.5-35.31,2.33-43.24-6.14c0.72-2.51,3.26-17.84,5.94-30.27
			c2.71-12.42,7.76-14.76,9.2-15.1c1.82,1.79,9.68,9.77,16.4,9.89c4.87,0.08,3.14-5.22,2.48-7.56c0.84,0,3.22,0.79,4,1.61
			c0.98,1.58,1.96,6.22,2.71,8.28C156.44,335.86,156.61,361.05,156.78,369.18z"/>
		<path class="st7" d="M125.63,326.3c3.2-1.88,9.01,0,12.07,5.94c3.06,5.95,9.37,20.36,11.89,24.86
			c2.52,4.51,7.12,11.24,10.01,12.96c2.89,1.72,8.18-1.44,10.71,3.43c2.52,4.87,0.98,9.55-2.13,6.66c-3.1-2.88-5.44-1.24-7.96-1.52
			c-2.52-0.28-4.51-2.8-7.75-4.42c-3.24-1.63-10.63-7.04-14.23-10.54c-3.6-3.52-12.07-19.91-13.87-25.13
			C122.56,333.32,122.56,328.1,125.63,326.3z"/>
		<path class="st9" d="M153.39,384.49c-2.71,1.61-18.22,2.51-31.71,0.09c-3.86-0.69-7.63-1.19-11.07-1.56
			c0.21-1.76,1.3-4.91,1.3-4.91s2.36,2.05,4,1.88c4.67,2.16,15.48,4.5,21.79,4.5C143.99,384.49,149.96,384.66,153.39,384.49z"/>
		<path class="st10" d="M129.69,312.99c-0.03-1.39-0.1-2.73-0.1-3.44l14.76,2.33c0,0,0.38,3.44,0.38,6.85
			C139.5,318.73,134.62,316.36,129.69,312.99z"/>
		<path class="st7" d="M153.31,265.42c2.51,1.88,6.42,5.93,6.31,10.88c-0.11,4.95-0.11,9.67,0,12.53c0.1,2.86,1.86,8.57,1.42,13.19
			c-0.44,4.61-8.24,12.97-13.52,13.85c-5.27,0.88-14.84-1.76-20.45-5.17c-5.6-3.41-8.02-9.34-8.9-14.62
			c-0.88-5.28,0.22-21.21,2.64-25.27c2.41-4.07,9.56-9.57,17.03-9.57C145.33,261.25,150.08,263,153.31,265.42z"/>
		<g>
			<path class="st11" d="M129.72,293.46c0,2.98,2.4,3.86,4.95,3.86c2.53,0,4.84-1.42,4.95-3.86c0.2-4.17-2.21-5.38-4.95-5.38
				c-1.43,0-2.73,0.49-3.62,1.48c-0.71,0.77-1.18,1.85-1.29,3.24l0,0C129.73,293.01,129.72,293.24,129.72,293.46z"/>
			<path class="st12" d="M129.75,292.79L129.75,292.79c0.2,1.74,1.59,3.1,3.27,3.1c1.82,0,3.3-1.58,3.3-3.52
				c0-1.94-1.48-3.53-3.3-3.53c-0.75,0-1.43,0.27-1.98,0.71C130.33,290.32,129.86,291.4,129.75,292.79z"/>
			<path d="M131.26,292.37c0,0.97,0.79,1.75,1.76,1.75c0.97,0,1.76-0.78,1.76-1.75s-0.79-1.76-1.76-1.76
				C132.05,290.61,131.26,291.4,131.26,292.37z"/>
			<path d="M134.23,288.73c-1.24,0-2.37,0.31-3.29,0.93c0.91-1.07,2.24-1.6,3.73-1.6c2.73,0,4.95,1.21,4.95,5.39
				c0,0.12,0,0.24-0.01,0.35C139.49,289.89,137.13,288.73,134.23,288.73z"/>
			<path class="st13" d="M131.3,291.3c0,0.46,0.37,0.84,0.83,0.84c0.46,0,0.82-0.38,0.82-0.84c0-0.46-0.36-0.84-0.82-0.84
				C131.66,290.46,131.3,290.84,131.3,291.3z"/>
		</g>
		<g>
			<path class="st11" d="M150.67,291.96c0,2.96,1.57,4.3,4.56,3.77c2.05-0.36,2.97-1.6,2.97-3.77c0-2.97-1.69-5.37-3.76-5.37
				C152.35,286.59,150.67,288.98,150.67,291.96z"/>
			<path d="M154.29,287.3c-1.31,0-2.47,0.84-3.18,2.12c0.64-1.68,1.88-2.83,3.32-2.83c2.08,0,3.76,2.4,3.76,5.37
				c0,0.06-0.01,0.12-0.01,0.18C158.12,289.46,156.4,287.3,154.29,287.3z"/>
			<path class="st12" d="M150.67,291.51c0,1.74,1.18,3.16,2.65,3.16c1.46,0,2.65-1.42,2.65-3.16c0-1.74-1.19-3.16-2.65-3.16
				C151.85,288.35,150.67,289.76,150.67,291.51z"/>
			<path d="M151.45,291.51c0,0.77,0.61,1.39,1.36,1.39c0.75,0,1.37-0.62,1.37-1.39c0-0.76-0.61-1.39-1.37-1.39
				C152.06,290.12,151.45,290.74,151.45,291.51z"/>
			<path class="st13" d="M151.33,290.84c0,0.46,0.37,0.84,0.83,0.84c0.46,0,0.83-0.38,0.83-0.84c0-0.46-0.37-0.84-0.83-0.84
				C151.69,290,151.33,290.39,151.33,290.84z"/>
		</g>
		<path class="st14" d="M149.91,280.63l-0.17-0.47c-0.24-0.69,0.12-1.43,0.85-1.5c0.66-0.07,2.3-0.19,3.27,0.1
			c2.13,0.65,2.63,2.3,2.74,3.07c-1.04-0.33-3.59,0.22-5.27,0.03C150.6,281.78,150.15,281.31,149.91,280.63z"/>
		<path class="st14" d="M139.22,280.9c0-0.78-0.3-1.67-1.21-1.86c-1.17-0.26-2.6,0.03-3.67,0.41c-2.34,0.85-2.76,2.53-2.82,3.31
			c1.15-0.42,4.04-0.11,5.92-0.46C138.25,282.15,139.22,281.9,139.22,280.9z"/>
		<path class="st15" d="M148.79,303.23c0.87-0.33,1.52-1.34,1.36-2.38c-0.07-0.52-0.34-1.01-0.73-1.35
			c-0.46-0.37-0.94-0.49-1.42-0.59c-0.95-0.16-1.93-0.11-2.85,0.15c-0.9,0.26-1.84,0.81-2.21,1.68c0.61-0.71,1.49-0.98,2.33-1.14
			c0.86-0.14,1.76-0.16,2.59-0.01c0.42,0.07,0.85,0.22,1.12,0.4c0.31,0.24,0.52,0.59,0.63,0.97
			C149.82,301.72,149.52,302.66,148.79,303.23z"/>
		<path class="st16" d="M151.11,306.03c-0.94,1.42-2.92,2.82-4.68,2.82c-1.76,0-3.41,0.25-6.21-1.4
			C141.87,306.94,147.91,306.69,151.11,306.03z"/>
		<path class="st17" d="M157.69,271.74c1.9,3.6,0.5,10.16,1.87,14.85c3.6-5.31,4.38-12.2,3.06-15.99
			c-1.33-3.79-10.23-15.92-24.26-15.53c-14.02,0.37-20.89,5.09-24.05,10.25c-4.93,8.05-5.17,16.89-1.95,23.53
			c3.22,6.63,9.41,4.36,9.79,8.53c0-8.91,0.47-15.59,2.75-17.49c0,0.19,0.95,5.12,1.14,6.44c0.95-2.65,4.17-7.76,7.2-7.2
			c3.03,0.57,5.12-0.95,7.39-1.51c-1.9,0.75-2.2,2.84-4.32,3.41c4.51,0.38,10.57,0.38,13.79-1.32
			C153.34,278,156.75,274.59,157.69,271.74z"/>
		<g>
			<path class="st7" d="M118.8,292.28c-0.65-1.05-2.8-2.11-3.72-0.67c-0.92,1.43-1.32,6.23,0.75,9.07c2.41,3.35,4.24,3.48,5.01,2.56
				C121.61,302.3,118.8,292.28,118.8,292.28z"/>
			<path class="st15" d="M116.28,294.92c0.05-0.7,0.63-1.23,1.2-1.1c0.57,0.07,1.15,0.51,1.4,1.27c0.21,0.64,0.34,1.52,0.01,2.2
				c-0.32,0.66-0.8,1-1.24,1.32l0.09-0.21c0.01,0.39,0.28,0.86,0.53,1.24c0.26,0.39,0.55,0.78,0.89,1.09
				c-0.38-0.22-0.73-0.52-1.05-0.88c-0.3-0.39-0.63-0.76-0.74-1.44l-0.02-0.13l0.1-0.09c0.43-0.35,0.85-0.71,1.06-1.21
				c0.2-0.49,0.17-1.1,0-1.71c-0.16-0.54-0.58-0.97-1.05-1.1C117,294.03,116.45,294.24,116.28,294.92z"/>
		</g>
	</g>
	<g>
		<g>
			<path class="st18" d="M231.24,329.62c11.06-1.77,45.15-2.22,59.43-2.22c14.28,0,48.37,0.45,59.43,2.22
				c11.06,1.77,26.3,10.98,26.3,20.2c0,9.21-68.23,19.35-85.73,19.35c-17.51,0-85.73-10.14-85.73-19.35
				C204.94,340.6,220.18,331.38,231.24,329.62z"/>
			<g>
				<path class="st19" d="M234.45,352.46c-0.06,1.46,0.03,2.96,0.25,4.45c0.05,0.42,0.11,0.83,0.19,1.25
					c0.03,0.14,0.06,0.29,0.09,0.47c0.19,1.1,0.47,2.19,0.77,3.17c0.05,0.17,0.11,0.36,0.19,0.56c0.22,0.7,0.44,1.32,0.72,1.93
					c0.5,1.16,1.08,2.18,1.68,3.02c0.3,0.39,0.61,0.75,0.92,1.02c0.3,0.3,0.64,0.55,0.97,0.72h0.03c0.08,0.06,0.11,0.08,0.19,0.11
					h0.28c5.86,0.17,24.52-0.69,32.89,0c8.51,0.69,31.79,1.39,38.01,3.45h0.03c3.7,1.28,11.5,5.09,18.3,8.24
					c4.62,2.15,8.79,3.96,10.92,4.43c5.31,1.16,12.91,2.07,15.21-5.53c0.42-1.35,0.52-2.6,0.36-3.73c-0.03-0.33-0.08-0.64-0.17-0.94
					c-0.06-0.25-0.14-0.5-0.22-0.74c-0.22-0.64-0.52-1.25-0.93-1.83c-0.17-0.25-0.33-0.49-0.56-0.74c-0.19-0.25-0.39-0.5-0.63-0.72
					c-0.17-0.19-0.36-0.38-0.56-0.55c-0.16-0.17-0.36-0.33-0.55-0.5c-0.22-0.19-0.47-0.36-0.72-0.56c-0.42-0.31-0.86-0.61-1.33-0.91
					c-0.47-0.27-0.94-0.56-1.41-0.83c-0.08-0.05-0.17-0.08-0.22-0.12c-0.86-0.47-1.71-0.87-2.55-1.26c-0.3-0.14-0.61-0.25-0.88-0.39
					c-0.42-0.19-0.99-0.39-1.68-0.57l-0.03-0.03c-4.56-1.43-14.43-3.45-23.39-5.03c-6.36-1.14-12.24-2.07-15.43-2.41
					c-3.59-0.42-13.71-3.48-24.85-6.9h-0.05c-14.46-4.43-30.71-9.37-36.85-9.68h-0.28C236.97,341.13,234.59,346.44,234.45,352.46z"
					/>
				<path class="st20" d="M234.45,352.46c-0.06,1.88,0.11,3.82,0.44,5.7c0.03,0.14,0.06,0.29,0.09,0.47
					c0.22,1.08,0.47,2.15,0.77,3.17c0.05,0.17,0.11,0.36,0.19,0.56c0.22,0.66,0.47,1.32,0.72,1.93c0.5,1.16,1.08,2.18,1.68,3.02
					c0.3,0.39,0.61,0.75,0.92,1.02c0.3,0.3,0.64,0.55,0.97,0.72c0.08,0.06,0.14,0.08,0.22,0.11h0.28c5.86,0.17,24.52-0.69,32.89,0
					c8.51,0.69,31.79,1.39,38.01,3.45h0.03c3.7,1.28,11.5,5.09,18.3,8.24c4.62,2.15,8.79,3.96,10.92,4.43
					c5.31,1.16,12.91,2.07,15.21-5.53c0.42-1.35,0.52-2.6,0.36-3.73c-0.05,0.61-0.17,1.21-0.36,1.88c-2.3,7.6-9.9,6.68-15.21,5.52
					c-1.21-0.28-3.09-0.97-5.33-1.94c-1.69-0.68-3.6-1.54-5.59-2.48c-6.22-2.88-13.21-6.31-17.22-7.86
					c-0.39-0.14-0.77-0.27-1.11-0.38c-6.22-2.07-29.49-2.76-38.01-3.45c-8.51-0.69-27.65,0.19-33.17,0
					c-0.33-0.13-0.66-0.36-0.97-0.66c-0.36-0.27-0.72-0.66-1.05-1.11c-0.03-0.03-0.03-0.06-0.06-0.09
					c-0.47-0.63-0.94-1.38-1.33-2.23c-0.05-0.06-0.08-0.14-0.11-0.23C235.58,360.12,234.62,356.25,234.45,352.46z"/>
				<path class="st21" d="M329.96,380.85c4.62,2.15,8.79,3.96,10.92,4.43c5.31,1.16,12.91,2.07,15.21-5.53
					c2.32-7.6-5.06-11.49-10.36-13.82c-0.42-0.19-1-0.39-1.69-0.57c4.92,3.62,4.01,8.87,3.32,10.72
					C346.66,377.92,344.58,383.44,329.96,380.85z"/>
				<path class="st22" d="M220.64,367.09c2.57,0.49,5.11,0.91,7.6,1.21c-3.01-4.31-4.37-10.67-4.15-15.78
					c0.25-5.15,4.84-12.61,8.29-14.62c-6.36-1.55-12.41-2.3-16.97-1.97c-7.22,0.53-13.65,3.9-15.04,12.36
					C199.54,353.29,201.28,363.41,220.64,367.09z"/>
				<path class="st23" d="M240.2,368.9c-2.77-6.4-1.25-22.55,2.81-27.42c0.49-0.59,0.43-1.15-0.29-1.41c-3-1.07-6.08-2.02-9.1-2.8
					c-0.74-0.19-1.88-0.02-2.46,0.46c-3.46,2.89-7.44,9.8-7.67,14.72c-0.22,4.97,0.98,11.08,3.65,15.58
					c0.39,0.66,1.37,1.24,2.12,1.33c3.58,0.41,7.01,0.67,10.2,0.72C240.24,370.11,240.5,369.61,240.2,368.9z"/>
				<path class="st24" d="M220.64,364.33c2.23,0.43,2.93,0.57,5.1,0.85c0.43,0.61,2.83,1.34,3.54,1.42
					c3.58,0.43,7.01,0.68,10.2,0.74c0.07,0,0.12-0.03,0.18-0.04c0.16,0.57,0.34,1.12,0.54,1.6c0.3,0.71,0.04,1.21-0.72,1.2
					c-3.2-0.06-6.63-0.31-10.2-0.72c-0.71-0.09-1.59-0.6-2.03-1.21c-2.17-0.28-4.38-0.65-6.61-1.07
					c-18.58-3.54-20.91-12.99-20.34-18.17C200.88,354.2,205.03,361.36,220.64,364.33z"/>
			</g>
			<path class="st20" d="M239.54,367.34c0.08,0.11,0.14,0.21,0.22,0.33v0.02h0.03c0.3,0.5,0.61,1,0.94,1.46
				c5.86,0.17,24.52-0.69,32.89,0c8.51,0.69,46.99-8.87,46.99-8.87c-6.36-1.14-12.24-2.07-15.43-2.41
				c-3.59-0.42-13.71-3.48-24.85-6.9h-0.05c8.04,5.58-29.58,10.95-41.38,10.06C238.77,363.67,239.18,366.73,239.54,367.34z"/>
			<g>
				<path class="st19" d="M341.69,369.16c-5.53,0.2-24.66-0.69-33.17,0c-8.51,0.69-31.79,1.39-38.01,3.45
					c-3.7,1.25-11.5,5.09-18.33,8.24c-4.62,2.15-8.79,3.96-10.92,4.43c-5.31,1.16-12.91,2.07-15.2-5.53
					c-2.32-7.6,5.06-11.49,10.36-13.82c0.42-0.19,0.99-0.39,1.69-0.57l0.03-0.03c7.82-2.46,31.18-6.61,38.81-7.44
					c8.29-0.94,50.86-16.06,61.75-16.58C352.53,340.6,347.91,366.39,341.69,369.16z"/>
				<path class="st20" d="M341.69,367.32c-5.53,0.19-24.66-0.69-33.17,0c-8.51,0.69-31.79,1.38-38.01,3.46
					c-3.7,1.24-11.5,5.08-18.33,8.24c-4.62,2.15-8.79,3.95-10.92,4.42c-5.31,1.15-12.91,2.07-15.2-5.53
					c-0.21-0.67-0.31-1.29-0.37-1.91c-0.14,1.14-0.04,2.38,0.37,3.74c2.3,7.61,9.9,6.69,15.2,5.53c2.13-0.46,6.3-2.27,10.92-4.43
					c6.83-3.15,14.63-6.99,18.33-8.24c6.22-2.07,29.5-2.76,38.01-3.45c8.51-0.69,27.64,0.2,33.17,0c3.34-1.48,6.19-9.61,5.99-16.7
					C347.4,359.05,344.75,365.96,341.69,367.32z"/>
				<path class="st21" d="M252.18,380.85c-4.62,2.15-8.79,3.96-10.92,4.43c-5.31,1.16-12.91,2.07-15.2-5.53
					c-2.32-7.6,5.06-11.49,10.36-13.82c0.42-0.19,0.99-0.39,1.69-0.57c-4.92,3.62-4.01,8.87-3.32,10.72
					C235.49,377.92,237.57,383.44,252.18,380.85z"/>
				<path class="st22" d="M361.51,367.09c-2.57,0.49-5.12,0.91-7.61,1.21c3.02-4.31,4.37-10.67,4.15-15.78
					c-0.25-5.15-4.84-12.61-8.29-14.62c6.36-1.55,12.41-2.3,16.97-1.97c7.21,0.53,13.65,3.9,15.03,12.36
					C382.6,353.29,380.86,363.41,361.51,367.09z"/>
				<path class="st23" d="M341.94,368.9c2.77-6.4,1.26-22.55-2.81-27.42c-0.49-0.59-0.43-1.15,0.29-1.41c3-1.07,6.08-2.02,9.09-2.8
					c0.74-0.19,1.88-0.02,2.47,0.46c3.46,2.89,7.44,9.8,7.67,14.72c0.22,4.97-0.98,11.08-3.65,15.58c-0.39,0.66-1.36,1.24-2.12,1.33
					c-3.58,0.41-7.01,0.67-10.21,0.72C341.9,370.11,341.64,369.61,341.94,368.9z"/>
				<path class="st24" d="M361.51,364.33c-2.23,0.43-2.93,0.57-5.1,0.85c-0.43,0.61-2.83,1.34-3.54,1.42
					c-3.58,0.43-7.01,0.68-10.21,0.74c-0.07,0-0.12-0.03-0.18-0.04c-0.16,0.57-0.33,1.12-0.54,1.6c-0.3,0.71-0.04,1.21,0.72,1.2
					c3.2-0.06,6.63-0.31,10.21-0.72c0.71-0.09,1.59-0.6,2.02-1.21c2.17-0.28,4.38-0.65,6.62-1.07
					c18.58-3.54,20.91-12.99,20.34-18.17C381.26,354.2,377.11,361.36,361.51,364.33z"/>
			</g>
		</g>
		<path class="st25" d="M286.83,158.72c3.83-5.84,15.69-7.32,24.34-3.61c8.63,3.71,17.35,14.32,19.48,25.84
			c2.14,11.53,2.2,21.44-2.28,27.75c0.77,4.51-13.43,26.2-16.66,29.13c-3.21,2.92-24.86-6.2-27.26-7.77
			c-2.36-1.57-5.89-16.28-7.64-21.66c-1.75-5.36-6.17-20.33-4.64-31.35C273.72,166.03,278.95,159.75,286.83,158.72z"/>
		<path class="st19" d="M271.25,321c12.29,2.13,26.65,1.35,50.07-2.61c-3.35-25.46,10.85-45.88,11.67-50.52
			c2.12,1.09,18.58-7.92,14.2-17.68c-4.37-9.83-8.19-12.98-12.36-15.08c-4.16-2.06-15.23-2.67-18.98-4.99
			c-3.07-1.92-5.33-9.08-6.21-16.25v-0.07c-0.2-1.24-0.34-2.4-0.41-3.62c-0.07-0.34-0.07-0.62-0.07-0.96
			c-0.27,0.27-0.61,0.55-1.09,0.88c-4.5,3.14-17,8.12-17,8.12s0.14,0.69,0.28,1.71v0.06c0.41,3.21,1.09,9.83-0.28,10.72
			c-1.77,1.3-19.25,1.92-23.62,2.74c-17.96,3.21,0.75,42.74,0.54,52.98C267.79,296.68,277.39,306.47,271.25,321z"/>
		<path class="st26" d="M233.45,287.26c0.61,0.89,1.23,1.71,1.71,2.32c2.46-7.03,20.69-47.73,23.14-51.69
			c2.46-4.02,16.59-5.82,19.26-5.4c0,0,3.83,20.1,21.19,18.67c11.58-0.96,21.25-6.34,22.35-19.27c4.76,1.05,10.87,1.79,13.75,3.24
			c4.17,2.08,7.95,5.21,12.32,15.04c4.38,9.8,21.43,33.74,22.89,37.21c2.29,5.41,2.92,20.24-12.75,19.6
			c3.97-5.21,4.67-13.02-6.83-10.5c-0.44-2.67-15.38-27.54-17.48-28.58c-0.42,2.29,1.64,14.75-6.38,24.92
			c-4.99,7.54-4.91,27.85-3.23,40.58c0,0-18.93,4.92-29.65,4.95c-10.72,0.03-29.32-4.95-29.32-4.95c1.87-7.17,7.89-34.3,4.86-39.33
			c-6.35-4.63-5.66-14.2-6.68-18.44c-4.56,8.7-12.03,22.04-13.43,25.22c-3.76,8.4-10.51,17.14-15.16,15.64
			c-0.07,0-0.14-0.08-0.27-0.15C230.99,306.86,231.81,294.9,233.45,287.26z"/>
		<path class="st27" d="M304.87,241.19c2.15-0.6,4.3-0.96,6.48-1.25c2.19-0.27,4.38-0.47,6.59-0.43c-2.13,0.6-4.3,0.96-6.49,1.24
			C309.28,241.03,307.07,241.23,304.87,241.19z"/>
		<path class="st27" d="M296.37,229.07c0.52,1.43,0.77,2.87,0.97,4.33c0.17,1.46,0.29,2.94,0.14,4.45
			c-0.51-1.44-0.77-2.88-0.97-4.35C296.34,232.05,296.24,230.58,296.37,229.07z"/>
		<path class="st28" d="M291.07,218.23c0,0,0.14,0.69,0.28,1.71v0.06c1.43,0.82,3.07,1.37,4.92,1.51c5.74,0.41,9.97-3.28,13.38-7.64
			v-0.14c0.14-1.35,0.34-2.59,0.48-3.48c-0.27,0-0.55-0.06-0.89-0.06c-0.34,0-0.75-0.07-1.16-0.07
			C303.57,213.25,291.07,218.23,291.07,218.23z"/>
		<path class="st19" d="M279.29,177.97c1.81-8.04,12.34-10.43,17.95-10.48c5.59-0.03,16.15,2.2,18.07,10.23
			c2.01,8.39,1.88,21.94-1.09,27.35c-3,5.42-8.09,14.78-16.63,14.83c-8.52,0.06-13.75-9-16.82-14.38
			C277.72,200.16,277.4,186.41,279.29,177.97z"/>
		<g>
			<path class="st29" d="M302.29,209.96c-1.11,0.12-3.67-0.34-4.75-0.3c-1.11-0.01-3.66,0.45-4.74,0.37
				c-0.57-0.04-1.37-0.17-2.13-0.57c1.22,1.89,6.03,1.86,6.89,1.85c0.86,0,5.64-0.03,6.85-1.95
				C303.63,209.77,302.83,209.9,302.29,209.96z"/>
			<path class="st30" d="M297.55,211.32c0,0-4.11-0.16-5.13-0.65c0.33,1.33,1.08,1.98,2.04,2.31c0.93,0.31,2.19,0.4,3.1,0.4
				c0.89-0.01,2.16-0.1,3.08-0.43c0.94-0.34,1.69-1,1.99-2.34C301.65,211.09,297.55,211.32,297.55,211.32z"/>
		</g>
		<g>
			<path class="st27" d="M300.39,201.07c0.24,0.14,0.43,0.4,0.54,0.66c0.13,0.26,0.19,0.56,0.21,0.83c-0.01,0.58-0.2,1.22-0.72,1.51
				c0.21-0.51,0.31-0.98,0.28-1.49c-0.01-0.24-0.04-0.5-0.09-0.75C300.56,201.58,300.5,201.33,300.39,201.07z"/>
			<g>
				<path class="st27" d="M295.24,203.93c-0.09-0.09-0.08-0.29,0.06-0.38c0.09-0.09,0.22-0.15,0.34-0.19
					c0.08-0.01,0.15-0.02,0.22-0.01c0.1,0.01,0.16,0.04,0.23,0.09c0.14,0.06,0.23,0.15,0.33,0.26c0.36,0.41,0.61,0.6,1.08,0.56
					c0.47,0.04,0.74-0.17,1.07-0.57c0.17-0.16,0.45-0.43,0.76-0.34c0.14,0.02,0.26,0.07,0.36,0.17c0.11,0.09,0.14,0.28,0.06,0.37
					c0.08-0.28-0.26-0.34-0.45-0.33c-0.2-0.01-0.32,0.16-0.46,0.33c-0.12,0.19-0.28,0.43-0.53,0.59c-0.23,0.16-0.57,0.21-0.82,0.21
					c-0.26,0.01-0.55-0.05-0.8-0.2c-0.26-0.15-0.42-0.41-0.55-0.56c-0.15-0.19-0.25-0.36-0.46-0.35
					C295.49,203.59,295.16,203.64,295.24,203.93z"/>
				<path class="st27" d="M294.56,201.12c-0.12,0.27-0.18,0.51-0.22,0.76c-0.04,0.24-0.08,0.5-0.06,0.74
					c-0.03,0.51,0.07,0.96,0.3,1.49c-0.55-0.3-0.76-0.95-0.76-1.49c0.02-0.29,0.06-0.58,0.18-0.85
					C294.12,201.52,294.3,201.25,294.56,201.12z"/>
			</g>
		</g>
		<path class="st31" d="M301.9,186.69c-0.41-0.35,0.52-1.38,1.55-1.91c1.03-0.55,2.83-1.5,5-1.69c2.15-0.17,4.41,0.9,5.64,2.77
			c-1.99-0.85-3.23-1.42-4.31-1.23c-1.06,0.19-3.5,0.8-4.45,1.23C304.36,186.28,302.68,187.36,301.9,186.69z"/>
		<path class="st27" d="M310.88,190c-1.04-0.86-2.35-1.95-4.61-1.72c-1.1,0.08-1.91,0.62-2.48,1.35c-0.12,0.15-0.24,0.29-0.33,0.48
			c0.09-0.09,0.2-0.19,0.32-0.28c0.43-0.37,1.03-0.64,1.73-0.77c0.69-0.08,1.41-0.05,2.11,0.07c0.02-0.03,0.93,0.19,1.25,0.32
			c0.27,0.13,1.28,0.52,1.56,0.61c0.17,0.03,0.3,0.08,0.45,0.11c0.07,0.01,0.14,0.02,0.22,0.03
			C311.03,190.14,310.95,190.08,310.88,190z"/>
		<path class="st11" d="M311.47,190.48c-0.24,0.57-0.6,1.21-1.18,1.78c-0.01,0.04-0.04,0.07-0.04,0.11
			c-0.07,0.05-0.13,0.08-0.17,0.13v0.01c-0.02,0.02-0.05,0.02-0.06,0.04c-0.53,0.48-1.23,0.86-2.11,1.08
			c-0.12,0.05-0.26,0.06-0.4,0.07c-0.74,0.07-1.74,0.01-2.74-0.19c0,0,0,0,0,0c-0.78-0.16-1.53-0.39-2.14-0.7l0-0.02
			c0.08-0.94,0.34-1.91,0.84-2.68c0.09-0.09,0.2-0.19,0.32-0.28c0.43-0.37,1.03-0.64,1.73-0.77c0.69-0.08,1.41-0.05,2.11,0.07
			c0.02-0.03,0.93,0.19,1.25,0.32c0.27,0.13,1.28,0.52,1.56,0.61c0.17,0.03,0.3,0.08,0.45,0.11c0.07,0.01,0.14,0.02,0.22,0.03
			C311.24,190.3,311.33,190.38,311.47,190.48z"/>
		<path class="st31" d="M292.84,186.76c0.41-0.35-0.54-1.37-1.57-1.88c-1.03-0.55-2.86-1.46-5.02-1.61
			c-2.16-0.16-4.38,0.95-5.62,2.83c1.99-0.86,3.22-1.45,4.29-1.3c1.08,0.18,3.53,0.75,4.48,1.17
			C290.36,186.37,292.06,187.44,292.84,186.76z"/>
		<path class="st27" d="M291.22,189.77c0-0.04-0.01-0.05-0.05-0.07c-0.63-0.81-1.5-1.41-2.65-1.54c-1.76-0.17-2.92,0.43-3.82,1.11
			c-0.21,0.16-0.4,0.32-0.57,0.47c0.11-0.04,0.31-0.11,0.59-0.18c0.37-0.14,0.8-0.31,0.96-0.36c0.31-0.14,1.22-0.34,1.24-0.31
			c0.7-0.13,1.42-0.12,2.16,0.01c0.86,0.16,1.59,0.57,2.1,1.06c0.04,0.01,0.04,0.01,0.05,0.04c0.19,0.16,0.34,0.34,0.45,0.53
			C291.56,190.26,291.41,190.01,291.22,189.77z"/>
		<path class="st11" d="M292.35,192.77l-0.02,0c-0.99,0.49-2.4,0.79-3.59,0.86c-0.64,0.04-1.21,0.01-1.62-0.08
			c-0.7-0.18-1.27-0.45-1.74-0.79c-0.23-0.16-0.43-0.32-0.6-0.5c-0.14-0.12-0.26-0.25-0.37-0.39c-0.15-0.14-0.24-0.29-0.33-0.44
			c-0.05-0.09-0.12-0.18-0.19-0.27c-0.01-0.02-0.01-0.02-0.01-0.03c-0.19-0.28-0.34-0.55-0.45-0.79c0.24-0.18,0.46-0.39,0.71-0.58
			c0.11-0.04,0.31-0.11,0.59-0.18c0.37-0.14,0.8-0.31,0.96-0.36c0.31-0.14,1.22-0.34,1.24-0.31c0.7-0.13,1.42-0.12,2.16,0.01
			c0.86,0.16,1.59,0.57,2.1,1.06c0.04,0.01,0.04,0.01,0.05,0.04c0.19,0.16,0.34,0.34,0.45,0.53c0.02,0.01,0.04,0.03,0.04,0.03
			C292.05,191.24,292.24,191.99,292.35,192.77z"/>
		<g>
			<path class="st32" d="M289.98,191.39c0.1,0.95-0.41,1.82-1.23,2.23c-0.64,0.04-1.21,0.01-1.62-0.08
				c-0.7-0.18-1.27-0.45-1.74-0.79c-0.18-0.29-0.28-0.59-0.31-0.94c-0.16-1.27,0.84-2.41,2.18-2.52
				C288.6,189.17,289.84,190.09,289.98,191.39z"/>
			<path d="M286.12,191.72c0.08,0.74,0.77,1.26,1.54,1.18c0.78-0.06,1.34-0.71,1.25-1.43c-0.08-0.74-0.77-1.26-1.54-1.2
				C286.59,190.35,286.03,190.98,286.12,191.72z"/>
			<path class="st13" d="M285.48,191.12c0.05,0.43,0.45,0.74,0.92,0.71c0.46-0.04,0.79-0.43,0.74-0.86
				c-0.05-0.44-0.46-0.74-0.92-0.71C285.77,190.32,285.43,190.7,285.48,191.12z"/>
		</g>
		<g>
			<path class="st32" d="M308.74,191.48c0.1,0.94-0.42,1.81-1.23,2.23c-0.74,0.07-1.74,0.01-2.74-0.19c0,0,0,0,0,0
				c-0.53-0.38-0.86-0.95-0.95-1.59c-0.16-1.28,0.84-2.42,2.2-2.54C307.37,189.25,308.6,190.19,308.74,191.48z"/>
			<path d="M304.88,191.81c0.08,0.74,0.78,1.26,1.53,1.18c0.79-0.05,1.34-0.7,1.26-1.43c-0.09-0.72-0.77-1.25-1.55-1.19
				C305.35,190.46,304.79,191.1,304.88,191.81z"/>
			<path class="st13" d="M304.25,191.22c0.03,0.43,0.45,0.73,0.92,0.7c0.44-0.04,0.8-0.43,0.74-0.85c-0.04-0.43-0.46-0.76-0.91-0.71
				C304.53,190.4,304.19,190.79,304.25,191.22z"/>
		</g>
		<path d="M292.35,192.77c0,0.01,0,0.01,0,0.02c0.01,0-0.02,0-0.02-0.02c-0.31-0.7-0.67-1.42-1.23-2c-0.55-0.61-1.31-1.09-2.24-1.27
			c-0.94-0.17-1.97-0.13-2.88,0.12c-0.19,0.07-0.38,0.13-0.57,0.2c-0.55,0.24-1.09,0.55-1.37,0.82c-0.16,0.11-0.21,0.31-0.16,0.48
			c0,0.01,0,0.01,0.01,0.03c0.03,0.11,0.11,0.25,0.19,0.38c0.11,0.15,0.19,0.27,0.33,0.41c0.11,0.13,0.23,0.25,0.36,0.37
			c-1.02-0.33-3.07-2.07-3.13-2.82c0.34-0.01,0.82,0.68,2.49,0.26c0.11-0.04,0.31-0.11,0.59-0.18c0.37-0.14,0.8-0.31,0.96-0.36
			c0.31-0.14,1.22-0.34,1.24-0.31c0.7-0.13,1.42-0.12,2.16,0.01c0.86,0.16,1.59,0.57,2.1,1.06c0.04,0.01,0.04,0.01,0.05,0.04
			c0.19,0.16,0.34,0.34,0.45,0.53c0.02,0.01,0.04,0.03,0.04,0.03C292.21,191.24,292.4,192.03,292.35,192.77z"/>
		<path class="st25" d="M286.43,165.42c-2.08,3.42,4.41,4.06,8.79,5.55c9.73,3.3,18.5,19.96,20.11,28.24
			c1.6,8.26-3.33,14.66-5.35,19.21c-2.01,4.54,0.9,12.79,2.49,15.74c2.86,5.27-1.88,9.02,0.65,15.58c2.71,7.04,8.26,7.28,7.38,20.76
			c1.89-5.39,8.54-11.76,2.22-21.97c-2.27-3.65,3.31-3.93,6.31-9.1c1.67-2.83-0.01-13.59-5.61-15.48c5.05-1.98,6.72-9.32,4.95-15.24
			c-1.77-5.92,0.53-22.19-2.15-29.87c-2.75-7.85-9.94-18.47-20.62-18.62C294.93,160.08,288.13,162.6,286.43,165.42z"/>
		<path class="st25" d="M288.52,237.75c5.59-4.67-0.1-14.23-2.11-16.36c-1.99-2.15-4.8-7.57-5.72-13.45
			c-0.79-4.98-1.71-11.64,0.21-17.47c1.9-5.82,0.55-11.77,1.51-14.46c0.96-2.7,5.13-5.87,7.98-6.44c-2.98-2.78-7.05-3.82-11.05-2.39
			c-1.22,0.43-5.25,4.88-7.16,9.86c-3.77,9.73-3.96,21.7-3.6,25.16c0.35,3.44,1.71,12.7,6.59,17.32c4.9,4.58,5.31,13.53,3.55,17.66
			c-1.78,4.09-3.51,12,0.11,15.86C279.36,248.61,282.65,242.67,288.52,237.75z"/>
		<path d="M312.83,189.87c0.03,0.73-1.85,2.4-2.81,2.69c0.01-0.01,0.03-0.03,0.06-0.05l0.17-0.14c0-0.04,0.03-0.06,0.04-0.11
			c0.48-0.53,0.7-1.04,0.28-1.36c-0.3-0.22-0.85-0.56-1.41-0.81c-0.19-0.08-0.39-0.16-0.59-0.23c-0.9-0.27-1.9-0.34-2.83-0.22
			c-0.86,0.15-1.58,0.6-2.06,1.19c-0.49,0.58-0.81,1.27-1.07,1.96c-0.09-0.73,0.04-1.48,0.45-2.19c0.12-0.17,0.23-0.35,0.38-0.49
			c0.09-0.09,0.2-0.19,0.32-0.28c0.43-0.37,1.03-0.64,1.73-0.77c0.69-0.08,1.41-0.05,2.11,0.07c0.02-0.03,0.93,0.19,1.25,0.32
			c0.27,0.13,1.28,0.52,1.56,0.61c0.17,0.03,0.3,0.08,0.45,0.11c0.07,0.01,0.14,0.02,0.22,0.03
			C312.23,190.34,312.54,189.85,312.83,189.87z"/>
		<path class="st19" d="M186.14,235.78c-0.55,0,2.6,9.02,2.46,9.08c0.89,2.04,2.39,3.82,4.64,5.05c2.26,1.23,5.12,2.32,7.92,7.11
			c0.69,1.22,1.84,3.2,3.28,5.52c0,0,10.51,25.26,12.36,30.52c2.04,5.66,12.15,21.44,16.93,23.27c-2.73-9.48-1.91-21.43-0.27-29.08
			c-7.03-9.49-23.55-32.15-23.76-32.49c-1.78-3.56-2.25-6.29-2.19-9.01c0.07-2.81-1.71-5.33-1.98-7.99
			c-0.07-0.55-3.01-7.24-3.28-7.44c-8.19-7.92-1.43,6.28-1.98,6.21c-1.16,0-14.41-13.12-14.41-13.12S190.44,235.58,186.14,235.78z"
			/>
		<path class="st33" d="M188.57,244.87c-1.43-2.21-3.24-5.29-2.79-6.54c0.44-1.24,0.44-1.77,0.35-2.57c-0.08-0.8-1.15-1.57-1.26-2.5
			c-0.14-0.94,1.11-1.4,0.98-2.3c-0.14-0.9-0.6-1.54-0.7-2.41c-0.09-0.89,1.02-1.53,0.97-2.18c-0.02-0.67-1.04-2.25-0.24-2.98
			c0.79-0.71,6.21-2.74,7.05-3.11c2.28-0.98,3.75,0.6,1.13,2.08c-2.61,1.51-5.35,2.76-5.05,3.51c0.27,0.72,5.47-1.12,7.27-1.6
			c3.14-0.86,4.27,1.26,0.93,2.62c-3.93,1.58-7.67,2.33-7.49,3.4c0.22,1.41,5.4,0.6,7.52,0.01c3.53-0.96,4.86,1.11,1.51,2.28
			c-3.97,1.37-8.35,2.02-8.31,3.02c0.01,0.86,3.53,0.69,5.17,0.1c2.41-0.85,3.16,0.82,0.8,1.97c-2.97,1.43-6.75,2.85-6.96,3.68
			c-0.22,0.85,2.97,8.03,2.97,8.03L188.57,244.87z"/>
		<path class="st34" d="M282.15,291.32c1.55-0.63,3.07-1.31,4.59-2.01c1.5-0.74,3-1.45,4.42-2.27c1.41-0.81,2.85-1.67,3.88-2.69
			l0.59-0.57l0.7,0.37c0.94,0.47,1.61,0.95,2.37,1.43l2.21,1.4c1.46,0.93,2.98,1.76,4.5,2.56c1.55,0.76,3.13,1.48,4.76,2.05
			c1.63,0.59,3.32,1.02,5.07,1.35c-5.24,0.63-13.59-1.39-15.16-2.23c-0.78-0.44-3.35-2-3.85-2.3c-1.22,0.99-2.5,1.74-3.8,2.41
			c-1.56,0.74-8.62,2.26-15.05,2.13C279.03,292.56,280.59,291.94,282.15,291.32z"/>
		<path class="st35" d="M350.48,296.48c-2.37,5.07-4.83,10.76-9.7,16.07c3.77,1.57,6.94,5.04,8.81,7.47
			c7.7-6.96,17.95-15.22,19.25-18.33c3.15-7.52-4.27-12.49-8.06-12.95C357.6,288.34,353.13,290.81,350.48,296.48z"/>
		<path class="st35" d="M351.06,316.49c0.07,2-0.99,6.62-1.31,7.93c-0.64,2.66-3.89,5.97-5.46,7.37c-1.58,1.38-5.59,3.92-8.39,5.02
			c-1.11,0.45-1.96,0.45-2.49,0.24c-0.8-0.32-0.88-1.14-0.03-1.69c0.09-0.06,0.21-0.14,0.36-0.24c1.94-1.29,7.93-5.29,10.27-8.18
			c-1.01,0.99-6.7,4.87-10.12,6.75c-0.32,0.18-0.63,0.33-0.9,0.47c-3.22,1.61-4.92,0.03-3.58-1.28c0.64-0.63,2.75-2.3,4.87-4.06l0,0
			c2.32-1.92,4.63-3.92,5.02-4.7c-0.97,0.39-4.61,1.99-7.92,3.46c-1.63,0.73-3.19,1.41-4.31,1.91c-0.38,0.17-0.72,0.32-0.99,0.45
			c-0.59,0.27-1.02,0.36-1.33,0.31c-1.13-0.14-0.78-1.84-0.51-2.2c0.07-0.12,0.33-0.33,0.7-0.61c1.13-0.85,3.28-2.26,4.41-3.01
			c1.46-0.98,7.33-4.98,7.69-5.23c-0.36,0.2-6.23,3.3-7.67,3.98c-1.51,0.68-3.01,2.63-4.1,1.03c-1.1-1.59,3.27-4.71,4.38-5.79
			c1.11-1.08,8.73-5.46,10.74-6.89C340.99,310.56,350.87,311.4,351.06,316.49z"/>
	</g>
	<g>
		<path class="st7" d="M442.46,327.91c-1.45,9.26-2.53,21.25-2.64,25.32c6.42,2.2,11.09-26.51,11.09-26.51L442.46,327.91z"/>
		<g>
			<path class="st5" d="M394.35,366.76c2.35,2.13,6.48,5.67,8.25,5.79c4.87-1.17,17.19-12.54,29.15-12.71
				c11.97-0.17,26.63-3.91,26.63-3.91l16.66,0.65c4.65,9.84,1.65,21.45-8.93,22.22c-10.57,0.77-18.52-1.77-31.17-5.64
				c-11.12,1.62-18.21,8.06-28.06,8.82c0,0.02,0.01,0.05,0.01,0.05c-1.32,0.9-2.7,2.18-4.39,3.36c-5.27-1.84-8.14-8.86-9.42-13.63
				C392.1,368.19,391.69,365.85,394.35,366.76z"/>
			<path class="st36" d="M385.7,366.93c0.19,5.25,6.97,13.41,8.5,17.06c1.55,3.64,2.95,4.13,5.17,3.17
				c1.19-0.52,2.21-1.14,3.14-1.78c-5.27-1.84-8.14-8.86-9.42-13.63c-0.99-3.57-1.4-5.9,1.26-5c-1.29-1.2-2.5-2.45-3.37-3.59
				C388.51,359.97,385.52,361.68,385.7,366.93z"/>
		</g>
		<g>
			<path class="st37" d="M386.53,381.61c0.47,5.24,7.96,13.07,9.75,16.63c1.81,3.57,3.3,3.99,5.55,2.92
				c1.21-0.58,2.24-1.25,3.18-1.94c-5.59-1.57-8.95-8.46-10.54-13.15c-1.21-3.52-1.76-5.83,1.06-5.06c-1.42-1.13-2.73-2.31-3.7-3.42
				C389.09,374.52,386.07,376.37,386.53,381.61z"/>
			<path class="st7" d="M395.54,381c2.55,2.03,7.05,5.35,8.9,5.39c5.01-1.4,18.23-17.34,30.69-18.09c12.47-0.75,26.59-1.2,26.59-1.2
				l17.4-0.16c5.36,9.61,2.83,21.34-8.15,22.63c-10.98,1.27-19.41-0.88-32.79-4.14c-11.5,2.16-18.56,8.93-28.78,10.18
				c0,0.01,0.01,0.05,0.01,0.05c-1.33,0.96-2.71,2.31-4.4,3.56c-5.59-1.57-8.95-8.46-10.54-13.15
				C393.27,382.55,392.72,380.24,395.54,381z"/>
		</g>
		<path class="st7" d="M449.7,319.84c3.05,3.65,13.39,6.9,17.87,1.43c-0.65-2.48-2.24-6.61-2.48-9.55c-0.09-0.7-0.09-1.29,0.03-1.83
			h-12.37c0,0,0.27,4.54-1.64,8.03C450.71,318.61,450.26,319.27,449.7,319.84z"/>
		<path class="st38" d="M484.1,326.96c0,0-4.56,3.45-8.41,3.45c2.74,12.83,1.66,27.19,6.02,39.56c7.19,20.44-12.79,23.53-34,19.87
			c-1.41-8.86,1.52-17.11-9.4-21.84c-1.81-4.67-15.14-6.35-14.99-6.44c3.6-2.34,11.43-1.84,17.84-10.27
			c4.4-5.78,3.34-15.14,3.81-22.45c-0.66-0.28-2.34,1.04-2.97,0.79c-1.05-5,4.42-12.9,9.91-13.58c0,0,1.64,4.81,6.72,5.21
			c5.08,0.41,6.54-2.56,7.64-4.23c1.91-0.45,8.21-0.97,10.64,0C479.34,318.02,484.1,319.37,484.1,326.96z"/>
		<path class="st39" d="M480.61,367.69c-4.35-12.37-3.26-10.09,1.09,2.28c7.19,20.44-12.79,23.53-34,19.87
			c-0.11-0.72-0.19-1.44-0.26-2.15C468.33,391.13,487.7,387.86,480.61,367.69z"/>
		<path class="st7" d="M471.69,328.61c0.93,4.29,11.48,45.5,12.41,49.98c0.93,4.48,4.42,7.35,6.84,6.79c2.43-0.57,8.16-0.98,13.07,0
			c2.56,0.51-3.11-3.99-4.97-4.74c-1.87-0.75-5.04,0-5.79-0.38c-0.75-0.38-5.51-25.13-6.25-28.69c-0.75-3.55-2.8-7.47-2.61-11.02
			c0.19-3.55,0.2-13.63-0.93-17.37C482.33,319.46,470.75,324.32,471.69,328.61z"/>
		<path class="st38" d="M471.69,328.57v0.06c0.15,0.69,0.21,1.97,0.3,3.65c0.15,2.57,0.36,6.09,1.14,9.89c0.54,0.02,1.2,0,1.91-0.03
			c3.56-0.15,8.82-0.82,11.14-1.8c0.18-3.67-1.61-13.45-2.72-17.12c-1.14-3.73-6.9-5.07-8.43-4.6
			C471.99,319.55,470.79,324.29,471.69,328.57z"/>
		<path class="st10" d="M465.08,311.72c-0.09-0.7-0.09-1.29,0.03-1.83h-12.37c0,0,0.27,4.54-1.64,8.03
			C455.08,317.49,460.69,314.83,465.08,311.72z"/>
		<path class="st7" d="M444.08,265.32c-2.43,1.84-6.2,5.8-6.06,10.6c0.14,4.81,0.16,9.4,0.07,12.18c-0.08,2.77-1.76,8.34-1.31,12.81
			c0.45,4.48,8.08,12.55,13.21,13.37c5.13,0.82,14.4-1.79,19.82-5.14c5.42-3.35,7.74-9.12,8.56-14.25
			c0.83-5.13-0.34-20.6-2.71-24.53c-2.37-3.94-9.35-9.23-16.6-9.18C451.81,261.21,447.21,262.95,444.08,265.32z"/>
		<g>
			<path class="st11" d="M467.16,292.4c0.02,2.89-2.31,3.77-4.78,3.79c-2.46,0.01-4.7-1.36-4.82-3.72
				c-0.21-4.05,2.11-5.24,4.77-5.26c1.4-0.01,2.65,0.46,3.53,1.41c0.7,0.74,1.16,1.78,1.28,3.14v0
				C467.15,291.98,467.16,292.19,467.16,292.4z"/>
			<path class="st40" d="M463.94,292.11L463.94,292.11c-0.18,1.7-1.52,3.02-3.16,3.02c-1.77,0.02-3.21-1.51-3.22-3.4
				c-0.01-1.88,1.42-3.43,3.18-3.44c0.72,0,1.42,0.21,1.93,0.68C463.41,289.67,463.82,290.75,463.94,292.11z"/>
			<path d="M462.47,291.7c0,0.94-0.76,1.72-1.7,1.72c-0.94,0.01-1.71-0.75-1.72-1.7c-0.01-0.94,0.75-1.72,1.69-1.72
				C461.7,289.99,462.46,290.76,462.47,291.7z"/>
			<path d="M462.75,287.84c1.2,0,2.31,0.29,3.2,0.88c-0.89-1.02-2.18-1.53-3.63-1.52c-2.65,0.02-4.8,1.21-4.77,5.27
				c0,0.12,0,0.23,0.01,0.33C457.66,289,459.94,287.86,462.75,287.84z"/>
			<path class="st13" d="M462.43,290.66c0,0.45-0.36,0.83-0.8,0.83c-0.44,0-0.8-0.37-0.8-0.81c0-0.45,0.35-0.83,0.79-0.83
				C462.07,289.85,462.43,290.22,462.43,290.66z"/>
		</g>
		<g>
			<path class="st11" d="M446.81,291.07c0.02,2.88-1.51,4.18-4.4,3.69c-1.99-0.34-2.89-1.54-2.91-3.65
				c-0.02-2.87,1.6-5.21,3.63-5.23C445.14,285.87,446.8,288.19,446.81,291.07z"/>
			<path class="st40" d="M444.64,290.37c0.01,1.69-1.13,3.07-2.55,3.08c-1.42,0.01-2.58-1.36-2.59-3.05
				c-0.01-1.69,1.14-3.07,2.55-3.08C443.48,287.3,444.63,288.67,444.64,290.37z"/>
			<path d="M443.88,290.37c0,0.74-0.58,1.35-1.31,1.36c-0.73,0-1.34-0.6-1.34-1.34c0-0.75,0.59-1.35,1.32-1.36
				C443.28,289.02,443.88,289.62,443.88,290.37z"/>
			<path class="st13" d="M444,289.73c0,0.45-0.35,0.82-0.8,0.82c-0.45,0-0.8-0.36-0.81-0.82c0-0.45,0.35-0.82,0.8-0.82
				C443.63,288.91,444,289.28,444,289.73z"/>
			<path d="M443.26,286.57c1.27-0.01,2.4,0.8,3.1,2.03c-0.63-1.63-1.85-2.74-3.24-2.73c-2.02,0.01-3.64,2.36-3.63,5.23
				c0,0.06,0.01,0.13,0.01,0.19C439.56,288.69,441.22,286.58,443.26,286.57z"/>
		</g>
		<path class="st41" d="M447.49,280.07l0.16-0.47c0.23-0.66-0.12-1.39-0.83-1.45c-0.65-0.05-2.24-0.17-3.18,0.13
			c-2.07,0.65-2.53,2.25-2.64,3c1.01-0.33,3.48,0.2,5.12,0C446.81,281.19,447.25,280.74,447.49,280.07z"/>
		<path class="st41" d="M457.87,280.26c0-0.75,0.28-1.63,1.16-1.81c1.14-0.26,2.53,0.01,3.57,0.38c2.28,0.81,2.69,2.44,2.76,3.2
			c-1.12-0.41-3.93-0.08-5.76-0.41C458.81,281.47,457.87,281.24,457.87,280.26z"/>
		<path class="st15" d="M448.69,302.01c-0.84-0.31-1.48-1.29-1.33-2.31c0.06-0.5,0.32-0.98,0.7-1.31c0.45-0.36,0.9-0.49,1.37-0.58
			c0.93-0.17,1.88-0.12,2.77,0.14c0.88,0.25,1.78,0.77,2.15,1.62c-0.6-0.69-1.45-0.94-2.27-1.1c-0.84-0.13-1.71-0.15-2.52,0.01
			c-0.4,0.07-0.82,0.21-1.08,0.4c-0.3,0.23-0.51,0.58-0.61,0.94C447.69,300.54,447.98,301.46,448.69,302.01z"/>
		<path class="st42" d="M445.27,303.76c0.33,1.69,3.93,4.98,5.64,4.97c2.88-0.02,6.69-1.54,8.23-3.98
			c-1.15,0.73-5.88,1.96-8.24,1.74C449.08,306.33,446.9,304.96,445.27,303.76z"/>
		<g>
			<path class="st43" d="M439.29,265.61c2.63,0.49-4.04,7.46-0.94,14.29c1.01-3.36,2.01-6.58,2.59-7.16
				c-0.14,1.9,6.55,7.32,16.52,8.21c-4.39-1.87-4.69-3.46-5.13-4.78c2.78,2.31,9.64,4.75,11.98,4.74c-4.1-3.04-2.94-4.95-2.8-6.11
				c4.1,3.47,8.07,8.99,8.67,11.46c0.72-1.17,1.59-1.61,1.88-2.34c0.01,2.19,5.72,12.72,5.44,14.76c0.88-3.79,3.2-8.1,4.93-10.59
				c1.61,0.86,4.68,0.4,6.7-1.36c2.03-1.76,1.72-5.66,0.68-7.35c3.5,0.62,4.79-4.06,2.59-5.65c3.35-1.04,4.34-5.71,3.6-7.6
				c-0.74-1.89-3.82-4.5-5.57-4.49c1.59-2.63-0.63-8.16-4.55-5.95c0.28-2.34-2.38-7.27-6.45-5.35c0.13-2.92-2.37-5.38-4.56-5.96
				c-2.19-0.56-6.27,0.04-6.98,2.23c-1.62-2.46-5.85-3.02-7-0.98c-1.33-2.17-5.71-4.04-7.9-3.45c-2.19,0.6-4.51,2.22-4.2,4.99
				c-1.9-0.43-5.24,0.91-4.21,2.8c-2.92-0.14-6.7,1.93-4.62,6.73C435.74,257.46,434.04,264.62,439.29,265.61z"/>
			<path class="st38" d="M439.69,267.53c3.29-4.26,18.52-5.57,26.13-0.23c7.61,5.33,14.13,19.09,13.67,25.93
				c1.35-1.24,2.5-2.65,2.72-4.84c0.22-2.19,2.34-18.72-16.1-27.75c-12.56-6.16-25.04,1.49-27.87,4.67
				C438.47,266.6,439.69,267.53,439.69,267.53z"/>
		</g>
		<g>
			<path class="st7" d="M476.79,286.22c0.57-1.43,2.96-3.16,4.39-1.62c1.42,1.55,2.91,7.28,1.02,11.19
				c-2.22,4.56-4.41,5.12-5.55,4.16C475.52,298.98,476.79,286.22,476.79,286.22z"/>
			<path class="st15" d="M480.4,288.88c-0.2-0.84-1.03-1.36-1.7-1.08c-0.66,0.2-1.27,0.86-1.41,1.83c-0.12,0.82-0.09,1.93,0.45,2.68
				c0.52,0.72,1.19,1.04,1.79,1.35l-0.14-0.24c0.06,0.46-0.16,1.1-0.38,1.61c-0.24,0.54-0.5,1.07-0.84,1.52
				c0.41-0.35,0.77-0.79,1.08-1.3c0.28-0.53,0.61-1.05,0.6-1.9l-0.01-0.17l-0.15-0.08c-0.59-0.33-1.19-0.67-1.54-1.24
				c-0.36-0.56-0.45-1.3-0.36-2.08c0.08-0.68,0.49-1.29,1.03-1.55C479.34,287.97,480.05,288.1,480.4,288.88z"/>
		</g>
		<path class="st39" d="M471.48,327.76l0.51,4.51l1.14,9.89c0.54,0.02,1.2,0,1.91-0.03l-3.34-13.51v-0.06L471.48,327.76z"/>
	</g>
</g>
</svg>
